<svg width="2320" height="896" viewBox="0 0 2320 896" fill="none" xmlns="http://www.w3.org/2000/svg">
<g opacity="0.3">
<path d="M52.1095 156.083C52.1095 156.083 445.731 54.6907 577.83 266.012C709.929 477.333 533.873 731.67 677.023 676.104C875.64 598.986 1188.01 635.312 1244.77 663.289C1414.9 747.235 1435.35 678.394 1538.9 614.935C1642.44 551.476 1875.14 99.4275 1955.44 195.359C2035.73 291.29 1936.69 884.292 2061.12 879.01C2185.54 873.729 2194.91 347.868 2227.34 351.436M51.8666 153.603C51.8666 153.603 441.673 47.7287 567.119 258.352C693.779 471.033 527.031 727.316 676.197 667.661C878.067 587.555 1182.74 619.439 1244.11 651.319C1412.2 738.638 1434.53 669.951 1538.07 606.492C1641.61 543.033 1862.32 103.005 1948.29 203.406C2029.67 298.397 1935.86 875.849 2060.29 870.567C2184.72 865.286 2194.57 344.393 2227 347.962M51.6075 150.957C51.6075 150.957 437.599 40.6013 556.408 250.693C677.478 464.914 520.157 722.632 675.371 659.218C880.43 575.462 1177.64 603.549 1243.44 639.35C1409.64 729.693 1433.7 661.508 1537.24 598.049C1640.79 534.59 1849.52 106.748 1941.14 211.454C2023.45 305.52 1935.04 867.405 2059.46 862.124C2183.89 856.843 2194.21 340.754 2226.64 344.322M51.3485 148.299C51.3485 148.299 433.525 33.4624 545.681 242.857C661.161 458.618 513.282 717.936 674.529 650.598C882.826 563.688 1172.36 587.498 1242.76 627.203C1407.36 720.208 1432.86 652.888 1536.4 589.429C1639.95 525.97 1836.53 110.331 1933.99 219.49C2017.07 312.813 1934.19 858.785 2058.62 853.504C2183.05 848.223 2193.86 337.102 2226.29 340.67M51.1053 145.816C51.1053 145.816 429.316 26.6793 534.969 235.194C644.859 452.497 506.424 713.414 673.702 642.152C885.237 552.089 1167.24 571.44 1241.93 615.247C1404.9 710.582 1432.03 644.442 1535.58 580.983C1639.12 517.524 1823.54 113.922 1926.67 227.551C2010.69 320.115 1933.37 850.339 2057.8 845.058C2182.22 839.777 2193.5 333.46 2225.93 337.028M50.8462 143.166C50.8462 143.166 425.242 19.5481 524.258 227.531C628.574 446.54 499.733 708.875 672.877 633.705C887.648 540.488 1161.96 555.397 1241.27 603.274C1402.77 700.923 1431.21 635.995 1534.75 572.536C1638.29 509.077 1810.57 117.677 1919.52 235.595C2004.31 327.416 1932.54 841.893 2056.97 836.611C2181.4 831.33 2193.16 329.982 2225.59 333.55M50.5872 140.518C50.5872 140.518 420.849 12.6169 513.531 219.705C612.273 440.42 492.858 704.189 672.035 625.095C890.044 528.725 1156.81 539.009 1240.59 591.137C1400.6 690.769 1430.36 627.385 1533.91 563.926C1637.45 500.467 1797.58 121.27 1912.36 243.476C1997.92 334.554 1931.7 833.282 2056.13 828.001C2180.56 822.72 2192.79 326.175 2225.22 329.743M50.328 137.867C50.328 137.867 416.64 5.83202 502.804 211.875C595.805 434.313 486 699.664 671.192 616.482C892.439 516.958 1151.83 522.602 1239.91 578.997C1398.57 680.43 1429.52 618.771 1533.07 555.312C1636.61 491.853 1784.61 125.024 1905.21 251.519C1991.37 341.87 1930.86 824.669 2055.29 819.388C2179.71 814.106 2192.43 322.53 2224.86 326.098M50.0856 135.384C50.0856 135.384 412.264 -0.934951 492.11 204.378C579.37 428.539 479.175 695.474 670.383 608.201C895.051 505.673 1146.71 506.544 1239.26 567.191C1396.75 670.408 1428.71 610.491 1532.26 547.032C1635.8 483.573 1771.47 128.797 1898.06 259.564C1984.83 349.188 1930.03 816.223 2054.46 810.942C2178.89 805.66 2192.08 318.887 2224.51 322.455M49.8259 132.731C49.8259 132.731 407.72 -7.68982 481.382 196.546C562.733 422.445 472.467 690.766 669.54 599.586C897.461 494.07 1141.73 490.134 1238.58 555.049C1394.89 660.051 1427.87 601.875 1531.41 538.416C1634.96 474.958 1758.34 132.566 1890.91 267.605C1978.47 356.651 1929.21 807.773 2053.63 802.492C2178.06 797.21 2191.74 315.406 2224.17 318.974M49.5669 130.081C49.5669 130.081 403.344 -14.4574 470.655 188.718C546.114 416.521 465.609 686.243 668.698 590.974C899.857 482.304 1136.73 473.562 1237.9 542.91C1393 649.366 1427.03 593.263 1530.57 529.804C1634.12 466.345 1745.05 136.519 1883.76 275.649C1971.94 364.134 1928.38 799.327 2052.81 794.045C2177.24 788.764 2191.38 311.763 2223.81 315.331M49.3238 127.597C49.3238 127.597 398.649 -21.0277 459.792 181.236C529.176 410.794 458.783 682.052 667.872 582.527C902.451 470.853 1131.75 457.156 1237.08 531.118C1391.16 639.178 1426.2 584.816 1529.75 521.357C1633.29 457.898 1731.91 140.291 1876.43 283.543C1965.23 371.467 1927.52 790.548 2051.95 785.267C2176.38 779.986 2191.02 308.119 2223.45 311.687M49.0645 124.944C49.0645 124.944 394.105 -27.7823 449.065 173.404C512.389 404.883 451.94 677.692 667.03 573.911C904.879 459.415 1126.92 440.565 1236.4 518.977C1389.44 628.474 1425.36 576.201 1528.9 512.742C1632.45 449.283 1718.62 144.241 1869.28 291.584C1958.51 378.798 1926.7 782.099 2051.12 776.817C2175.55 771.536 2190.65 304.307 2223.08 307.875M48.806 122.298C48.806 122.298 389.395 -34.5141 438.338 165.579C495.603 398.978 445.25 673.156 666.189 565.303C907.442 447.637 1122.08 423.815 1235.72 506.841C1387.72 617.776 1424.52 567.592 1528.06 504.133C1631.61 440.674 1705.33 148.199 1862.13 299.632C1952 386.45 1925.87 773.655 2050.3 768.374C2174.73 763.093 2190.31 300.832 2222.74 304.401M48.5461 119.65C48.5461 119.65 384.516 -41.232 427.626 157.918C478.665 393.253 438.407 668.801 665.362 556.858C909.869 436.204 1117.25 407.229 1235.06 494.87C1386.02 607.242 1423.69 559.147 1527.24 495.688C1630.78 432.229 1692.04 152.154 1854.97 307.512C1945.46 393.768 1925.03 765.045 2049.46 759.763C2173.88 754.482 2189.94 297.025 2222.37 300.593M48.3034 117.162C48.3034 117.162 379.655 -47.7894 416.916 150.251C461.56 387.539 431.732 664.424 664.536 548.407C912.48 424.915 1112.57 390.455 1234.39 482.893C1384.48 596.687 1422.87 550.697 1526.41 487.238C1629.95 423.779 1678.6 156.285 1847.83 315.718C1938.78 401.429 1924.2 756.594 2048.63 751.313C2173.06 746.032 2189.6 293.543 2222.03 297.112M48.0443 114.514C48.0443 114.514 374.776 -54.5079 406.188 142.424C444.439 381.664 424.89 660.068 663.694 539.796C915.059 413.3 1107.72 373.703 1233.71 470.755C1382.91 585.805 1422.02 542.085 1525.57 478.627C1629.11 415.168 1665.31 160.24 1840.67 323.597C1932.07 408.764 1923.36 747.983 2047.79 742.702C2172.22 737.421 2189.24 289.901 2221.67 293.469M47.7855 111.862C47.7855 111.862 369.731 -61.213 395.478 134.759C427.15 375.802 418.216 655.693 662.868 531.347C917.487 401.864 1103.04 356.931 1233.05 458.78C1381.35 575.086 1421.2 533.637 1524.74 470.178C1628.29 406.719 1651.87 164.374 1833.52 331.64C1925.54 416.245 1922.53 739.535 2046.96 734.253C2171.39 728.972 2188.89 286.256 2221.31 289.824M47.5425 109.379C47.5425 109.379 364.702 -67.749 384.767 127.097C409.878 370.109 411.757 651.802 662.043 522.902C920.298 390.895 1098.53 340.147 1232.22 446.825C1379.81 564.536 1420.37 525.192 1523.92 461.733C1627.46 398.274 1638.44 168.676 1826.2 339.701C1918.69 423.927 1921.71 731.09 2046.14 725.808C2170.56 720.527 2188.53 282.614 2220.96 286.182M47.2828 106.724C47.2828 106.724 359.473 -74.6078 374.039 119.263C392.405 364.094 404.898 647.274 661.2 514.284C922.708 379.289 1093.99 323.024 1231.54 434.68C1378.24 553.648 1419.53 516.574 1523.07 453.115C1626.62 389.656 1624.83 172.822 1819.05 347.74C1911.99 431.42 1920.87 722.471 2045.29 717.19C2169.72 711.909 2188.17 278.964 2220.6 282.532M47.0248 104.082C47.0248 104.082 354.261 -81.2872 363.329 111.608C374.784 358.274 398.224 642.908 660.375 505.845C925.288 367.681 1089.48 306.246 1230.87 422.715C1376.86 542.922 1418.71 508.135 1522.25 444.676C1625.79 381.217 1610.94 177.51 1811.9 355.792C1905.16 439.274 1920.04 714.033 2044.47 708.751C2168.9 703.47 2187.82 275.329 2220.25 278.897M46.7653 101.428C46.7653 101.428 349.032 -88.1448 352.601 103.774C357.144 352.276 391.365 638.381 659.532 497.228C927.699 356.076 1084.93 289.125 1230.19 410.572C1375.45 532.019 1417.86 499.518 1521.41 436.059C1624.95 372.6 1597.8 181.277 1804.74 363.665C1898.79 446.571 1919.2 705.416 2043.63 700.134C2168.05 694.853 2187.46 271.681 2219.89 275.249" stroke="#6296FE" stroke-miterlimit="10"/>
<path d="M2291.64 515.024C2291.64 515.024 1855.53 342.023 1709.63 525.281C1563.72 708.539 1705.66 759.244 1576.2 695.194C1396.7 606.372 1320.08 792.803 1263.72 813.49C1094.67 875.702 1283.69 188.959 1192.43 121.084C1101.17 53.2093 799.032 299.686 713.51 381.02C627.989 462.355 479.757 549.058 362.923 533.045C246.088 517.033 251.233 500.765 220.184 501.123M2291.68 514.388C2291.68 514.388 1862.19 344.753 1722.6 527.983C1581.71 713.01 1709.95 752.526 1575.34 684.223C1393.01 592.303 1319.35 781.652 1258.38 805.51C1091.06 871.016 1266.93 201.028 1179.98 131.916C1092.29 62.3082 806.138 288.864 714.964 373.867C628.622 454.251 484.215 537.923 367.537 521.883C250.86 505.843 252.093 497.477 221.044 497.836M2291.89 513.723C2291.89 513.723 1869.13 347.274 1735.88 530.628C1600.04 717.576 1714.84 745.544 1574.82 673.347C1389.89 577.817 1319.09 770.417 1253.35 797.473C1087.22 865.902 1250.32 213.069 1167.37 142.774C1083.25 71.4337 813.273 278.191 716.262 366.741C629.126 446.326 488.645 526.636 371.811 510.624C254.976 494.612 252.613 494.092 221.721 494.423M2291.93 513.089C2291.93 513.089 1875.78 350.007 1748.85 533.333C1618.06 722.202 1719.15 738.98 1573.96 662.379C1386.33 563.57 1318.3 758.966 1248.01 789.495C1083.5 860.612 1233.58 225.292 1154.91 153.609C1074.5 80.3554 820.722 267.467 717.874 359.562C630.074 438.169 493.26 515.477 376.425 499.464C259.591 483.452 253.474 490.807 222.452 491.317M2292.14 512.429C2292.14 512.429 1882.78 352.837 1762.13 535.984C1636.39 726.774 1723.91 732.183 1573.44 651.509C1383.13 549.573 1318.04 747.736 1242.99 781.464C1079.7 854.869 1217.13 237.31 1142.62 164.417C1065.76 89.2787 828.199 256.897 719.485 352.386C630.892 430.194 497.847 504.167 381.013 488.155C264.178 472.143 254.15 487.4 223.286 487.882M2292.18 511.79C2292.18 511.79 1889.59 355.536 1775.08 538.532C1654.54 731.214 1728.33 725.283 1572.56 640.383C1379.38 535.197 1317.23 736.127 1237.59 773.178C1075.53 848.871 1200.31 249.073 1129.8 174.998C1056.48 97.9751 835.278 245.919 720.57 344.982C631.368 422.115 501.908 492.631 385.258 476.742C268.608 460.854 254.854 484.137 223.805 484.496M2292.39 511.13C2292.39 511.13 1896.59 358.368 1788.36 541.183C1672.9 735.938 1732.96 718.666 1572.04 629.513C1376.19 521.201 1316.92 724.595 1232.6 765.299C1071.55 843.005 1183.89 261.243 1117.53 185.958C1047.89 106.871 842.783 235.501 722.238 338.109C632.399 414.416 506.736 481.749 389.901 465.737C273.067 449.724 255.559 480.883 224.667 481.213M2292.59 510.466C2292.59 510.466 1903.61 361.345 1801.49 543.857C1691.29 740.809 1737.56 711.892 1571.36 618.666C1372.66 507.103 1316.29 713.113 1227.41 757.29C1067.51 836.829 1167.25 273.133 1105.08 196.789C1038.98 115.818 850.103 224.953 723.535 330.984C633.088 406.616 511.009 470.491 394.202 454.63C277.395 438.77 256.106 477.65 225.214 477.981M2292.64 509.831C2292.64 509.831 1910.64 364.325 1814.61 546.534C1709.65 745.53 1742.04 705.3 1570.5 607.697C1369.12 493.007 1315.47 701.509 1222.07 749.312C1063.12 830.56 1150.48 285.204 1092.34 207.831C1029.92 124.795 857.476 214.712 724.859 324.012C633.803 398.969 515.336 459.538 398.502 443.526C281.667 427.514 256.651 474.421 225.787 474.903M2292.84 509.17C2292.84 509.17 1917.82 367.277 1827.74 549.211C1728.19 750.376 1746.51 698.709 1569.83 596.853C1365.61 479.064 1314.82 689.878 1217.05 741.279C1059.06 824.236 1134.16 297.041 1080.04 218.637C1021.45 133.509 865.266 204.083 726.471 316.834C634.99 391.24 519.924 448.227 403.246 432.187C286.568 416.146 257.642 470.956 226.778 471.438M2292.89 508.53C2292.89 508.53 1924.84 370.251 1840.71 551.91C1746.61 755.395 1750.98 692.111 1568.96 585.879C1361.92 464.992 1313.97 678.117 1211.68 733.144C1054.62 817.659 1117.34 308.803 1067.4 229.342C1012.46 141.997 872.585 193.533 727.897 309.526C635.808 383.257 524.483 436.758 407.648 420.745C290.813 404.733 258.318 467.541 227.269 467.899M2293.09 507.873C2293.09 507.873 1932.05 373.36 1853.96 554.412C1765.28 760.065 1755.58 685.345 1568.42 574.86C1358.54 450.874 1313.45 666.312 1206.65 725.116C1050.5 811.036 1100.99 320.493 1054.95 240.181C1003.69 150.772 880.247 183.089 729.352 302.38C636.838 375.56 528.941 425.631 412.106 409.619C295.272 393.606 259.022 464.288 227.973 464.647M2293.14 507.237C2293.14 507.237 1939.26 376.462 1866.93 557.114C1783.7 765.088 1759.9 678.779 1567.56 563.889C1354.85 436.804 1312.58 654.402 1201.29 716.984C1045.91 804.489 1084.49 332.203 1042.31 250.888C994.885 159.388 887.595 172.693 730.623 295.103C637.528 367.76 533.187 414.221 416.38 398.361C299.573 382.5 259.699 460.877 228.678 461.387M2293.34 506.572C2293.34 506.572 1946.78 379.506 1880.22 559.76C1802.58 770.026 1764.53 672.156 1567.04 553.014C1351.34 422.858 1311.87 642.465 1196.26 708.947C1041.76 797.707 1068.16 344.036 1030.02 261.691C986.551 167.918 895.44 162.365 732.262 288.073C638.715 360.027 537.829 403.21 421.152 387.17C304.474 371.129 260.403 457.616 229.511 457.946M2293.55 505.91C2293.55 505.91 1954.3 382.554 1893.34 562.437C1821.47 774.967 1769 665.564 1566.34 542.017C1347.83 408.914 1311 630.558 1191.08 700.942C1037.32 791.135 1051.81 355.72 1017.56 272.525C977.903 176.508 903.128 152.068 733.716 280.922C639.744 352.325 542.416 391.898 425.609 376.038C308.802 360.177 261.106 454.359 230.215 454.689M2293.59 505.276C2293.59 505.276 1961.67 385.63 1906.47 565.114C1840.38 780.06 1773.48 658.973 1565.66 531.173C1344.33 394.971 1310.29 618.623 1185.89 692.936C1032.86 784.411 1035.49 367.556 1004.95 283.387C969.284 185.25 910.661 141.799 735.014 273.799C640.646 344.803 546.718 380.794 429.883 364.782C313.049 348.77 261.811 451.101 230.762 451.46M2293.8 504.613C2293.8 504.613 1969.22 388.829 1919.6 567.789C1859.3 785.152 1777.79 652.408 1564.96 520.176C1340.82 381.027 1309.23 606.592 1180.71 684.93C1028.42 777.838 1019.3 379.212 992.5 294.22C960.949 193.783 918.376 131.652 736.467 266.648C641.518 337.128 551.147 369.51 434.312 353.498C317.478 337.485 262.486 447.691 231.594 448.022M2293.84 503.976C2293.84 503.976 1976.74 391.874 1932.72 570.463C1878.5 790.034 1782.29 645.966 1564.13 509.356C1337 367.137 1308.18 594.559 1175.37 676.95C1023.77 770.988 1003.11 390.866 980.02 304.9C952.459 202.343 926.221 121.325 738.051 259.315C642.678 329.244 555.734 358.196 439.057 342.155C322.379 326.115 263.32 444.251 232.428 444.582M2294.05 503.316C2294.05 503.316 1984.6 395.019 1945.82 572.99C1897.54 794.948 1786.48 639.583 1563.39 498.21C1333.36 353.374 1307.26 582.35 1170.32 668.765C1019.28 764.114 986.942 402.675 967.411 315.763C943.997 211.058 933.781 111.208 739.35 252.193C643.58 321.723 560.165 346.913 443.331 330.901C326.496 314.889 263.868 441.023 233.004 441.505M2294.25 502.654C2294.25 502.654 1992.44 398.012 1959.11 575.639C1917.08 799.929 1791.11 632.963 1562.88 487.337C1329.85 339.431 1306.33 570.14 1165.29 660.732C1014.82 757.39 970.933 414.456 955.115 326.569C936.004 219.688 941.811 101.007 740.96 245.014C644.766 313.993 564.779 335.754 447.945 319.741C331.11 303.729 264.571 437.766 233.679 438.096M2294.3 502.02C2294.3 502.02 2000.15 401.183 1972.08 578.343C1936.31 804.967 1795.43 626.4 1562.04 476.521C1326.32 325.336 1305.22 557.806 1159.95 652.755C1010.04 750.722 954.612 426.292 942.506 337.431C927.542 228.402 949.795 91.4405 742.259 237.891C645.852 306.595 569.053 324.498 452.219 308.486C335.384 292.473 265.248 434.356 234.384 434.839M2294.5 501.353C2294.5 501.353 2007.98 404.17 1985.36 580.987C1955.85 809.942 1800.21 619.747 1561.5 465.491C1322.78 311.236 1304.14 545.618 1154.92 644.716C1005.7 743.814 938.603 438.067 930.052 348.26C919.392 237.054 957.298 81.0143 743.74 230.887C646.725 298.916 573.667 313.333 456.86 297.472C340.053 281.612 265.951 431.094 235.06 431.424" stroke="#00C186" stroke-miterlimit="10"/>
</g>
</svg>
