<svg width="32" height="32" viewBox="0 0 32 32" fill="none" xmlns="http://www.w3.org/2000/svg">
<path d="M16.4995 11.5543C14.9471 12.2136 11.8445 13.5782 7.1916 15.6479C6.43602 15.9547 6.04023 16.2548 6.0042 16.5483C5.94332 17.0442 6.55142 17.2394 7.37955 17.5053C7.49233 17.5415 7.60919 17.5791 7.729 17.6188C8.54393 17.8893 9.64013 18.2057 10.21 18.2182C10.7269 18.2296 11.3039 18.0121 11.9409 17.5655C16.2882 14.5692 18.5323 13.0548 18.6732 13.0221C18.7726 12.9991 18.9103 12.9702 19.0037 13.0548C19.097 13.1395 19.0878 13.2999 19.0779 13.343C19.0177 13.6052 16.6298 15.8719 15.3942 17.0447C15.0091 17.4103 14.7359 17.6696 14.6801 17.7288C14.5549 17.8615 14.4274 17.9871 14.3048 18.1077C13.5478 18.8529 12.98 19.4117 14.3363 20.3242C14.9881 20.7628 15.5097 21.1254 16.03 21.4872C16.5982 21.8823 17.1649 22.2764 17.8982 22.7671C18.0849 22.8921 18.2633 23.0219 18.437 23.1484C19.0984 23.6298 19.6926 24.0623 20.4266 23.9934C20.8531 23.9533 21.2936 23.5438 21.5173 22.3226C22.0461 19.4366 23.0854 13.1833 23.3256 10.6065C23.3467 10.3808 23.3202 10.0918 23.2989 9.96496C23.2777 9.83816 23.2333 9.65742 23.0718 9.52362C22.8805 9.36522 22.5853 9.33182 22.4533 9.33409C21.853 9.34496 20.9319 9.67196 16.4995 11.5543Z" fill="#343434"/>
<path fill-rule="evenodd" clip-rule="evenodd" d="M32 16C32 24.8366 24.8366 32 16 32C7.16344 32 0 24.8366 0 16C0 7.16344 7.16344 0 16 0C24.8366 0 32 7.16344 32 16ZM31 16C31 24.2843 24.2843 31 16 31C7.71573 31 1 24.2843 1 16C1 7.71573 7.71573 1 16 1C24.2843 1 31 7.71573 31 16Z" fill="#343434"/>
</svg>
