<svg width="1478" height="2036" viewBox="0 0 1478 2036" fill="none" xmlns="http://www.w3.org/2000/svg">
<g clip-path="url(#clip0_7486_1850)">
<g opacity="0.2">
<path d="M542.526 -510.99C542.526 -510.99 299.844 -159.167 463.04 48.1058C626.235 255.379 943.162 174.001 836.268 295.153C687.931 463.242 611.797 784.899 619.274 851.124C641.784 1049.64 565.785 1044.81 465.266 1123.98C364.747 1203.15 -169.696 1268.59 -102.924 1382.75C-36.1511 1496.92 590.761 1614.72 540.739 1735.66C490.718 1856.61 -36.9923 1674.67 -45.099 1707.99M540.142 -512.133C540.142 -512.133 294.363 -165.706 459.256 34.7438C625.763 237.14 941.283 165.661 828.147 291.268C675.661 461.483 597.865 773.927 607.58 846.116C634.183 1043.85 557.665 1040.92 457.145 1120.1C356.626 1199.27 -161.517 1257.23 -92.3267 1378.62C-26.8842 1493.52 582.64 1610.83 532.619 1731.78C482.597 1852.73 -40.333 1673.07 -48.4398 1706.39M537.598 -513.349C537.598 -513.349 288.724 -172.32 455.473 21.3832C625.527 218.82 939.086 157.171 820.027 287.383C662.755 459.42 583.857 763.115 595.885 841.11C626.188 1038.07 549.545 1037.04 449.025 1116.21C348.506 1195.38 -153.177 1245.95 -81.7291 1374.49C-17.5405 1489.96 574.52 1606.95 524.499 1727.89C474.477 1848.84 -43.8326 1671.4 -51.9394 1704.72M535.041 -514.572C535.041 -514.572 283.07 -178.939 451.517 7.94091C625.118 200.418 936.876 148.675 811.734 283.417C650.153 457.505 569.752 752.062 584.018 836.021C617.549 1032.37 541.252 1033.07 440.732 1112.25C340.213 1191.42 -144.934 1234.42 -71.1453 1370.35C-7.975 1486.31 566.227 1602.98 516.206 1723.93C466.184 1844.88 -47.3459 1669.72 -55.4527 1703.04M532.653 -515.714C532.653 -515.714 277.822 -185.561 447.731 -5.42122C624.879 182.096 934.835 140.259 803.611 279.531C637.721 455.669 555.582 741.172 572.397 830.853C608.837 1026.44 533.129 1029.19 432.609 1108.36C332.09 1187.53 -136.681 1222.9 -60.4746 1366.05C1.6012 1482.67 558.104 1599.09 508.083 1720.04C458.061 1840.99 -50.8486 1668.04 -58.9553 1701.36M530.103 -516.934C530.103 -516.934 272.176 -192.176 443.942 -18.784C624.796 163.85 932.715 132.001 795.485 275.645C625.285 453.833 541.485 730.122 560.696 825.844C599.969 1020.83 525.002 1025.3 424.483 1104.47C323.964 1183.65 -128.271 1211.46 -49.8835 1361.92C11.1739 1479.03 549.978 1595.21 499.956 1716.16C449.935 1837.1 -54.1953 1666.44 -62.302 1699.76M527.554 -518.154C527.554 -518.154 266.842 -199.036 439.994 -32.224C624.555 145.526 930.513 123.508 787.2 271.681C612.692 451.919 526.994 719.079 548.837 820.758C590.625 1014.99 516.718 1021.34 416.198 1100.51C315.679 1179.68 -120.02 1199.94 -39.4505 1357.71C20.5886 1475.31 541.693 1591.24 491.672 1712.19C441.65 1833.14 -57.8595 1664.69 -65.9663 1698.01M525.005 -519.373C525.005 -519.373 261.592 -205.658 436.047 -45.663C624.39 127.044 928.47 115.091 778.916 267.718C600.099 450.007 512.427 708.195 536.978 815.673C581.045 1009.23 508.433 1017.37 407.914 1096.55C307.395 1175.72 -111.609 1188.5 -28.8581 1353.57C30.2389 1471.51 533.409 1587.28 483.387 1708.23C433.366 1829.18 -61.3642 1663.01 -69.4709 1696.33M522.615 -520.515C522.615 -520.515 256.417 -212.439 432.417 -58.9482C624.542 108.716 926.745 106.828 770.949 263.909C587.906 448.483 498.253 697.306 525.436 810.742C571.707 1003.79 500.466 1013.56 399.947 1092.74C299.428 1171.91 -103.123 1176.9 -18.2669 1349.44C39.8879 1467.7 525.283 1583.4 475.261 1704.34C425.239 1825.29 -64.8702 1661.34 -72.9769 1694.66M520.064 -521.736C520.064 -521.736 251.318 -219.382 428.468 -72.3892C624.452 90.0732 924.465 98.4926 762.663 259.945C575.47 446.645 483.685 686.421 513.576 805.655C562.049 998.187 492.18 1009.6 391.661 1088.77C291.142 1167.95 -94.6381 1165.29 -7.6761 1345.3C49.6197 1464.14 517.156 1579.51 467.134 1700.46C417.113 1821.4 -68.2171 1659.73 -76.3239 1693.05M517.515 -522.955C517.515 -522.955 246.143 -226.164 424.52 -85.8286C624.523 71.5079 922.422 90.0756 754.378 255.982C562.877 444.732 468.958 675.461 501.717 800.569C552.074 992.437 483.895 1005.64 383.376 1084.81C282.857 1163.98 -85.9159 1153.61 2.91599 1341.17C59.429 1460.41 509.031 1575.62 459.009 1696.57C408.987 1817.52 -71.7222 1658.06 -79.829 1691.38M515.126 -524.098C515.126 -524.098 241.281 -233.189 420.967 -99.2744C624.905 52.7006 920.698 81.8116 746.253 252.095C550.526 443.132 454.391 664.577 490.253 795.477C542.578 986.915 475.77 1001.75 375.251 1080.92C274.732 1160.1 -77.4292 1142 13.4251 1336.8C69.1553 1456.45 500.587 1571.58 450.565 1692.53C400.543 1813.48 -75.2271 1656.38 -83.3339 1689.7M512.574 -525.319C512.574 -525.319 236.181 -240.132 417.017 -112.715C625.049 33.9744 918.812 73.4694 737.965 248.131C538.248 441.37 439.585 653.775 478.391 790.39C532.524 981.323 467.483 997.785 366.964 1076.96C266.445 1156.13 -68.7095 1130.32 24.0147 1332.66C78.879 1452.48 492.459 1567.69 442.437 1688.64C392.415 1809.59 -78.894 1654.63 -87.0007 1687.95M510.03 -526.536C510.03 -526.536 231.164 -247.23 413.074 -126.151C625.201 15.253 916.698 65.2149 729.686 244.171C525.584 439.619 424.628 642.902 466.537 785.308C522.478 975.735 459.203 993.826 358.684 1073C258.165 1152.17 -59.9822 1118.63 34.6119 1328.53C88.8528 1448.84 484.339 1563.81 434.317 1684.76C384.295 1805.71 -82.2346 1653.03 -90.3413 1686.35M507.483 -527.755C507.483 -527.755 226.221 -254.49 409.288 -139.514C625.585 -3.55461 914.816 56.8744 721.563 240.284C513.311 437.859 409.827 632.101 454.84 780.299C512.589 970.22 451.08 989.939 350.561 1069.11C250.042 1148.29 -51.2577 1106.95 45.0471 1324.32C98.5051 1445.03 476.056 1559.85 426.035 1680.79C376.013 1801.74 -85.8966 1651.28 -94.0033 1684.6M505.089 -528.899C505.089 -528.899 221.43 -261.674 405.495 -152.878C626.039 -22.5221 912.852 48.6924 713.433 236.397C501.115 436.334 394.785 621.383 443.135 775.289C502.616 964.864 442.95 986.052 342.431 1065.22C241.912 1144.4 -42.3045 1095.18 55.7941 1320.26C108.546 1441.22 467.926 1555.96 417.905 1676.91C367.883 1797.85 -89.2466 1649.68 -97.3534 1683M502.54 -530.119C502.54 -530.119 216.484 -268.935 401.547 -166.318C626.338 -41.5663 910.968 40.3507 705.148 232.433C488.604 434.656 379.822 610.505 431.276 770.203C492.329 959.355 434.665 982.088 334.146 1061.26C233.627 1140.43 -33.5826 1083.49 66.2265 1316.04C118.271 1437.26 459.641 1552 409.62 1672.94C359.598 1793.89 -92.7521 1648 -100.859 1681.32M499.991 -531.337C499.991 -531.337 211.615 -276.353 397.759 -179.68C626.713 -60.7674 909.008 32.1708 697.023 228.547C476.329 432.897 364.784 599.789 419.576 765.195C482.202 953.925 426.54 978.202 326.021 1057.38C225.502 1136.55 -24.6246 1071.72 76.819 1311.91C128.081 1433.54 451.516 1548.11 401.495 1669.06C351.473 1790.01 -96.2568 1646.32 -104.364 1679.64M497.602 -532.481C497.602 -532.481 206.906 -283.697 393.972 -193.043C627.249 -79.8939 907.451 24.3773 688.898 224.66C464.381 431.683 349.67 589.231 407.954 760.026C472.235 948.57 418.416 974.315 317.897 1053.49C217.377 1132.66 -15.5067 1060.03 87.4882 1307.62C138.203 1429.57 443.392 1544.22 393.37 1665.17C343.348 1786.12 -99.7609 1644.65 -107.868 1677.97M495.049 -533.702C495.049 -533.702 201.95 -291.354 390.021 -206.484C627.537 -99.3339 905.405 15.9585 680.61 220.696C451.943 429.845 334.233 578.519 396.091 754.939C461.945 943.06 410.127 970.35 309.608 1049.52C209.089 1128.7 -6.47639 1048.1 98.0767 1303.48C148.085 1425.68 435.103 1540.26 385.082 1661.21C335.06 1782.15 -103.27 1642.97 -111.376 1676.29M492.506 -534.917C492.506 -534.917 197.162 -298.929 386.238 -219.843C628.07 -118.851 903.45 7.78126 672.49 216.813C439.438 428.172 319.124 567.965 384.397 749.934C451.747 937.791 402.008 966.468 301.489 1045.64C200.969 1124.81 3.19359 1036.09 108.674 1299.35C158.371 1421.79 426.984 1536.38 376.962 1657.32C326.94 1778.27 -106.769 1641.29 -114.876 1674.61M489.952 -536.138C489.952 -536.138 192.205 -306.584 382.286 -233.283C628.434 -138.449 901.403 -0.636141 664.201 212.849C426.999 426.335 303.687 557.254 372.533 744.848C441.38 932.443 393.719 962.504 293.2 1041.68C192.68 1120.85 11.6759 1024.48 119.103 1295.14C167.94 1418.15 418.695 1532.41 368.673 1653.36C318.651 1774.31 -110.278 1639.62 -118.385 1672.94" stroke="url(#paint0_linear_7486_1850)" stroke-miterlimit="10"/>
<path d="M-114.342 1768.88C-114.342 1768.88 220.455 1433.65 106.557 1224.99C-7.34119 1016.32 -111.061 1127.67 0.21726 1033.24C154.521 902.306 10.2094 756.629 13.1504 696.078C21.8205 514.39 590.333 964.555 690.066 907.079C789.799 849.604 678.549 470.738 636.222 358.868C593.895 246.999 571.375 74.8194 632.649 -27.131C693.923 -129.081 707.126 -117.799 719.087 -146.739M-113.764 1769.18C-113.764 1769.18 215.262 1438.73 98.8885 1235.93C-18.6557 1031.21 -106.466 1134.33 10.8358 1036.83C169.165 904.512 20.945 760.414 22.7413 694.319C27.6385 512.921 585.666 944.175 684.85 891.195C784.791 837.727 685.874 481.661 642.347 363.08C601.236 250.83 580.041 83.41 641.278 -18.3836C702.516 -120.177 709.865 -115.685 721.826 -144.625M-113.221 1769.63C-113.221 1769.63 210.15 1444.16 91.149 1247.19C-30.1943 1046.39 -101.861 1141.66 21.2302 1040.7C183.971 907.416 31.5737 764.669 32.2612 692.874C33.9527 511.4 580.964 923.953 679.672 875.153C779.82 825.695 693.046 492.549 648.51 367.135C608.461 254.469 588.86 92.036 650.134 -9.9144C711.408 -111.865 712.83 -113.849 724.755 -142.632M-112.646 1769.93C-112.646 1769.93 204.955 1449.24 83.4785 1258.14C-41.664 1061.25 -97.421 1148.29 31.8466 1044.29C198.729 909.814 42.6134 768.524 41.8501 691.115C40.381 510.07 576.141 903.537 674.454 859.268C774.928 814.01 700.143 503.75 654.597 371.503C615.728 258.612 597.488 100.783 658.761 -1.16768C720.035 -103.118 715.567 -111.735 727.375 -140.71M-112.109 1770.38C-112.109 1770.38 199.532 1454.59 75.7332 1269.4C-53.2085 1076.42 -92.9388 1155.43 42.2352 1048.16C213.107 912.453 53.2361 772.776 51.364 689.667C47.2656 508.844 571.397 883.469 669.197 843.538C770.032 802.323 707.084 514.914 660.682 375.869C622.875 262.562 606.265 109.563 667.539 7.61239C728.813 -94.338 718.49 -109.745 730.263 -138.563M-111.526 1770.68C-111.526 1770.68 194.307 1459.83 68.2229 1280.38C-64.554 1091.48 -88.2216 1162.29 53.0119 1051.79C228.061 914.732 64.436 776.669 61.2661 687.98C54.5384 507.379 567.041 863.161 664.365 827.412C765.561 790.241 714.567 525.875 667.19 379.84C630.256 266.238 615.467 117.947 676.552 16.1185C737.637 -85.7102 721.27 -107.785 733.232 -136.725M-110.989 1771.14C-110.989 1771.14 188.884 1465.19 60.4776 1291.64C-76.2515 1106.61 -83.8565 1169.23 63.4005 1055.66C242.439 917.372 75.365 780.993 70.6271 686.499C61.6122 506.032 562.143 843.059 658.955 811.648C760.629 778.712 721.355 537.005 672.968 384.137C637.061 270.276 623.75 126.78 685.023 24.8297C746.297 -77.1207 724.041 -105.829 735.966 -134.612M-110.449 1771.59C-110.449 1771.59 183.311 1470.51 52.7719 1302.75C-88.0985 1121.72 -79.3347 1176.21 73.8287 1059.38C257.045 919.736 86.3696 785.005 80.1808 684.897C68.9958 504.757 557.592 822.872 653.738 795.763C755.773 766.871 728.336 548.015 679.128 388.193C644.095 274.037 632.603 135.249 693.724 33.2637C754.845 -68.7218 726.851 -104.028 738.776 -132.811M-109.873 1771.89C-109.873 1771.89 177.738 1475.83 45.066 1313.85C-99.7926 1136.85 -74.9302 1182.99 84.4458 1062.97C271.651 922.096 97.5631 788.892 89.7702 683.135C76.6043 503.201 552.923 802.489 648.44 779.527C750.953 754.87 735.01 558.951 685.135 392.21C650.975 277.759 641.15 143.645 702.424 41.6947C763.698 -60.2557 729.66 -102.23 741.433 -131.049M-109.334 1772.34C-109.334 1772.34 172.128 1481.31 37.359 1324.95C-111.677 1152.12 -70.5268 1189.78 94.8726 1066.68C286.103 924.423 108.719 792.939 99.2866 681.689C84.1397 501.96 548.298 782.614 643.186 763.798C746.141 743.534 741.882 570.43 691.222 396.577C657.746 281.954 649.93 152.427 711.168 50.6332C772.406 -51.1604 732.514 -99.9248 744.286 -128.743M-108.752 1772.64C-108.752 1772.64 166.56 1486.63 29.6944 1335.9C-123.672 1167.19 -66.117 1196.57 105.495 1070.27C300.75 926.631 120.071 796.865 109.034 679.966C92.0595 500.478 543.941 762.306 638.163 747.793C741.749 731.8 748.868 581.442 697.504 400.826C664.902 285.908 658.87 161.246 720.143 59.2955C781.417 -42.6549 735.446 -97.9307 747.407 -126.871M-108.216 1773.09C-108.216 1773.09 160.794 1492.08 22.1015 1347.19C-135.442 1182.64 -61.5996 1203.55 116.036 1074.18C315.315 929.149 131.342 801.102 118.548 678.519C99.8981 499.307 539.466 742.465 632.942 731.907C737.006 720.149 755.62 592.728 703.624 405.035C671.706 289.944 667.53 169.834 728.803 67.8841C790.077 -34.0663 738.216 -95.9752 750.177 -124.915M-107.638 1773.39C-107.638 1773.39 155.034 1497.52 14.4338 1358.14C-147.44 1197.71 -57.1569 1210.18 126.655 1077.77C329.959 931.357 142.843 805.065 128.292 676.797C107.851 497.668 535.034 722.471 627.916 715.902C732.422 708.536 762.449 603.704 709.939 409.127C678.741 293.706 676.538 178.34 737.659 76.3546C798.779 -25.6309 741.144 -93.9809 752.953 -122.956M-107.097 1773.84C-107.097 1773.84 149.201 1503.28 6.69292 1369.4C-159.548 1213.25 -52.7873 1217.12 137.048 1081.64C344.413 933.684 154.308 809.181 137.811 675.351C115.848 496.533 530.411 702.596 622.664 700.174C727.729 697.392 769.017 615.113 715.875 413.46C685.514 297.901 685.014 187.052 746.252 85.258C807.49 -16.5356 743.919 -92.0242 755.844 -120.807M-106.557 1774.3C-106.557 1774.3 143.367 1509.04 -1.01336 1380.51C-171.656 1228.78 -48.3832 1223.91 147.629 1085.39C358.866 936.011 165.807 813.141 147.364 673.748C123.762 495.049 525.94 682.756 617.446 684.288C723.107 685.933 775.619 626.364 721.998 417.671C692.322 301.939 693.795 195.833 754.916 93.8474C816.036 -8.13809 746.692 -90.0678 758.618 -118.851M-105.984 1774.59C-105.984 1774.59 137.566 1514.63 -8.72204 1391.61C-183.92 1244.29 -43.9815 1230.7 158.054 1089.11C373.316 938.338 177.268 817.257 156.915 672.145C131.827 493.6 521.314 662.881 612.262 668.245C718.329 674.44 782.255 637.46 728.155 421.725C699.01 305.785 702.492 204.266 763.766 102.316C825.04 0.365159 749.463 -88.1112 761.425 -117.051M-105.442 1775.05C-105.442 1775.05 131.58 1520.36 -16.4269 1402.71C-196.181 1259.79 -39.54 1237.33 168.636 1092.85C387.77 940.665 188.958 821.094 166.469 670.541C139.742 492.115 516.808 643.197 607.046 652.359C713.636 663.295 788.705 648.676 734.28 425.935C705.855 309.666 711.31 212.89 772.584 110.94C833.858 8.9895 752.391 -86.12 764.316 -114.903M-104.865 1775.35C-104.865 1775.35 125.748 1526.11 -24.1314 1413.82C-208.359 1275.64 -35.2871 1244.08 179.102 1096.41C402.296 942.68 200.648 824.934 176.06 668.783C148.001 490.546 512.303 623.515 601.983 636.51C708.98 651.995 795.273 660.086 740.523 430.339C712.782 313.897 720.093 221.673 781.331 119.879C842.569 18.0859 755.283 -83.9702 767.208 -112.753M-104.324 1775.8C-104.324 1775.8 119.689 1532.15 -31.6834 1424.95C-220.503 1291.34 -30.9631 1250.52 189.836 1100.2C416.632 944.816 212.454 828.965 185.731 667.373C156.222 489.133 507.644 603.798 596.803 620.469C704.17 640.66 801.76 671.148 746.683 434.395C719.474 317.744 728.911 230.299 790.185 128.349C851.458 26.3987 758.094 -82.1688 769.866 -110.987M-103.787 1776.25C-103.787 1776.25 113.779 1538.22 -39.4291 1436.21C-232.912 1307.47 -26.5983 1257.46 200.225 1104.07C431.081 947.142 224.256 832.993 195.245 665.925C164.286 487.682 502.945 584.235 591.546 604.738C699.247 629.791 808.133 682.676 752.767 438.761C726.242 321.937 737.535 239.044 798.809 137.093C860.083 35.1431 760.864 -80.2143 772.789 -108.998M-103.211 1776.55C-103.211 1776.55 107.757 1544.1 -47.0987 1447.16C-245.245 1323.29 -22.1576 1264.09 210.689 1107.62C445.687 949.505 236.251 836.903 204.835 664.166C172.426 485.921 498.321 564.361 586.365 588.697C694.436 618.456 813.935 693.911 758.927 442.816C732.745 325.906 746.389 247.513 807.662 145.563C868.936 43.6125 763.791 -78.2213 775.563 -107.04M-102.668 1777.01C-102.668 1777.01 101.854 1550.17 -54.8376 1458.42C-257.647 1339.42 -17.822 1271.19 221.237 1111.53C460.296 951.868 248.096 840.777 214.355 662.721C180.614 484.665 493.629 544.801 581.151 572.813C689.556 607.434 820.729 705.042 764.901 446.993C739.592 329.788 755.02 256.261 816.14 154.275C877.261 52.2897 766.567 -76.2637 778.493 -105.047" stroke="url(#paint1_linear_7486_1850)" stroke-miterlimit="10"/>
</g>
</g>
<defs>
<linearGradient id="paint0_linear_7486_1850" x1="960.283" y1="-286.345" x2="159" y2="1278" gradientUnits="userSpaceOnUse">
<stop stop-color="#EEFEFF"/>
<stop offset="1" stop-color="#6296FE"/>
</linearGradient>
<linearGradient id="paint1_linear_7486_1850" x1="756.5" y1="33.5" x2="96.0002" y2="996" gradientUnits="userSpaceOnUse">
<stop stop-color="#EEFEFF" stop-opacity="0"/>
<stop offset="1" stop-color="#00C186"/>
</linearGradient>
<clipPath id="clip0_7486_1850">
<rect width="1478" height="2036" fill="white"/>
</clipPath>
</defs>
</svg>
