<svg width="155" height="182" viewBox="0 0 155 182" fill="none" xmlns="http://www.w3.org/2000/svg">
<path d="M26.5224 155.252C-8.84079 119.832 -8.84079 62.1683 26.5224 26.7476L61.0496 61.331C44.7309 77.6763 14.347 117.211 26.7041 155.07" fill="url(#paint0_linear)"/>
<path d="M26.7041 26.5656C62.0672 -8.85519 119.637 -8.85519 155 26.5656L120.473 61.149C104.154 44.8038 64.684 14.3703 26.8858 26.7476" fill="url(#paint1_linear)"/>
<path d="M155 155.434C119.637 190.855 62.0672 190.855 26.7041 155.434L61.2313 120.851C77.55 137.196 117.02 167.63 154.818 155.252" fill="url(#paint2_linear)"/>
<defs>
<linearGradient id="paint0_linear" x1="-42.9484" y1="-43.3401" x2="167.193" y2="143.747" gradientUnits="userSpaceOnUse">
<stop offset="0.322917" stop-color="#00FF5A"/>
<stop offset="1" stop-color="#259B22"/>
</linearGradient>
<linearGradient id="paint1_linear" x1="-42.9484" y1="-43.3401" x2="167.193" y2="143.747" gradientUnits="userSpaceOnUse">
<stop offset="0.322917" stop-color="#00FF5A"/>
<stop offset="1" stop-color="#259B22"/>
</linearGradient>
<linearGradient id="paint2_linear" x1="-42.9484" y1="-43.3401" x2="167.193" y2="143.747" gradientUnits="userSpaceOnUse">
<stop offset="0.322917" stop-color="#00FF5A"/>
<stop offset="1" stop-color="#259B22"/>
</linearGradient>
</defs>
</svg>
