<svg width="820" height="167" viewBox="0 0 820 167" fill="none" xmlns="http://www.w3.org/2000/svg">
<path d="M126.88 136.317V0H106.724V136.317H126.88Z" fill="white"/>
<path d="M178.684 25.2112C183.943 19.9344 183.943 12.117 178.879 7.13336C173.815 1.85659 165.636 1.85659 160.572 7.13336C155.509 12.2147 155.509 20.0321 160.572 25.2112C165.831 30.2925 173.621 30.2925 178.684 25.2112ZM179.853 136.317V42.8981H159.696V136.219H179.853V136.317Z" fill="white"/>
<path d="M314.621 40.5547C301.767 40.5547 292.224 45.4406 285.992 55.3101C280.15 45.4406 271.386 40.5547 259.409 40.5547C247.626 40.5547 238.668 45.0497 232.63 54.1375V42.8999H212.474V136.221H232.63V84.0392C232.63 67.818 241.199 59.4143 253.371 59.4143C264.57 59.4143 270.899 66.8408 270.899 79.7396V136.318H291.056V84.0392C291.056 67.6226 298.943 59.4143 311.407 59.4143C322.605 59.4143 329.519 66.8408 329.519 79.7396V136.318H349.676V78.4693C349.968 55.3101 335.751 40.5547 314.621 40.5547Z" fill="white"/>
<path d="M454.939 56.1896C447.246 45.7338 436.437 40.457 422.22 40.457C409.367 40.457 398.461 45.1475 389.307 54.6261C380.154 64.1048 375.675 75.7332 375.675 89.5114C375.675 103.094 380.154 114.918 389.307 124.397C398.461 133.875 409.269 138.566 422.22 138.566C436.437 138.566 447.246 133.387 454.939 122.736V136.221H475.193V42.9H455.036V56.1896H454.939ZM404.303 111.107C398.655 105.342 395.929 98.2083 395.929 89.6092C395.929 81.01 398.753 73.8766 404.303 68.3067C409.951 62.5413 417.059 59.7075 425.434 59.7075C433.808 59.7075 440.916 62.5413 446.564 68.3067C452.212 73.8766 454.939 81.01 454.939 89.6092C454.939 98.2083 452.115 105.342 446.564 111.107C440.916 116.677 433.808 119.511 425.434 119.511C417.059 119.511 409.951 116.677 404.303 111.107Z" fill="white"/>
<path d="M560.202 42.8993H537.027V16.8086L516.87 22.7694V42.8993H499.635V62.3452H516.87V107.198C516.87 131.627 529.432 140.031 560.202 136.318V118.24C544.914 119.022 537.027 119.217 537.027 107.198V62.3452H560.202V42.8993Z" fill="white"/>
<path d="M674.326 98.2083C674.91 94.6904 675.105 91.8566 675.105 89.8045C675.105 76.2217 670.626 64.3979 661.862 54.9192C653.098 45.4406 641.9 40.5547 628.17 40.5547C613.759 40.5547 601.781 45.2452 592.628 54.7238C583.475 64.1047 578.801 75.6354 578.801 89.6091C578.801 103.778 583.475 115.602 592.823 124.885C602.171 134.071 614.538 138.664 629.631 138.664C647.743 138.664 661.375 131.921 670.529 118.338L653.877 108.664C648.424 116.286 640.439 120.195 629.728 120.195C614.245 120.195 602.852 112.377 599.834 98.2083H674.326ZM599.736 81.7917C602.56 67.6226 612.98 58.8279 627.975 58.8279C641.218 58.8279 651.93 66.6454 654.754 81.7917H599.736Z" fill="white"/>
<path d="M745.702 138.761C763.814 138.761 779.687 129.38 787.769 114.527L770.338 104.56C765.859 113.355 756.511 118.924 745.508 118.924C737.328 118.924 730.414 116.091 724.767 110.521C719.314 104.951 716.587 98.0129 716.587 89.6091C716.587 81.2054 719.411 74.2674 724.767 68.6975C730.414 63.1275 737.328 60.2937 745.508 60.2937C756.706 60.2937 765.664 65.6682 769.949 74.6583L787.379 64.5933C779.881 49.8379 763.814 40.5547 745.702 40.5547C731.68 40.5547 719.898 45.2452 710.355 54.7238C701.007 64.1047 696.333 75.6354 696.333 89.6091C696.333 103.387 701.007 115.016 710.355 124.494C719.898 134.071 731.68 138.761 745.702 138.761Z" fill="white"/>
<path d="M13.8273 122.734C-4.57666 104.07 -4.57666 73.7772 13.8273 55.113L31.8418 73.2886C23.3701 81.8878 7.49792 102.702 13.8273 122.734Z" fill="#00FFC2"/>
<path d="M13.9247 55.0137C32.3287 36.3496 62.4178 36.3496 80.8218 55.0137L62.8073 73.1893C54.3356 64.5901 33.692 48.5643 13.9247 55.0137Z" fill="#00FFC2"/>
<path d="M80.8217 122.832C62.4178 141.496 32.3287 141.496 13.9247 122.832L31.9392 104.656C40.4109 113.255 61.0545 129.281 80.8217 122.832Z" fill="#00FFC2"/>
<path d="M629.826 120.292C614.343 120.292 602.95 112.475 599.931 98.3059H654.656V81.8893H599.737C602.56 67.7202 612.98 58.9256 627.975 58.9256L628.17 40.6523C613.759 40.6523 601.781 45.3428 592.628 54.8214C583.475 64.2024 578.801 75.7331 578.801 89.7068C578.801 103.876 583.475 115.7 592.823 124.983C602.171 134.168 614.538 138.761 629.631 138.761C647.743 138.761 661.375 132.019 670.529 118.436L653.877 108.762C648.522 116.286 640.44 120.292 629.826 120.292Z" fill="white"/>
</svg>
