<svg width="60" height="60" viewBox="0 0 60 60" fill="none" xmlns="http://www.w3.org/2000/svg">
<path d="M30 43.6054C24.3774 43.6054 18.3262 41.4065 12.5005 37.2462C8.14542 34.1364 5.45742 31.0553 5.3451 30.9254C4.88497 30.3942 4.88497 29.6055 5.3451 29.0741C5.45742 28.9445 8.1453 25.8632 12.5005 22.7533C18.3263 18.5934 24.3775 16.3943 30 16.3943C35.6226 16.3943 41.6739 18.5933 47.4995 22.7533C51.8546 25.8632 54.5426 28.9444 54.6549 29.0741C55.115 29.6054 55.115 30.394 54.6549 30.9254C54.5426 31.0551 51.8547 34.1364 47.4995 37.2462C41.6739 41.4064 35.6227 43.6054 30 43.6054ZM7.85 30C8.93701 31.1083 11.4909 33.0574 14.1996 34.9849C17.9131 37.6273 23.6687 41.2752 30 41.2752C36.3313 41.2752 42.087 37.6273 45.8004 34.9849C48.5087 33.0577 51.0628 31.1085 52.15 30C51.0631 28.8916 48.5091 26.9425 45.8004 25.015C42.087 22.3725 36.3313 18.7252 30 18.7252C23.6687 18.7252 17.9131 22.3725 14.1996 25.015C11.4913 26.9422 8.93723 28.8912 7.85 30Z" fill="#1CE17E"/>
<path d="M29.9995 38.7657C25.1658 38.7657 21.2333 34.8331 21.2333 29.9995C21.2333 25.1659 25.1658 21.2334 29.9995 21.2334C32.1253 21.2334 34.176 22.0041 35.7736 23.4038C36.361 23.9183 36.4201 24.8115 35.9055 25.3989C35.391 25.9863 34.4976 26.0453 33.9103 25.5308C32.8285 24.5831 31.4395 24.0612 29.9994 24.0612C26.7249 24.0612 24.061 26.7252 24.061 29.9995C24.061 33.2739 26.7249 35.9379 29.9994 35.9379C33.274 35.9379 35.9378 33.2739 35.9378 29.9995C35.9378 29.2187 36.5708 28.5856 37.3517 28.5856C38.1325 28.5856 38.7656 29.2187 38.7656 29.9995C38.7658 34.8331 34.8332 38.7657 29.9995 38.7657Z" fill="#1CE17E"/>
<path d="M29.999 32.828C28.4398 32.828 27.1712 31.5595 27.1712 30.0002C27.1712 28.441 28.4398 27.1724 29.999 27.1724C31.5584 27.1724 32.8268 28.441 32.8268 30.0002C32.8268 31.5595 31.5584 32.828 29.999 32.828Z" fill="#1CE17E"/>
</svg>
