<svg width="60" height="60" viewBox="0 0 60 60" fill="none" xmlns="http://www.w3.org/2000/svg">
<path fill-rule="evenodd" clip-rule="evenodd" d="M34.43 14.3474H39.1951C39.8221 14.3474 40.2818 14.8104 40.2818 15.4717C40.2818 16.1993 39.8221 16.6402 39.1951 16.6402H32.1311C31.4414 16.6402 30.9607 16.1552 30.9607 15.5158C30.9607 15.0529 31.1279 14.7443 31.5668 14.1269L36.499 7.3809V7.27075H32.0057C31.3787 7.27075 30.898 6.85208 30.898 6.12423C30.898 5.44115 31.3787 5 32.0057 5H38.7144C39.404 5 39.9057 5.41895 39.9057 6.10212C39.9057 6.49897 39.7385 6.87371 39.2996 7.46913L34.43 14.2372V14.3474ZM45.6112 22.791H48.9761C49.5822 22.791 50 23.2318 50 23.8712C50 24.5545 49.5822 24.9735 48.9761 24.9735H43.5213C42.8734 24.9735 42.4345 24.5105 42.4345 23.9153C42.4345 23.4743 42.5808 23.1216 42.9779 22.5925L46.4263 17.8306V17.7425H43.3958C42.8107 17.7425 42.3718 17.3236 42.3718 16.6402C42.3718 16.0008 42.8107 15.56 43.3958 15.56H48.5162C49.164 15.56 49.6447 15.9788 49.6447 16.6182C49.6447 17.0149 49.4774 17.3456 49.0806 17.9188L45.6112 22.7027V22.791ZM36.8961 30.3306H39.7594C40.3236 30.3306 40.7207 30.7275 40.7207 31.3447C40.7207 31.984 40.3236 32.3809 39.7594 32.3809H34.9107C34.3046 32.3809 33.8867 31.962 33.8867 31.3888C33.8867 30.9699 34.0329 30.6612 34.4091 30.1321L37.3141 26.0317V25.9435H34.8062C34.2419 25.9435 33.8239 25.5466 33.8239 24.9074C33.8239 24.29 34.2419 23.8712 34.8062 23.8712H39.3205C39.9266 23.8712 40.3863 24.2459 40.3863 24.8853C40.3863 25.26 40.2191 25.5466 39.8429 26.1198L36.8961 30.2424V30.3306Z" fill="#1CE17E"/>
<path d="M10 36.4599C10 28.3429 14.3397 21.4396 20.5965 18.7521C21.4859 18.373 21.9888 18.5566 22.2405 18.8598C22.4741 19.169 22.5555 19.753 22.1733 20.5593C21.4928 22.0183 21.0093 24.7257 21.0093 27.4211C21.0093 32.3391 22.5399 36.3976 25.2936 39.2286C28.0484 42.0606 31.9925 43.6283 36.7489 43.6283C39.1906 43.6283 41.1648 43.2477 42.788 42.5631C43.4489 42.2925 43.8917 42.4046 44.1237 42.6291C44.3893 42.9309 44.5317 43.4889 44.1932 44.3434C41.638 50.5906 36.2751 54.4508 29.5536 54.9962C28.8654 55.0521 28.2781 54.4813 28.2872 53.7497C28.296 53.048 28.875 52.4595 29.6195 52.3872C34.2631 51.9365 38.3366 49.6393 40.7395 46.1312L41.4187 45.1397L40.2936 45.5636C39.4789 45.8705 37.8185 46.1125 35.9547 46.1125C30.7887 46.1125 26.4861 44.3268 23.4748 41.2336C20.4627 38.1395 18.7151 33.7085 18.7151 28.3691C18.7151 26.2769 19.0055 24.1187 19.488 22.7401L19.926 21.4889L18.8932 22.3206C14.9154 25.524 12.4196 30.527 12.4196 36.1954C12.4196 41.3377 14.392 45.8103 17.7421 48.7617C18.3418 49.29 18.4616 50.1687 18.0067 50.7509C17.576 51.3023 16.8111 51.3992 16.3137 50.9765C12.3614 47.6179 10 42.4432 10 36.4599Z" fill="#1CE17E"/>
</svg>
