<svg width="60" height="60" viewBox="0 0 60 60" fill="none" xmlns="http://www.w3.org/2000/svg">
<path d="M26.7675 33.1243C26.5723 32.8694 26.2089 32.826 25.9595 33.0158C23.0255 35.2718 19.4571 33.0863 19.2944 32.9833C19.0232 32.8151 18.6653 32.8911 18.4972 33.1622C18.3291 33.4334 18.405 33.7913 18.6761 33.9594C18.7954 34.0354 20.6556 35.1851 22.9388 35.1851C24.1264 35.1851 25.4334 34.8705 26.6591 33.9269C26.9139 33.7425 26.9628 33.3791 26.7675 33.1243Z" fill="#1CE17E" stroke="#1CE17E"/>
<path d="M43.5727 33.1727C43.4045 32.9015 43.0466 32.8202 42.7755 32.9937C42.6236 33.0859 39.0497 35.2823 36.1104 33.0263C35.8555 32.831 35.4921 32.8798 35.3023 33.1347C35.1071 33.3896 35.1559 33.753 35.4108 33.9428C36.6418 34.8864 37.9434 35.2009 39.1311 35.2009C41.4142 35.2009 43.2744 34.0458 43.3937 33.9753C43.6594 33.7963 43.7408 33.4384 43.5727 33.1727Z" fill="#1CE17E" stroke="#1CE17E"/>
<path d="M31.034 54.5022C28.3061 54.5022 25.6433 53.5423 23.5229 51.7852C20.7299 49.681 18.501 46.3892 16.8903 42.0018L15.8653 38.5256C15.7786 38.2164 15.4532 38.0429 15.1495 38.1351C14.8458 38.2273 14.6668 38.5473 14.759 38.851L15.7894 42.3489C15.7948 42.3597 15.7948 42.3706 15.8003 42.3814C15.8328 42.4628 15.8599 42.5441 15.8924 42.6255C13.8154 42.5496 12.0311 40.543 11.0441 38.6611C9.76968 36.2261 9.50937 33.6176 10.4096 32.3106C10.7567 31.8117 11.2719 31.5025 11.9498 31.3887C11.9606 31.3887 11.9715 31.3941 11.9823 31.3941C12.0366 31.3941 12.0962 31.3832 12.1505 31.367C12.4758 31.3344 12.8338 31.3344 13.2242 31.3832C13.3002 31.3941 13.3761 31.3887 13.452 31.367C14.1136 31.1826 26.4026 27.6629 33.4852 20.0434C34.6512 22.5923 38.583 29.8647 46.1863 31.7683L47.4011 30.8518C39.1796 29.3821 35.0959 20.8514 34.3313 19.0835C35.9636 17.1203 37.2381 14.913 37.9051 12.4401C37.9865 12.1309 37.8075 11.8164 37.4984 11.7351C37.1893 11.6537 36.8747 11.8381 36.7934 12.1418C33.6208 23.9643 14.8404 29.7509 13.2514 30.2227C12.9205 30.1901 12.6168 30.1847 12.3348 30.1956C11.6678 28.7313 11.3641 26.985 11.4509 24.9893C11.7166 18.7798 14.2818 13.3186 18.4847 10.0159C21.9827 7.26636 26.831 5.57432 31.457 5.4984C31.7769 5.49298 32.0318 5.23266 32.0264 4.9127C32.021 4.59815 31.7661 4.34326 31.4516 4.34326C31.4461 4.34326 31.4461 4.34326 31.4407 4.34326C26.5002 4.42461 21.5217 6.16545 17.7743 9.11024C13.3056 12.6245 10.5832 18.3947 10.3012 24.9459C10.2144 27.0013 10.5018 28.8343 11.1634 30.4071C10.3283 30.6836 9.7968 31.188 9.47141 31.6598C8.1373 33.5905 8.79351 36.839 10.0354 39.2035C11.5431 42.0777 13.7828 43.7915 16.028 43.7915C16.1365 43.7915 16.2395 43.7589 16.3317 43.7047C17.9695 47.6582 20.1551 50.6843 22.8233 52.6963C25.1281 54.6107 28.0512 55.6628 31.0502 55.6628C32.9538 55.6628 34.8356 55.2398 36.5439 54.4317L36.7608 53.0271C36.7554 53.0326 36.7446 53.0326 36.7392 53.038C34.9929 53.9925 33.0243 54.5022 31.034 54.5022Z" fill="#1CE17E" stroke="#1CE17E" stroke-width="1.5"/>
</svg>
