<svg width="2396" height="1648" viewBox="0 0 2396 1648" fill="none" xmlns="http://www.w3.org/2000/svg">
<g opacity="0.5">
<path d="M2346.25 502.144C2346.25 502.144 1956.39 381.492 1823.65 624.854C1690.91 868.216 1863.66 1163.97 1722.02 1098.46C1525.5 1007.55 1215.21 1046.92 1158.66 1078.81C989.166 1174.48 969.403 1094.66 867.135 1020.36C764.866 946.066 537.432 421.096 457 531.399C376.568 641.703 470.257 1328.61 346.811 1321.44C223.365 1314.27 218.152 705.806 185.94 709.659M2346.51 499.277C2346.51 499.277 1960.47 373.473 1834.34 616.085C1706.98 861.066 1870.48 1158.99 1722.91 1088.7C1523.18 994.308 1220.57 1028.6 1159.41 1064.97C991.912 1164.56 970.289 1084.9 868.021 1010.6C765.752 936.306 550.128 425.345 464.033 540.771C382.527 649.977 471.143 1318.85 347.697 1311.68C224.251 1304.51 218.517 701.791 186.305 705.643M2346.79 496.22C2346.79 496.22 1964.57 365.264 1845.03 607.317C1723.21 854.127 1877.34 1153.63 1723.79 1078.94C1520.93 980.298 1225.75 1010.27 1160.17 1051.13C994.525 1154.23 971.173 1075.14 868.905 1000.85C766.637 926.547 562.806 429.786 471.065 550.145C388.65 658.273 472.028 1309.09 348.582 1301.92C225.136 1294.76 218.899 697.585 186.687 701.437M2347.06 493.147C2347.06 493.147 1968.67 357.038 1855.73 598.341C1739.45 846.981 1884.2 1148.25 1724.69 1068.98C1518.65 966.656 1231.12 991.741 1160.94 1037.08C996.859 1143.28 972.076 1065.18 869.808 990.879C767.54 916.58 575.668 434.04 478.098 559.502C394.923 666.764 472.931 1299.12 349.485 1291.96C226.038 1284.79 219.281 693.362 187.069 697.215M2347.32 490.278C2347.32 490.278 1972.9 349.228 1866.42 589.569C1755.68 840.04 1891.04 1143.08 1725.58 1059.21C1516.34 953.217 1236.32 973.208 1161.85 1023.25C999.376 1132.17 972.962 1055.41 870.694 981.116C768.425 906.817 588.53 438.307 485.297 568.892C401.196 675.268 473.816 1289.36 350.37 1282.19C226.924 1275.03 219.663 689.153 187.451 693.005M2347.6 487.213C2347.6 487.213 1977 341.011 1877.11 580.793C1771.88 833.285 1897.72 1137.89 1726.46 1049.45C1514.04 939.775 1241.69 954.691 1162.61 1009.41C1001.56 1121.01 973.847 1045.65 871.578 971.349C769.31 897.051 601.374 442.761 492.329 578.258C407.468 683.768 474.701 1279.6 351.255 1272.43C227.809 1265.26 220.027 685.131 187.815 688.983M2347.88 484.149C2347.88 484.149 1981.41 333.027 1887.82 571.826C1788.11 826.341 1904.57 1132.52 1727.37 1039.49C1511.75 926.141 1246.93 935.772 1163.38 995.368C1003.8 1109.28 974.75 1035.69 872.482 961.392C770.214 887.094 614.236 447.025 499.38 587.434C413.759 692.077 475.605 1269.64 352.158 1262.47C228.712 1255.3 220.427 680.726 188.215 684.579M2348.16 481.086C2348.16 481.086 1985.64 325.214 1898.53 562.86C1804.5 819.416 1911.42 1127.35 1728.27 1029.53C1509.47 912.509 1252 916.833 1164.15 981.33C1005.89 1097.33 975.653 1025.73 873.385 951.436C771.116 877.137 627.08 451.48 506.413 596.801C420.198 700.599 476.507 1259.68 353.061 1252.51C229.615 1245.35 220.809 676.514 188.597 680.367M2348.42 478.213C2348.42 478.213 1990.03 317.421 1909.2 554.277C1820.86 812.874 1918.22 1122.55 1729.14 1019.96C1506.96 899.43 1257.2 898.297 1164.88 967.675C1007.77 1085.75 976.519 1016.16 874.251 941.861C771.983 867.563 640.089 455.955 513.444 606.168C426.635 709.119 477.391 1249.92 353.945 1242.75C230.498 1235.58 221.189 672.301 188.977 676.154M2348.7 475.148C2348.7 475.148 1994.6 309.646 1919.91 545.308C1837.42 805.968 1924.92 1117.17 1730.04 1010C1504.66 885.986 1262.27 879.356 1165.65 953.634C1009.7 1073.79 977.423 1006.2 875.155 931.902C772.887 857.604 653.1 460.428 520.478 615.533C432.891 717.81 478.278 1240.15 354.831 1232.98C231.385 1225.81 221.555 668.278 189.343 672.13M2348.97 472.084C2348.97 472.084 1998.99 301.853 1930.61 536.342C1853.96 799.254 1931.76 1111.99 1730.94 1000.04C1502.38 872.353 1267.36 860.226 1166.42 939.596C1011.66 1061.44 978.326 996.243 876.058 921.945C773.79 847.647 666.259 465.115 527.511 624.9C439.313 726.522 479.163 1230.38 355.717 1223.21C232.27 1216.05 221.937 664.066 189.725 667.918M2349.23 469.212C2349.23 469.212 2003.7 294.292 1941.45 527.779C1870.81 792.773 1938.56 1107.2 1731.83 990.277C1499.89 859.083 1272.43 841.287 1167.32 925.961C1013.56 1049.67 979.211 986.478 876.943 912.18C774.675 837.881 679.269 469.591 534.726 634.095C445.917 735.063 480.083 1220.23 356.637 1213.07C233.19 1205.9 222.319 659.853 190.107 663.705M2349.51 466.145C2349.51 466.145 2008.27 286.516 1952.16 518.809C1887.52 786.077 1945.39 1102.21 1732.73 980.317C1497.57 845.83 1277.35 822.133 1168.09 911.92C1015.35 1037.3 980.114 976.518 877.846 902.219C775.578 827.921 692.428 474.274 541.76 643.459C452.522 743.601 480.969 1210.47 357.523 1203.3C234.076 1196.13 222.719 655.446 190.507 659.298M2349.79 463.088C2349.79 463.088 2012.99 278.77 1962.87 509.849C1904.22 779.39 1952.06 1097.03 1733.63 970.367C1495.12 832.184 1282.29 802.798 1168.86 897.888C1017.15 1024.94 981.016 966.567 878.748 892.269C776.48 817.97 705.586 478.967 548.791 652.833C458.925 752.511 481.853 1200.71 358.407 1193.54C234.961 1186.37 223.082 651.431 190.87 655.284M2350.07 460.027C2350.07 460.027 2017.89 271.039 1973.56 501.077C1921.08 772.911 1958.89 1092.04 1734.52 960.603C1492.8 818.936 1287.21 783.65 1169.61 884.043C1018.92 1012.77 981.902 956.804 879.634 882.506C777.366 808.207 718.745 483.657 555.842 662.011C465.365 761.035 482.757 1190.75 359.31 1183.58C235.864 1176.42 223.482 647.03 191.271 650.882M2350.33 457.15C2350.33 457.15 2022.76 263.493 1984.24 492.297C1938.09 766.445 1965.55 1087.04 1735.4 950.833C1490.29 805.853 1291.99 764.283 1170.36 870.192C1020.53 1000.57 982.786 947.034 880.518 872.735C778.25 798.437 732.052 488.55 562.857 671.564C471.934 769.954 483.641 1180.98 360.195 1173.81C236.748 1166.65 223.846 643.004 191.634 646.856M2350.61 454.085C2350.61 454.085 2027.66 255.76 1994.95 483.33C1955.13 759.791 1972.37 1082.05 1736.31 940.875C1487.82 792.39 1296.93 744.94 1171.13 856.153C1022.17 987.99 983.69 937.076 881.422 862.778C779.154 788.479 745.211 493.236 569.908 680.739C478.539 778.494 484.545 1171.02 361.098 1163.86C237.652 1156.69 224.229 638.791 192.017 642.643M2350.88 451.022C2350.88 451.022 2032.71 248.048 2005.64 474.556C1972.34 753.159 1979.03 1077.05 1737.19 931.111C1485.5 779.141 1301.7 725.579 1171.88 842.307C1023.8 975.605 984.574 927.311 882.306 853.013C780.038 778.714 758.517 498.135 576.939 690.107C484.959 787.207 485.429 1161.26 361.983 1154.09C238.536 1146.92 224.61 634.579 192.398 638.431M2351.14 448.151C2351.14 448.151 2037.76 240.528 2016.33 465.782C1989.52 746.718 1985.47 1072.6 1738.08 921.346C1482.8 766.426 1306.31 706.198 1172.8 828.481C1025.41 963.411 985.46 917.547 883.192 843.248C780.924 768.95 771.808 503.226 584.138 699.495C491.695 796.152 486.315 1151.49 362.868 1144.33C239.422 1137.16 224.992 630.367 192.78 634.219M2351.42 445.083C2351.42 445.083 2043 232.639 2027.04 456.811C2006.91 739.909 1992.31 1067.42 1738.98 911.384C1480.5 752.98 1310.95 686.429 1173.57 814.438C1027.05 950.829 986.363 907.585 884.095 833.287C781.827 758.988 785.281 508.14 591.172 708.858C498.283 804.88 487.218 1141.53 363.772 1134.36C240.325 1127.2 225.375 626.15 193.163 630.002M2351.7 442.027C2351.7 442.027 2048.22 224.954 2037.73 448.044C2024.44 733.324 1998.97 1062.43 1739.86 901.626C1478.03 739.526 1315.56 667.054 1174.32 800.599C1028.51 938.43 987.247 897.827 884.979 823.528C782.711 749.23 799.032 513.68 598.203 718.232C504.999 814.023 488.101 1131.77 364.655 1124.61C241.209 1117.44 225.755 621.945 193.543 625.797M2351.98 438.958C2351.98 438.958 2053.47 217.065 2048.43 439.073C2041.99 726.535 2005.81 1057.25 1740.77 891.665C1475.72 726.08 1320.2 647.284 1175.09 786.556C1029.99 925.827 988.149 887.865 885.881 813.567C783.612 739.268 812.042 518.151 605.252 727.403C511.271 822.519 489.003 1121.81 365.557 1114.64C242.111 1107.48 226.136 617.728 193.924 621.58" stroke="#6296FE" stroke-miterlimit="10"/>
<path d="M110.095 660.358C110.095 660.358 562.677 890.158 726.085 699.404C889.493 508.651 741.91 440.074 875.63 522.38C1061.04 636.516 1151.33 436.237 1211.96 418.16C1393.83 363.759 1159.8 1109.59 1252.93 1192.83C1346.07 1276.07 1677.83 1028.69 1772.31 945.828C1866.8 862.966 2027.86 779.579 2150.62 807.474C2273.38 835.369 2267.13 852.979 2299.98 855.272M110.014 661.06C110.014 661.06 555.775 886.551 712.504 695.281C870.69 502.129 737.041 447.159 875.994 534.631C1064.24 652.451 1151.55 448.676 1217.21 427.48C1397.41 369.272 1178.12 1097.65 1266.64 1181.89C1355.91 1266.74 1669.78 1040.09 1770.42 953.641C1865.72 871.905 2022.59 791.55 2145.18 819.463C2267.77 847.375 2266.05 856.554 2298.91 858.846M109.766 661.781C109.766 661.781 548.56 883.151 698.588 691.194C851.53 495.472 731.524 454.484 876.002 546.747C1066.82 668.799 1151.27 461.168 1222.13 436.835C1401.22 375.281 1196.29 1085.72 1280.51 1170.93C1365.92 1257.4 1661.7 1051.31 1768.69 961.438C1864.8 880.657 2017.35 803.694 2140.11 831.589C2262.86 859.484 2265.34 860.265 2298.02 862.575M109.685 662.481C109.685 662.481 541.659 879.542 685.007 687.068C832.705 488.777 726.633 461.396 876.366 558.995C1069.88 684.92 1151.53 473.947 1227.38 446.152C1404.89 381.475 1214.59 1073.61 1294.22 1159.98C1375.61 1248.25 1653.29 1062.57 1766.63 969.266C1863.39 889.628 2011.91 815.68 2134.67 843.575C2257.43 871.47 2264.26 863.837 2297.09 865.959M109.438 663.194C109.438 663.194 534.401 875.793 671.091 682.974C813.547 482.114 721.263 468.526 876.375 571.104C1072.56 700.731 1151.24 486.432 1232.29 455.501C1408.62 388.177 1232.59 1061.69 1307.76 1149.05C1385.31 1239.11 1644.86 1073.65 1764.57 977.09C1862.13 898.408 2006.5 827.834 2129.26 855.729C2252.01 883.624 2263.38 867.559 2296.04 869.698M109.356 663.902C109.356 663.902 527.332 872.21 657.532 679.028C794.576 475.615 716.248 475.805 876.761 583.531C1075.81 717.014 1151.53 499.389 1237.59 465.168C1412.73 395.199 1250.96 1050.1 1321.85 1138.42C1395.55 1230.26 1636.83 1085.23 1763.06 985.216C1861.22 907.336 2001.63 840.289 2124.2 868.031C2246.77 895.772 2262.47 871.122 2295.32 873.414M109.107 664.617C109.107 664.617 520.073 868.461 643.615 674.934C775.394 468.781 711.022 482.748 876.768 595.641C1078.49 732.825 1151.29 512.216 1242.48 474.346C1416.65 402.055 1268.93 1038.01 1335.36 1127.32C1405.08 1221.13 1628.37 1096.14 1760.95 992.7C1859.75 915.792 1995.99 851.948 2118.74 879.843C2241.5 907.738 2261.56 874.673 2294.25 876.983M108.858 665.335C108.858 665.335 512.793 864.547 629.866 670.827C756.19 461.781 705.817 489.866 876.942 607.737C1081.53 748.777 1151.38 525.013 1247.56 483.682C1420.62 409.257 1287.12 1026.26 1349.07 1116.38C1414.94 1211.97 1620.11 1107.21 1759.22 1000.49C1858.63 924.388 1990.91 864.072 2113.64 891.796C2236.38 919.52 2260.82 878.212 2293.51 880.522M108.78 666.035C108.78 666.035 505.515 860.631 616.119 666.719C737.011 454.95 700.761 496.794 877.309 619.985C1084.57 764.727 1151.67 537.962 1252.81 492.999C1424.94 416.594 1305.45 1014.31 1363.09 1105.22C1424.97 1202.79 1611.8 1117.94 1757.48 1008.12C1857.5 932.812 1985.79 875.852 2108.54 903.748C2231.3 931.643 2260.09 881.749 2292.75 883.888M108.531 666.751C108.531 666.751 498.068 856.731 602.371 662.61C717.641 447.965 695.703 503.722 877.484 632.079C1087.59 780.507 1151.78 550.928 1257.73 502.35C1428.93 423.966 1323.3 1002.59 1376.63 1094.3C1434.36 1193.86 1603.03 1129.06 1755.42 1015.94C1855.86 941.288 1980.37 888.009 2102.96 915.922C2225.55 943.834 2258.87 885.508 2291.53 887.648M108.45 667.458C108.45 667.458 490.789 852.822 588.79 658.491C698.416 440.799 690.645 510.658 877.849 644.335C1090.79 796.446 1152.09 564.054 1263 511.845C1433.29 431.651 1341.67 990.99 1390.53 1083.51C1444.28 1185.21 1594.77 1140.13 1753.54 1023.93C1854.6 950.078 1974.98 900.344 2097.74 928.239C2220.5 956.134 2257.98 889.241 2290.84 891.533M108.202 668.171C108.202 668.171 483.32 848.749 574.895 654.567C678.9 433.999 685.441 517.77 877.878 656.614C1093.66 812.41 1152.06 577.205 1267.92 521.192C1437.32 439.361 1359.54 979.435 1404.24 1072.56C1454 1176.24 1586.15 1151.06 1751.65 1031.74C1853.12 958.533 1969.71 912.309 2092.47 940.204C2215.23 968.099 2257.08 892.791 2289.93 895.084M108.12 668.874C108.12 668.874 475.85 844.683 561.313 650.445C659.674 426.83 680.549 524.685 878.241 668.866C1096.87 828.347 1152.38 590.499 1273.19 530.684C1441.85 447.026 1377.58 967.869 1418.13 1061.77C1463.74 1167.44 1577.86 1161.97 1749.95 1039.71C1852.01 967.132 1964.66 924.606 2087.39 952.33C2210.13 980.055 2256.19 896.52 2289.02 898.642M107.872 669.593C107.872 669.593 468.047 840.65 547.397 646.356C639.948 419.711 675.324 531.633 878.25 680.98C1099.88 844.128 1152.54 603.809 1278.11 540.038C1445.9 454.912 1395.43 956.148 1431.67 1050.85C1472.98 1158.69 1569.05 1172.75 1747.86 1047.37C1850.37 975.61 1959.2 936.423 2081.79 964.336C2204.38 992.249 2255.28 900.077 2287.97 902.386M107.624 670.311C107.624 670.311 460.244 836.616 533.649 642.248C620.222 412.591 670.266 538.562 878.447 693.246C1102.9 859.908 1152.87 617.1 1283.19 549.372C1450.27 462.591 1413.3 944.597 1445.38 1039.9C1482.55 1149.91 1560.41 1183.51 1745.97 1055.18C1848.89 984.07 1953.79 948.581 2076.52 976.305C2199.26 1004.03 2254.38 903.631 2287.06 905.941M107.543 671.008C107.543 671.008 452.607 832.562 519.9 638.138C600.473 405.297 665.208 545.488 878.622 705.338C1105.92 875.685 1153.03 630.405 1288.27 558.704C1454.65 470.438 1431.15 932.872 1459.26 1028.94C1492.1 1140.95 1551.93 1194.25 1744.24 1062.97C1847.57 992.338 1948.69 960.53 2071.44 988.425C2194.2 1016.32 2253.47 907.184 2286.32 909.476M107.296 671.727C107.296 671.727 444.783 828.358 506.153 634.031C580.726 398.008 660.318 552.4 878.82 717.605C1108.93 891.466 1153.55 643.851 1293.36 568.04C1459.02 478.118 1448.85 921.339 1472.96 1017.99C1501.34 1132.2 1543.27 1204.85 1742.35 1070.78C1846.26 1000.78 1943.44 972.671 2066.2 1000.57C2188.96 1028.46 2252.59 910.91 2285.27 913.22M107.214 672.429C107.214 672.429 436.979 824.326 492.404 629.925C560.664 390.925 655.238 559.161 879.162 729.685C1112.28 907.214 1154.06 657.297 1298.61 577.36C1463.6 486.123 1466.55 909.808 1486.69 1007.22C1510.74 1123.44 1534.46 1215.63 1740.31 1078.78C1844.64 1009.43 1938.03 984.831 2060.62 1012.74C2183.21 1040.66 2251.54 914.656 2284.22 916.965M106.966 673.148C106.966 673.148 428.819 820.157 478.676 625.99C540.77 383.824 650.492 565.885 879.38 742.124C1115.44 922.807 1154.43 670.931 1303.54 586.884C1468 494.145 1484.23 898.104 1500.57 996.259C1520.12 1114.5 1525.96 1226.21 1738.58 1086.58C1843.32 1017.7 1932.78 996.973 2055.54 1024.87C2178.3 1052.76 2250.8 918.195 2283.46 920.334M106.718 673.861C106.718 673.861 420.681 816.153 464.761 621.895C520.352 376.598 645.268 572.827 879.389 754.232C1118.46 938.582 1154.8 684.559 1308.46 596.232C1472.39 501.991 1501.75 886.413 1514.11 985.327C1529 1105.61 1516.96 1236.83 1736.52 1094.4C1841.68 1026.18 1927.35 1008.96 2050.1 1036.85C2172.86 1064.75 2249.89 921.745 2282.57 924.055M106.636 674.562C106.636 674.562 412.688 811.967 451.179 617.771C500.269 369.343 640.376 579.74 879.731 766.311C1121.5 954.534 1155.36 698.346 1313.71 605.551C1477.11 509.807 1519.6 874.692 1527.98 974.366C1538.39 1096.67 1508.05 1246.76 1734.8 1102.19C1840.16 1034.29 1922.27 1021.08 2045.02 1048.97C2167.78 1076.87 2249 925.472 2281.67 927.611M106.389 675.283C106.389 675.283 404.551 807.971 437.264 613.684C479.851 362.126 634.984 586.707 879.761 778.598C1124.54 970.489 1155.9 711.965 1318.62 614.907C1481.35 517.848 1537.11 863.008 1541.69 963.424C1547.43 1087.77 1499.59 1257.68 1732.88 1109.84C1838.86 1042.74 1916.83 1033.07 2039.57 1060.79C2162.3 1088.52 2248.1 929.031 2280.78 931.34" stroke="#00C186" stroke-miterlimit="10"/>
</g>
</svg>
