<svg width="194" height="34" viewBox="0 0 194 34" fill="none" xmlns="http://www.w3.org/2000/svg">
<path d="M31.2376 33.4022V0.00390625H26.2661V33.4022H31.2376Z" fill="#343434"/>
<path d="M44.007 6.1803C45.2959 4.89927 45.2959 2.97773 44.053 1.74245C42.8101 0.461417 40.7847 0.461417 39.5418 1.74245C38.2989 2.97773 38.2989 4.89927 39.5418 6.1803C40.8307 7.41558 42.7641 7.41558 44.007 6.1803ZM44.2832 33.4022V10.5267H39.3116V33.4022H44.2832Z" fill="#343434"/>
<path d="M77.4909 9.93189C74.3146 9.93189 71.967 11.1214 70.4479 13.5462C69.0209 11.1214 66.8574 9.93189 63.9113 9.93189C61.0113 9.93189 58.8017 11.0299 57.3287 13.2717V10.5267H52.3572V33.4022H57.3287V20.5919C57.3287 16.6116 59.4462 14.5528 62.4383 14.5528C65.2002 14.5528 66.7653 16.3828 66.7653 19.5396V33.4022H71.7368V20.5919C71.7368 16.5658 73.6702 14.5528 76.7543 14.5528C79.5163 14.5528 81.2195 16.3828 81.2195 19.5396V33.4022H86.191V19.2194C86.191 13.5462 82.6925 9.93189 77.4909 9.93189Z" fill="#343434"/>
<path d="M112.042 13.775C110.155 11.2129 107.485 9.93189 103.986 9.93189C100.81 9.93189 98.1403 11.0757 95.8848 13.409C93.6292 15.7423 92.5244 18.5788 92.5244 21.9644C92.5244 25.3043 93.6292 28.1866 95.8848 30.5199C98.1403 32.8532 100.81 33.997 103.986 33.997C107.485 33.997 110.155 32.7159 112.042 30.1081V33.4022H117.014V10.5267H112.042V13.775ZM99.5673 27.2258C98.1864 25.8075 97.4959 24.069 97.4959 21.9644C97.4959 19.8599 98.1864 18.1213 99.5673 16.7488C100.948 15.3305 102.698 14.6443 104.769 14.6443C106.84 14.6443 108.59 15.3305 109.971 16.7488C111.352 18.1213 112.042 19.8599 112.042 21.9644C112.042 24.069 111.352 25.8075 109.971 27.2258C108.59 28.5983 106.84 29.2846 104.769 29.2846C102.698 29.2846 100.948 28.5983 99.5673 27.2258Z" fill="#343434"/>
<path d="M137.953 10.5267H132.245V4.1215L127.273 5.58554V10.5267H123.038V15.2848H127.273V26.265C127.273 32.2584 130.358 34.3172 137.953 33.4022V28.9643C134.178 29.1474 132.245 29.1931 132.245 26.265V15.2848H137.953V10.5267Z" fill="#343434"/>
<path d="M166.053 24.069C166.191 23.1997 166.237 22.5134 166.237 22.0102C166.237 18.6703 165.133 15.788 162.969 13.4547C160.806 11.1214 158.044 9.93189 154.683 9.93189C151.139 9.93189 148.193 11.0757 145.937 13.409C143.681 15.6965 142.531 18.5331 142.531 21.9644C142.531 25.4415 143.681 28.3238 145.983 30.6114C148.285 32.8532 151.323 33.997 155.051 33.997C159.517 33.997 162.877 32.3499 165.133 29.0101L161.036 26.631C159.701 28.5068 157.721 29.4676 155.098 29.4676C151.277 29.4676 148.469 27.5461 147.732 24.069H166.053ZM147.686 20.0429C148.377 16.5658 150.955 14.4155 154.637 14.4155C157.905 14.4155 160.529 16.337 161.22 20.0429H147.686Z" fill="#343434"/>
<path d="M183.642 33.997C188.107 33.997 192.02 31.7094 194 28.0493L189.719 25.6245C188.614 27.7748 186.312 29.1474 183.596 29.1474C181.571 29.1474 179.868 28.4611 178.487 27.0886C177.152 25.716 176.461 24.0232 176.461 21.9644C176.461 19.9056 177.152 18.2128 178.487 16.8403C179.868 15.4678 181.571 14.7815 183.596 14.7815C186.358 14.7815 188.568 16.1083 189.627 18.3043L193.908 15.8338C192.066 12.2194 188.107 9.93189 183.642 9.93189C180.19 9.93189 177.29 11.0757 174.942 13.409C172.641 15.6965 171.49 18.5331 171.49 21.9644C171.49 25.35 172.641 28.1866 174.942 30.5199C177.29 32.8532 180.19 33.997 183.642 33.997Z" fill="#343434"/>
<path d="M3.40574 30.0749C-1.13525 25.5082 -1.13525 18.0738 3.40574 13.5071L7.83939 17.9658C5.74391 20.0732 1.8423 25.1703 3.42908 30.0514" fill="url(#paint0_linear_7394_916)"/>
<path d="M3.42908 13.4836C7.97007 8.91692 15.3626 8.91692 19.9036 13.4836L15.4699 17.9424C13.3745 15.835 8.30609 11.9113 3.45241 13.5071" fill="url(#paint1_linear_7394_916)"/>
<path d="M19.9036 30.0984C15.3626 34.6651 7.97007 34.6651 3.42908 30.0984L7.86273 25.6396C9.95821 27.7469 15.0266 31.6707 19.8802 30.0749" fill="url(#paint2_linear_7394_916)"/>
<defs>
<linearGradient id="paint0_linear_7394_916" x1="-5.51501" y1="4.47086" x2="21.5652" y2="28.4834" gradientUnits="userSpaceOnUse">
<stop offset="0.322917" stop-color="#00FF5A"/>
<stop offset="1" stop-color="#259B22"/>
</linearGradient>
<linearGradient id="paint1_linear_7394_916" x1="-5.51501" y1="4.47086" x2="21.5652" y2="28.4834" gradientUnits="userSpaceOnUse">
<stop offset="0.322917" stop-color="#00FF5A"/>
<stop offset="1" stop-color="#259B22"/>
</linearGradient>
<linearGradient id="paint2_linear_7394_916" x1="-5.51501" y1="4.47086" x2="21.5652" y2="28.4834" gradientUnits="userSpaceOnUse">
<stop offset="0.322917" stop-color="#00FF5A"/>
<stop offset="1" stop-color="#259B22"/>
</linearGradient>
</defs>
</svg>
