<svg width="54" height="14" viewBox="0 0 54 14" fill="none" xmlns="http://www.w3.org/2000/svg">
<g clip-path="url(#clip0_7416_1625)">
<path fill-rule="evenodd" clip-rule="evenodd" d="M0.444336 7C0.444336 6.72386 0.668194 6.5 0.944336 6.5L52.9012 6.50001C53.1773 6.50001 53.4012 6.72387 53.4012 7.00001C53.4012 7.27615 53.1773 7.50001 52.9012 7.50001L0.944336 7.5C0.668193 7.5 0.444336 7.27614 0.444336 7Z" fill="#343434"/>
<path fill-rule="evenodd" clip-rule="evenodd" d="M45.9222 0.535234C46.1099 0.332645 46.4262 0.320533 46.6288 0.508181L53.2415 6.63318C53.3437 6.72781 53.4018 6.86075 53.4018 7C53.4018 7.13925 53.3437 7.2722 53.2415 7.36682L46.6288 13.4918C46.4262 13.6795 46.1099 13.6674 45.9222 13.4648C45.7346 13.2622 45.7467 12.9458 45.9493 12.7582L52.166 7L45.9493 1.24182C45.7467 1.05417 45.7346 0.737824 45.9222 0.535234Z" fill="#343434"/>
</g>
<defs>
<clipPath id="clip0_7416_1625">
<rect width="53.8462" height="14" fill="white"/>
</clipPath>
</defs>
</svg>
