<svg width="32" height="32" viewBox="0 0 32 32" fill="none" xmlns="http://www.w3.org/2000/svg">
<path d="M20.2378 9.34835L21.9274 11.037C22.1601 11.2705 22.3341 11.5559 22.4354 11.8697C22.5366 12.1834 22.5621 12.5167 22.5098 12.8423C22.1529 14.9872 21.0166 17.1071 19.3063 18.8154C17.5946 20.5257 15.4732 21.6634 13.3346 22.0154C13.2249 22.0346 13.1141 22.044 12.9984 22.044C12.4468 22.0435 11.9179 21.8245 11.5274 21.435L9.84122 19.7488C9.59852 19.5056 9.46362 19.1822 9.46362 18.8381C9.46342 18.6689 9.49668 18.5013 9.56148 18.345C9.62628 18.1887 9.72135 18.0467 9.84122 17.9273L11.6608 16.1107C11.9035 15.8675 12.2269 15.7331 12.5716 15.7331C12.7405 15.733 12.9079 15.7663 13.0639 15.8311C13.22 15.8959 13.3617 15.9909 13.4809 16.1107L14.8101 17.4399C15.4962 17.1268 16.1203 16.6926 16.6523 16.1579C17.1854 15.6258 17.6178 15.0017 17.9289 14.3157L16.5996 12.9865C16.4797 12.8673 16.3845 12.7255 16.3196 12.5694C16.2547 12.4132 16.2212 12.2458 16.2212 12.0767C16.2212 11.9076 16.2547 11.7402 16.3196 11.5841C16.3845 11.4279 16.4797 11.2862 16.5996 11.1669L18.4177 9.34835C18.537 9.22836 18.6787 9.13314 18.8349 9.06816C18.9911 9.00318 19.1586 8.96973 19.3277 8.96973C19.4969 8.96973 19.6644 9.00318 19.8206 9.06816C19.9768 9.13314 20.1185 9.22836 20.2378 9.34835Z" fill="#343434"/>
<path fill-rule="evenodd" clip-rule="evenodd" d="M32 16C32 24.8366 24.8366 32 16 32C7.16344 32 0 24.8366 0 16C0 7.16344 7.16344 0 16 0C24.8366 0 32 7.16344 32 16ZM31 16C31 24.2843 24.2843 31 16 31C7.71573 31 1 24.2843 1 16C1 7.71573 7.71573 1 16 1C24.2843 1 31 7.71573 31 16Z" fill="#343434"/>
</svg>
