<svg width="32" height="32" viewBox="0 0 32 32" fill="none" xmlns="http://www.w3.org/2000/svg">
<path d="M6.39999 10.3999C6.5559 17.8954 10.2975 22.3999 16.8574 22.3999H17.2293V18.1116C19.6398 18.3519 21.4625 20.1176 22.194 22.3999H25.6C24.6646 18.9885 22.206 17.1026 20.671 16.3819C22.206 15.493 24.3646 13.3308 24.8803 10.3999H21.7862C21.1146 12.7783 19.1241 14.9404 17.2293 15.1446V10.3999H14.1351V18.7122C12.2163 18.2317 9.79387 15.9014 9.68594 10.3999H6.39999Z" fill="#343434"/>
<path fill-rule="evenodd" clip-rule="evenodd" d="M32 16C32 24.8366 24.8366 32 16 32C7.16344 32 0 24.8366 0 16C0 7.16344 7.16344 0 16 0C24.8366 0 32 7.16344 32 16ZM31 16C31 24.2843 24.2843 31 16 31C7.71573 31 1 24.2843 1 16C1 7.71573 7.71573 1 16 1C24.2843 1 31 7.71573 31 16Z" fill="#343434"/>
</svg>
