<svg width="1611" height="2036" viewBox="0 0 1611 2036" fill="none" xmlns="http://www.w3.org/2000/svg">
<g clip-path="url(#clip0_7512_2418)">
<g opacity="0.2">
<path d="M675.526 -510.99C675.526 -510.99 432.844 -159.167 596.039 48.106C759.235 255.379 1076.16 174.001 969.267 295.153C820.931 463.242 744.796 784.899 752.274 851.125C774.784 1049.64 698.785 1044.81 598.266 1123.98C497.747 1203.15 -36.6965 1268.59 30.0762 1382.75C96.8488 1496.92 723.761 1614.72 673.739 1735.66C623.718 1856.61 96.0076 1674.67 87.9009 1707.99M673.141 -512.132C673.141 -512.132 427.363 -165.706 592.256 34.7441C758.763 237.141 1074.28 165.662 961.147 291.268C808.661 461.483 730.864 773.927 740.579 846.116C767.183 1043.85 690.664 1040.92 590.145 1120.1C489.626 1199.27 -28.5167 1257.23 40.6731 1378.62C106.116 1493.52 715.64 1610.83 665.619 1731.78C615.597 1852.73 92.6668 1673.07 84.5601 1706.39M670.598 -513.349C670.598 -513.349 421.724 -172.319 588.473 21.3834C758.527 218.82 1072.09 157.171 953.027 287.384C795.754 459.421 716.857 763.115 728.885 841.11C759.188 1038.07 682.545 1037.04 582.025 1116.21C481.506 1195.38 -20.177 1245.95 51.2707 1374.49C115.459 1489.96 707.52 1606.95 657.499 1727.89C607.477 1848.84 89.1673 1671.4 81.0605 1704.72M668.04 -514.572C668.04 -514.572 416.07 -178.938 584.517 7.94115C758.118 200.418 1069.88 148.675 944.734 283.417C783.152 457.505 702.752 752.062 717.018 836.021C750.549 1032.37 674.251 1033.07 573.732 1112.25C473.213 1191.42 -11.9342 1234.42 61.8545 1370.35C125.025 1486.31 699.227 1602.98 649.206 1723.93C599.184 1844.88 85.654 1669.72 77.5472 1703.04M665.653 -515.714C665.653 -515.714 410.822 -185.56 580.731 -5.42098C757.879 182.096 1067.84 140.259 936.611 279.532C770.721 455.669 688.582 741.172 705.396 830.854C741.837 1026.44 666.128 1029.19 565.609 1108.36C465.09 1187.53 -3.68068 1222.91 72.5253 1366.05C134.601 1482.67 691.104 1599.09 641.083 1720.04C591.061 1840.99 82.1513 1668.04 74.0445 1701.36M663.103 -516.933C663.103 -516.933 405.175 -192.176 576.942 -18.7838C757.796 163.85 1065.71 132.002 928.485 275.645C758.285 453.833 674.485 730.123 693.696 825.845C732.969 1020.83 658.002 1025.3 557.483 1104.47C456.964 1183.65 4.72872 1211.46 83.1164 1361.92C144.174 1479.03 682.978 1595.21 632.956 1716.16C582.935 1837.1 78.8046 1666.44 70.6978 1699.76M660.554 -518.153C660.554 -518.153 399.842 -199.035 572.994 -32.2238C757.555 145.527 1063.51 123.508 920.2 271.681C745.692 451.919 659.994 719.079 681.837 820.759C723.625 1014.99 649.718 1021.34 549.198 1100.51C448.679 1179.68 12.98 1199.94 93.5493 1357.71C153.588 1475.31 674.693 1591.24 624.672 1712.19C574.65 1833.14 75.1404 1664.69 67.0336 1698.01M658.005 -519.373C658.005 -519.373 394.592 -205.658 569.047 -45.6628C757.39 127.045 1061.47 115.091 911.916 267.719C733.099 450.007 645.426 708.195 669.978 815.673C714.045 1009.23 641.433 1017.37 540.914 1096.55C440.395 1175.72 21.3908 1188.5 104.142 1353.57C163.239 1471.51 666.409 1587.28 616.387 1708.23C566.366 1829.18 71.6357 1663.01 63.5289 1696.33M655.615 -520.514C655.615 -520.514 389.417 -212.439 565.417 -58.948C757.542 108.717 1059.74 106.828 903.949 263.91C720.906 448.484 631.253 697.306 658.436 810.742C704.707 1003.79 633.466 1013.56 532.947 1092.74C432.428 1171.91 29.8765 1176.9 114.733 1349.44C172.888 1467.71 658.283 1583.4 608.261 1704.34C558.239 1825.29 68.1297 1661.34 60.0229 1694.66M653.064 -521.736C653.064 -521.736 384.318 -219.382 561.468 -72.389C757.452 90.0735 1057.46 98.4928 895.663 259.945C708.47 446.645 616.684 686.421 646.576 805.655C695.049 998.187 625.18 1009.6 524.661 1088.77C424.142 1167.95 38.3618 1165.29 125.324 1345.3C182.62 1464.14 650.156 1579.51 600.134 1700.46C550.113 1821.4 64.7827 1659.74 56.676 1693.05M650.515 -522.955C650.515 -522.955 379.143 -226.164 557.52 -85.8284C757.522 71.5081 1055.42 90.0759 887.378 255.982C695.877 444.732 601.958 675.461 634.717 800.569C685.074 992.437 616.895 1005.64 516.376 1084.81C415.857 1163.98 47.084 1153.61 135.916 1341.17C192.429 1460.41 642.031 1575.62 592.009 1696.57C541.987 1817.52 61.2777 1658.06 53.1709 1691.38M648.125 -524.098C648.125 -524.098 374.281 -233.188 553.967 -99.2742C757.905 52.7008 1053.7 81.8118 879.253 252.095C683.526 443.132 587.39 664.578 623.253 795.478C675.578 986.916 608.77 1001.75 508.251 1080.92C407.732 1160.1 55.5706 1142 146.425 1336.8C202.155 1456.45 633.587 1571.58 583.565 1692.53C533.543 1813.48 57.7727 1656.38 49.666 1689.7M645.574 -525.319C645.574 -525.319 369.18 -240.132 550.017 -112.715C758.049 33.9747 1051.81 73.4696 870.965 248.131C671.248 441.37 572.585 653.776 611.391 790.391C665.524 981.323 600.483 997.786 499.964 1076.96C399.444 1156.13 64.2903 1130.32 157.015 1332.66C211.879 1452.48 625.459 1567.69 575.437 1688.64C525.415 1809.59 54.1059 1654.63 45.9992 1687.95M643.03 -526.535C643.03 -526.535 364.164 -247.229 546.074 -126.151C758.2 15.2532 1049.7 65.2151 862.686 244.171C658.583 439.62 557.628 642.902 599.537 785.308C655.478 975.735 592.203 993.826 491.684 1073C391.165 1152.17 73.0176 1118.63 167.612 1328.53C221.853 1448.84 617.338 1563.81 567.317 1684.76C517.295 1805.71 50.7653 1653.03 42.6586 1686.35M640.483 -527.755C640.483 -527.755 359.221 -254.489 542.288 -139.514C758.585 -3.55437 1047.82 56.8746 854.563 240.284C646.311 437.859 542.827 632.101 587.839 780.299C645.589 970.221 584.08 989.939 483.561 1069.11C383.042 1148.29 81.7421 1106.95 178.047 1324.32C231.505 1445.03 609.056 1559.85 559.034 1680.8C509.013 1801.74 47.1033 1651.28 38.9965 1684.6M638.089 -528.899C638.089 -528.899 354.43 -261.674 538.495 -152.878C759.039 -22.5218 1045.85 48.6926 846.433 236.397C634.115 436.334 527.784 621.383 576.135 775.289C635.616 964.864 575.95 986.052 475.431 1065.22C374.912 1144.4 90.6954 1095.18 188.794 1320.26C241.545 1441.22 600.926 1555.96 550.905 1676.91C500.883 1797.86 43.7533 1649.68 35.6465 1683M635.539 -530.119C635.539 -530.119 349.484 -268.935 534.547 -166.318C759.337 -41.566 1043.97 40.3509 838.148 232.433C621.604 434.656 512.822 610.506 564.276 770.203C625.329 959.356 567.665 982.088 467.146 1061.26C366.627 1140.43 99.4172 1083.49 199.226 1316.05C251.271 1437.26 592.641 1552 542.62 1672.94C492.598 1793.89 40.2478 1648 32.1411 1681.32M632.991 -531.337C632.991 -531.337 344.615 -276.353 530.759 -179.68C759.713 -60.7671 1042.01 32.171 830.023 228.548C609.329 432.897 497.784 599.79 552.576 765.195C615.202 953.925 559.54 978.202 459.021 1057.38C358.502 1136.55 108.375 1071.72 209.819 1311.91C261.081 1433.54 584.516 1548.11 534.494 1669.06C484.473 1790.01 36.7431 1646.32 28.6363 1679.64M630.602 -532.48C630.602 -532.48 339.906 -283.697 526.972 -193.043C760.248 -79.8936 1040.45 24.3775 821.898 224.661C597.381 431.684 482.67 589.231 540.954 760.027C605.235 948.57 551.416 974.316 450.896 1053.49C350.377 1132.66 117.493 1060.03 220.488 1307.62C271.203 1429.57 576.391 1544.22 526.37 1665.17C476.348 1786.12 33.239 1644.65 25.1322 1677.97M628.049 -533.702C628.049 -533.702 334.95 -291.354 523.02 -206.484C760.537 -99.3336 1038.4 15.9587 813.61 220.696C584.943 429.845 467.233 578.519 529.091 754.939C594.945 943.06 543.127 970.351 442.608 1049.52C342.089 1128.7 126.523 1048.1 231.077 1303.48C281.085 1425.68 568.103 1540.26 518.082 1661.21C468.06 1782.15 29.7303 1642.97 21.6235 1676.29M625.506 -534.917C625.506 -534.917 330.162 -298.928 519.238 -219.843C761.07 -118.851 1036.45 7.78151 805.49 216.813C572.438 428.172 452.124 567.965 517.397 749.934C584.747 937.792 535.008 966.468 434.488 1045.64C333.969 1124.81 136.193 1036.09 241.674 1299.35C291.371 1421.79 559.983 1536.38 509.962 1657.32C459.94 1778.27 26.2309 1641.29 18.1242 1674.61M622.952 -536.137C622.952 -536.137 325.205 -306.584 515.286 -233.283C761.434 -138.448 1034.4 -0.635897 797.201 212.85C559.999 426.335 436.686 557.254 505.533 744.848C574.38 932.443 526.719 962.504 426.199 1041.68C325.68 1120.85 144.676 1024.48 252.103 1295.14C300.94 1418.15 551.694 1532.41 501.673 1653.36C451.651 1774.31 22.7216 1639.62 14.6148 1672.94" stroke="url(#paint0_linear_7512_2418)" stroke-miterlimit="10"/>
<path d="M18.6583 1768.88C18.6583 1768.88 353.455 1433.65 239.557 1224.99C125.659 1016.32 21.9389 1127.67 133.217 1033.24C287.521 902.306 143.209 756.629 146.15 696.078C154.82 514.39 723.333 964.555 823.066 907.079C922.799 849.604 811.549 470.738 769.222 358.868C726.895 246.999 704.375 74.8194 765.649 -27.131C826.923 -129.081 840.126 -117.799 852.087 -146.739M19.2359 1769.18C19.2359 1769.18 348.262 1438.73 231.888 1235.93C114.344 1031.21 26.5339 1134.33 143.836 1036.83C302.165 904.512 153.945 760.414 155.741 694.319C160.638 512.921 718.666 944.175 817.85 891.195C917.791 837.727 818.873 481.661 775.347 363.08C734.236 250.83 713.04 83.41 774.278 -18.3836C835.516 -120.177 842.865 -115.685 854.826 -144.625M19.7786 1769.63C19.7786 1769.63 343.15 1444.16 224.149 1247.19C102.806 1046.39 31.139 1141.66 154.23 1040.7C316.971 907.416 164.574 764.669 165.261 692.874C166.953 511.4 713.963 923.953 812.672 875.153C912.82 825.695 826.046 492.549 781.51 367.135C741.461 254.469 721.86 92.036 783.134 -9.9144C844.408 -111.865 845.83 -113.849 857.755 -142.632M20.3542 1769.93C20.3542 1769.93 337.955 1449.24 216.478 1258.14C91.3359 1061.25 35.5789 1148.29 164.847 1044.29C331.729 909.814 175.613 768.524 174.85 691.115C173.381 510.07 709.141 903.537 807.454 859.268C907.928 814.01 833.143 503.75 787.597 371.503C748.727 258.612 730.487 100.783 791.761 -1.16768C853.035 -103.118 848.567 -111.735 860.375 -140.71M20.8909 1770.38C20.8909 1770.38 332.531 1454.59 208.733 1269.4C79.7914 1076.42 40.0611 1155.43 175.235 1048.16C346.107 912.453 186.236 772.776 184.364 689.667C180.266 508.844 704.397 883.469 802.197 843.538C903.032 802.323 840.084 514.914 793.681 375.869C755.874 262.562 739.265 109.563 800.539 7.61239C861.813 -94.338 851.49 -109.745 863.262 -138.563M21.4735 1770.68C21.4735 1770.68 327.307 1459.83 201.223 1280.38C68.4459 1091.48 44.7782 1162.29 186.012 1051.79C361.061 914.732 197.436 776.669 194.266 687.98C187.538 507.379 700.041 863.161 797.365 827.412C898.561 790.241 847.567 525.875 800.19 379.84C763.256 266.238 748.467 117.947 809.552 16.1185C870.636 -85.7102 854.27 -107.785 866.232 -136.725M22.0104 1771.14C22.0104 1771.14 321.884 1465.19 193.477 1291.64C56.7484 1106.61 49.1433 1169.23 196.4 1055.66C375.439 917.372 208.365 780.993 203.627 686.499C194.612 506.032 695.143 843.059 791.955 811.648C893.629 778.712 854.355 537.005 805.968 384.137C770.061 270.276 756.75 126.78 818.023 24.8297C879.297 -77.1207 857.041 -105.829 868.966 -134.612M22.5508 1771.59C22.5508 1771.59 316.311 1470.51 185.772 1302.75C44.9014 1121.72 53.6652 1176.21 206.829 1059.38C390.045 919.736 219.37 785.005 213.181 684.897C201.996 504.757 690.592 822.872 786.738 795.763C888.773 766.871 861.336 548.015 812.128 388.193C777.095 274.037 765.603 135.249 826.724 33.2637C887.844 -68.7218 859.851 -104.028 871.776 -132.811M23.1269 1771.89C23.1269 1771.89 310.738 1475.83 178.066 1313.85C33.2073 1136.85 58.0697 1182.99 217.446 1062.97C404.651 922.096 230.563 788.892 222.77 683.135C209.604 503.201 685.923 802.489 781.44 779.527C883.953 754.87 868.01 558.951 818.135 392.21C783.975 277.759 774.15 143.645 835.424 41.6947C896.698 -60.2557 862.66 -102.23 874.432 -131.049M23.666 1772.34C23.666 1772.34 305.128 1481.31 170.359 1324.95C21.3229 1152.12 62.4731 1189.78 227.872 1066.68C419.102 924.423 241.719 792.939 232.286 681.689C217.14 501.96 681.298 782.614 776.186 763.798C879.141 743.534 874.882 570.43 824.222 396.577C790.746 281.954 782.93 152.427 844.168 50.6332C905.406 -51.1604 865.514 -99.9248 877.286 -128.743M24.2474 1772.64C24.2474 1772.64 299.56 1486.63 162.694 1335.9C9.32794 1167.19 66.8829 1196.57 238.495 1070.27C433.75 926.631 253.071 796.865 242.034 679.966C225.059 500.478 676.941 762.306 771.163 747.793C874.749 731.8 881.868 581.442 830.504 400.826C797.901 285.908 791.87 161.246 853.143 59.2955C914.417 -42.6549 868.446 -97.9307 880.407 -126.871M24.7836 1773.09C24.7836 1773.09 293.794 1492.08 155.101 1347.19C-2.44228 1182.64 71.4003 1203.55 249.036 1074.18C448.315 929.149 264.341 801.102 251.548 678.519C232.898 499.307 672.466 742.465 765.941 731.907C870.006 720.149 888.619 592.728 836.624 405.035C804.705 289.944 800.53 169.834 861.803 67.8841C923.077 -34.0663 871.215 -95.9752 883.177 -124.915M25.3619 1773.39C25.3619 1773.39 288.034 1497.52 147.434 1358.14C-14.4404 1197.71 75.843 1210.18 259.655 1077.77C462.959 931.357 275.843 805.065 261.292 676.797C240.851 497.668 668.034 722.471 760.915 715.902C865.422 708.536 895.449 603.704 842.939 409.127C811.741 293.706 809.538 178.34 870.659 76.3546C931.779 -25.6309 874.144 -93.9809 885.952 -122.956M25.9031 1773.84C25.9031 1773.84 282.201 1503.28 139.693 1369.4C-26.5477 1213.25 80.2126 1217.12 270.048 1081.64C477.413 933.684 287.308 809.181 270.811 675.351C248.847 496.533 663.411 702.596 755.663 700.174C860.729 697.392 902.017 615.113 848.875 413.46C818.514 297.901 818.014 187.052 879.252 85.258C940.49 -16.5356 876.919 -92.0242 888.844 -120.807M26.4429 1774.3C26.4429 1774.3 276.367 1509.04 131.987 1380.51C-38.6563 1228.78 84.6167 1223.91 280.629 1085.39C491.866 936.011 298.807 813.141 280.364 673.748C256.762 495.049 658.94 682.756 750.446 684.288C856.107 685.933 908.619 626.364 854.998 417.671C825.322 301.939 826.795 195.833 887.916 93.8474C949.036 -8.13809 879.692 -90.0678 891.618 -118.851M27.0163 1774.59C27.0163 1774.59 270.566 1514.63 124.278 1391.61C-50.9204 1244.29 89.0184 1230.7 291.054 1089.11C506.316 938.338 310.268 817.257 289.914 672.145C264.827 493.6 654.314 662.881 745.262 668.245C851.329 674.44 915.255 637.46 861.155 421.725C832.01 305.785 835.492 204.266 896.766 102.316C958.04 0.365159 882.463 -88.1112 894.424 -117.051M27.5576 1775.05C27.5576 1775.05 264.58 1520.36 116.573 1402.71C-63.1807 1259.79 93.4599 1237.33 301.636 1092.85C520.769 940.665 321.958 821.094 299.469 670.541C272.742 492.115 649.808 643.197 740.046 652.359C846.636 663.295 921.705 648.676 867.28 425.935C838.855 309.666 844.31 212.89 905.584 110.94C966.858 8.9895 885.391 -86.12 897.316 -114.903M28.1351 1775.35C28.1351 1775.35 258.747 1526.11 108.868 1413.82C-75.3596 1275.64 97.7127 1244.08 312.102 1096.41C535.296 942.68 333.648 824.934 309.06 668.783C281.001 490.546 645.303 623.515 734.983 636.51C841.98 651.995 928.273 660.086 873.522 430.339C845.782 313.897 853.093 221.673 914.331 119.879C975.568 18.0859 888.283 -83.9702 900.208 -112.753M28.6761 1775.8C28.6761 1775.8 252.689 1532.15 101.316 1424.95C-87.503 1291.34 102.037 1250.52 322.836 1100.2C549.632 944.816 345.454 828.965 318.731 667.373C289.222 489.133 640.644 603.798 729.803 620.469C837.169 640.66 934.759 671.148 879.683 434.395C852.474 317.744 861.911 230.299 923.184 128.349C984.458 26.3987 891.093 -82.1688 902.866 -110.987M29.2125 1776.25C29.2125 1776.25 246.779 1538.22 93.5708 1436.21C-99.9121 1307.47 106.402 1257.46 333.225 1104.07C564.081 947.142 357.256 832.993 328.245 665.925C297.286 487.682 635.945 584.235 724.546 604.738C832.247 629.791 941.133 682.676 885.767 438.761C859.242 321.937 870.535 239.044 931.809 137.093C993.083 35.1431 893.863 -80.2143 905.789 -108.998M29.7889 1776.55C29.7889 1776.55 240.756 1544.1 85.9011 1447.16C-112.245 1323.29 110.842 1264.09 343.689 1107.62C578.687 949.505 369.251 836.903 337.834 664.166C305.426 485.921 631.321 564.361 719.365 588.697C827.436 618.456 946.935 693.911 891.927 442.816C865.745 325.906 879.388 247.513 940.662 145.563C1001.94 43.6125 896.79 -78.2213 908.563 -107.04M30.3321 1777.01C30.3321 1777.01 234.854 1550.17 78.1623 1458.42C-124.647 1339.42 115.178 1271.19 354.237 1111.53C593.296 951.868 381.096 840.777 347.355 662.721C313.614 484.665 626.629 544.801 714.151 572.813C822.556 607.434 953.729 705.042 897.901 446.993C872.592 329.788 888.02 256.261 949.14 154.275C1010.26 52.2897 899.567 -76.2637 911.492 -105.047" stroke="url(#paint1_linear_7512_2418)" stroke-miterlimit="10"/>
</g>
</g>
<defs>
<linearGradient id="paint0_linear_7512_2418" x1="1093.28" y1="-286.345" x2="292" y2="1278" gradientUnits="userSpaceOnUse">
<stop stop-color="#EEFEFF"/>
<stop offset="1" stop-color="#6296FE"/>
</linearGradient>
<linearGradient id="paint1_linear_7512_2418" x1="889.5" y1="33.5" x2="229" y2="996" gradientUnits="userSpaceOnUse">
<stop stop-color="#EEFEFF" stop-opacity="0"/>
<stop offset="1" stop-color="#00C186"/>
</linearGradient>
<clipPath id="clip0_7512_2418">
<rect width="1611" height="2036" fill="white"/>
</clipPath>
</defs>
</svg>
