<svg width="2322" height="1179" viewBox="0 0 2322 1179" fill="none" xmlns="http://www.w3.org/2000/svg">
<g opacity="0.5">
<path d="M2321.67 115.038C2321.67 115.038 1896.87 67.9256 1791.61 309.824C1686.35 551.722 1908.12 792.31 1750.79 755.542C1532.5 704.506 1213.14 789.79 1158.36 827.741C994.179 941.585 962.441 872.361 845.104 821.327C727.767 770.293 417.021 330.58 348.096 443.458C279.17 556.337 472.331 1164.27 342.118 1177.5C211.904 1190.72 122.218 639.782 89.0325 648.422M2321.55 112.397C2321.55 112.397 1900.04 60.0015 1801.59 300.163C1702.19 542.668 1914.58 786.705 1750.37 746.55C1528.23 692.866 1216.21 772.323 1157.23 815.069C995.679 932.148 962.018 863.369 844.68 812.335C727.343 761.301 430.9 332.404 356.756 450.834C286.554 562.888 471.908 1155.28 341.694 1168.5C211.481 1181.73 122.044 636.082 88.8589 644.722M2321.42 109.58C2321.42 109.58 1903.19 51.9022 1811.56 290.504C1718.21 533.784 1921.01 780.749 1749.94 737.559C1523.94 680.521 1219.1 754.865 1156.1 802.398C996.985 922.368 961.593 854.378 844.256 803.344C726.918 752.31 444.786 334.406 365.414 458.21C294.112 569.433 471.483 1146.29 341.27 1159.51C211.056 1172.74 121.861 632.207 88.676 640.847M2321.28 106.749C2321.28 106.749 1906.34 43.7879 1821.53 280.653C1734.23 524.708 1927.45 774.779 1749.51 728.377C1519.66 668.515 1222.15 737.208 1154.96 789.536C997.912 912.06 961.159 845.195 843.821 794.161C726.484 743.128 458.838 336.208 374.072 465.572C301.854 576.13 471.048 1137.11 340.835 1150.33C210.622 1163.56 121.677 628.317 88.4916 636.957M2321.16 104.105C2321.16 104.105 1909.69 36.0296 1831.5 270.99C1750.25 515.82 1933.9 768.995 1749.08 719.382C1515.39 656.697 1225.03 719.571 1154.01 776.854C999.008 901.579 960.734 836.201 843.396 785.167C726.059 734.133 472.892 338.022 382.907 472.936C309.597 582.84 470.624 1128.11 340.41 1141.34C210.197 1154.56 121.494 624.438 88.3086 633.079M2321.02 101.282C2321.02 101.282 1912.84 27.9234 1841.48 261.324C1766.28 507.105 1940.16 763.217 1748.66 710.384C1511.11 644.875 1228.09 701.921 1152.88 764.176C999.751 891.112 960.308 827.203 842.971 776.169C725.633 725.135 486.953 340.009 391.565 480.306C317.34 589.545 470.198 1119.11 339.985 1132.34C209.771 1145.56 121.318 620.733 88.133 629.373M2320.89 98.4592C2320.89 98.4592 1916.36 19.9776 1851.45 251.482C1782.3 498.215 1946.6 757.255 1748.23 701.21C1506.84 632.877 1230.95 683.928 1151.74 751.322C1000.47 880.115 959.875 818.029 842.538 766.995C725.201 715.961 501.008 341.82 400.215 487.5C325.075 596.075 469.765 1109.94 339.552 1123.16C209.338 1136.39 121.127 616.675 87.9421 625.316M2320.76 95.637C2320.76 95.637 1919.7 12.2172 1861.41 241.641C1798.5 489.317 1953.05 751.47 1747.79 692.037C1502.56 620.88 1233.64 665.944 1150.61 738.469C1001 868.952 959.442 808.856 842.105 757.822C724.767 706.788 515.07 343.808 408.874 494.871C332.995 602.774 469.332 1100.77 339.118 1113.99C208.905 1127.22 120.944 612.794 87.7588 621.435M2320.63 92.9907C2320.63 92.9907 1923.22 4.44783 1871.4 232.151C1814.72 480.771 1959.51 746.037 1747.37 683.216C1498.12 609.42 1236.52 648.304 1149.48 725.969C1001.37 858.149 959.023 800.035 841.686 749.001C724.349 697.967 529.306 345.787 417.53 502.241C340.912 609.472 468.905 1091.77 338.692 1104.99C208.478 1118.22 120.759 608.913 87.5737 617.554M2320.5 90.1661C2320.5 90.1661 1926.92 -3.33173 1881.36 222.308C1831.1 471.862 1965.77 740.081 1746.94 674.041C1493.85 597.597 1239.2 630.317 1148.35 713.114C1001.73 846.991 958.591 790.859 841.254 739.826C723.916 688.792 543.545 347.765 426.19 509.609C348.665 616.352 468.481 1082.77 338.268 1096C208.054 1109.22 120.585 605.206 87.3997 613.847M2320.37 87.3434C2320.37 87.3434 1930.45 -11.101 1891.33 212.466C1847.48 463.131 1972.21 734.296 1746.51 664.867C1489.57 585.599 1241.88 612.156 1147.21 700.26C1002.07 835.482 958.158 781.686 840.82 730.652C723.483 679.618 557.969 349.912 434.848 516.98C356.592 623.227 468.056 1073.77 337.843 1087C207.629 1100.22 120.402 601.325 87.2165 609.966M2320.24 84.6974C2320.24 84.6974 1934.33 -18.7103 1901.49 202.969C1864.23 454.56 1978.68 728.863 1746.08 655.87C1485.13 573.963 1244.57 594.172 1146.26 687.752C1002.44 824.503 957.732 772.689 840.395 721.655C723.058 670.621 572.207 351.892 443.675 524.166C364.688 629.917 467.614 1064.42 337.401 1077.65C207.187 1090.87 120.218 597.444 87.033 606.085M2320.11 81.8719C2320.11 81.8719 1938.03 -26.4908 1911.46 193.124C1880.79 445.818 1985.13 723.251 1745.65 646.694C1480.87 562.315 1247.07 576.016 1145.13 674.896C1002.6 813 957.299 763.513 839.962 712.479C722.625 661.445 586.63 354.036 452.333 531.533C372.784 636.604 467.189 1055.42 336.976 1068.65C206.762 1081.87 120.027 593.384 86.8416 602.025M2319.97 79.0553C2319.97 79.0553 1941.91 -34.2706 1921.42 183.288C1897.35 437.085 1991.4 717.48 1745.22 637.526C1476.41 550.332 1249.56 557.693 1143.99 662.049C1002.77 801.505 956.866 754.345 839.528 703.311C722.191 652.277 601.053 356.189 460.991 538.91C380.72 643.661 466.764 1046.43 336.55 1059.66C206.337 1072.88 119.852 589.685 86.6663 598.326M2319.84 76.2347C2319.84 76.2347 1945.96 -42.0628 1931.4 173.625C1914.09 428.517 1997.85 711.873 1744.79 628.531C1472.15 538.69 1252.06 539.542 1142.86 649.374C1002.94 790.184 956.442 745.35 839.104 694.316C721.767 643.282 615.477 358.339 469.643 546.106C388.64 650.361 466.331 1037.26 336.118 1050.49C205.905 1063.71 119.661 585.63 86.4757 594.27M2319.72 73.5843C2319.72 73.5843 1950.02 -49.6848 1941.37 163.955C1931.01 419.933 2004.13 706.267 1744.37 619.53C1467.72 527.225 1254.38 521.217 1141.73 636.693C1002.93 778.864 956.015 736.349 838.678 685.315C721.34 634.281 630.083 360.65 478.308 553.648C396.751 657.399 465.905 1028.26 335.691 1041.48C205.478 1054.71 119.485 581.921 86.2993 590.562M2319.58 70.7609C2319.58 70.7609 1954.07 -57.4798 1951.34 154.112C1947.93 411.177 2010.58 700.657 1743.93 610.356C1463.27 515.412 1256.87 502.888 1140.59 623.839C1002.91 767.195 955.582 727.174 838.245 676.141C720.908 625.107 644.507 362.797 486.959 560.842C404.848 664.088 465.472 1019.08 335.259 1032.31C205.045 1045.54 119.302 578.039 86.1167 586.68M2319.45 67.9393C2319.45 67.9393 1958.3 -65.2814 1961.31 144.448C1965.02 402.414 2016.86 695.058 1743.51 601.36C1459.01 503.768 1259.19 484.568 1139.46 611.163C1002.9 755.704 955.156 718.178 837.819 667.144C720.482 616.11 659.114 365.113 495.616 568.213C412.775 670.964 465.046 1010.09 334.833 1023.31C204.619 1036.54 119.118 574.159 85.9323 582.799M2319.32 65.2938C2319.32 65.2938 1962.54 -72.9068 1971.29 134.783C1982.12 393.827 2022.99 689.995 1743.08 592.363C1454.42 492.67 1261.33 466.256 1138.51 598.478C1002.9 744.389 954.732 709.182 837.394 658.148C720.057 607.114 673.731 367.606 504.451 575.576C421.064 677.999 464.622 1001.09 334.408 1014.32C204.195 1027.54 118.935 570.279 85.7496 578.919M2319.19 62.4671C2319.19 62.4671 1966.93 -80.8983 1981.26 124.937C1999.37 384.874 2029.43 684.205 1742.65 583.186C1450.14 480.845 1263.45 447.587 1137.37 585.621C1002.88 732.717 954.298 700.004 836.961 648.97C719.624 597.936 688.515 369.909 513.11 582.942C429.168 684.861 464.188 991.914 333.975 1005.14C203.761 1018.37 118.752 566.393 85.5663 575.034M2319.06 59.6513C2319.06 59.6513 1971.34 -88.7023 1991.23 115.279C2016.82 376.1 2035.71 678.611 1742.22 574.195C1445.7 469.039 1265.59 429.281 1136.24 572.951C1002.69 721.24 953.872 691.014 836.535 639.98C719.198 588.946 703.676 372.735 521.767 590.32C437.465 692.079 463.762 982.924 333.549 996.15C203.335 1009.38 118.567 562.519 85.3822 571.16M2318.92 56.8247C2318.92 56.8247 1975.73 -96.6936 2001.2 105.433C2034.25 367.139 2042.15 672.822 1741.79 565.018C1441.42 457.214 1267.72 410.612 1135.1 560.094C1002.49 709.576 953.437 681.836 836.1 630.802C718.763 579.769 717.913 374.711 530.416 597.51C445.206 698.781 463.327 973.746 333.114 986.972C202.9 1000.2 118.383 558.634 85.1973 567.275" stroke="#6296FE" stroke-miterlimit="10"/>
<path d="M2.62814 616.074C2.62814 616.074 456.436 752.176 586.274 553.035C716.113 353.894 568.92 315.281 704.793 368.563C893.186 442.455 953.142 246.361 1007.86 220.274C1171.99 141.861 1044.77 855.772 1142.62 916.39C1240.48 977.007 1521.47 699.592 1599.95 609.331C1678.43 519.069 1819.41 417.69 1938.22 423.371C2057.03 429.053 2053.35 446.025 2084.5 442.853M2.63939 616.724C2.63939 616.724 449.503 750.007 573.001 551.466C697.635 350.984 565.226 322.485 706.657 379.617C898.178 456.397 954.893 257.609 1013.96 227.888C1176.04 146.289 1060.5 842.01 1154.14 904.273C1248.56 966.972 1515.32 711.216 1599.14 616.72C1678.53 527.349 1815.95 429.39 1934.6 435.114C2053.26 440.838 2052.78 449.438 2083.94 446.267M2.49572 617.417C2.49572 617.417 442.302 748.077 559.418 549.983C678.805 348.008 560.952 330.011 708.17 390.605C902.633 470.813 956.179 268.985 1019.74 235.588C1180.37 151.13 1076.09 828.291 1165.82 892.115C1256.81 956.895 1509.12 722.689 1598.49 624.068C1678.75 535.436 1812.53 441.243 1931.34 446.925C2050.15 452.606 2052.57 452.92 2083.57 449.791M2.50667 618.065C2.50667 618.065 435.368 745.906 546.144 548.411C660.285 344.944 557.215 337.062 710.035 401.657C907.511 484.947 958.013 280.534 1025.83 243.2C1184.58 156.162 1091.78 814.374 1177.34 879.996C1264.78 947.052 1502.62 734.245 1597.52 631.498C1678.54 543.798 1808.91 452.984 1927.72 458.666C2046.53 464.347 2052 456.331 2083.12 453.008M2.36269 618.752C2.36269 618.752 428.083 743.666 532.56 546.922C641.455 341.962 553.055 344.388 711.547 412.639C911.996 498.86 959.298 291.904 1031.61 250.894C1188.93 161.645 1107.21 800.691 1188.7 867.916C1272.76 937.205 1496.07 745.646 1596.56 638.925C1678.45 551.963 1805.33 464.874 1924.14 470.555C2042.96 476.237 2051.64 459.848 2082.59 456.568M2.37448 619.407C2.37448 619.407 420.996 741.545 519.329 545.509C622.822 339.1 549.247 351.792 713.454 423.85C917.072 513.11 961.175 303.611 1037.78 258.816C1193.66 167.356 1123.03 787.237 1200.61 856.023C1281.28 927.545 1489.96 757.427 1596.14 646.537C1678.71 560.206 1802.31 476.949 1920.92 482.521C2039.54 488.094 2051.23 463.225 2082.38 460.053M2.22928 620.095C2.22928 620.095 413.709 739.306 505.744 544.021C603.949 335.967 545.199 358.925 714.965 434.832C921.555 527.023 962.542 315.285 1043.52 266.359C1198.2 172.949 1138.42 773.403 1211.94 843.792C1289.1 917.741 1483.38 768.677 1595.1 653.662C1678.37 568.111 1798.45 488.427 1917.26 494.108C2036.07 499.79 2050.82 466.591 2081.81 463.463M2.08455 620.786C2.08455 620.786 406.382 736.918 492.314 542.493C585.035 332.687 541.194 366.213 716.633 445.776C926.391 541.007 964.22 326.877 1049.46 274.014C1202.82 178.848 1154.04 759.834 1223.46 831.674C1297.23 907.857 1476.99 780.04 1594.44 661.008C1678.39 576.087 1795.18 500.235 1913.95 505.766C2032.72 511.296 2050.56 469.919 2081.56 466.79M2.09744 621.433C2.09744 621.433 399.057 734.53 478.888 540.964C566.166 329.556 537.304 373.305 718.499 456.827C931.23 554.988 966.098 338.577 1055.55 281.626C1207.79 184.812 1169.78 746.068 1235.25 819.318C1305.51 897.928 1470.52 791.098 1593.75 668.201C1678.37 583.91 1791.84 511.739 1910.65 517.421C2029.46 523.102 2050.31 473.245 2081.26 469.965M1.95316 622.123C1.95316 622.123 391.576 732.183 465.459 539.434C547.097 326.317 533.412 380.398 720.166 467.769C936.025 568.819 967.818 350.319 1061.33 289.322C1212.45 190.861 1185.1 732.582 1246.61 807.241C1313.22 888.32 1463.66 802.586 1592.79 675.63C1677.88 591.86 1788.26 523.631 1906.92 529.355C2025.57 535.08 2049.63 476.85 2080.59 473.57M1.965 622.777C1.965 622.777 384.25 729.801 452.186 537.869C528.143 322.89 529.521 387.497 722.032 478.827C941.017 582.765 969.736 362.177 1067.47 297.092C1217.51 197.135 1200.92 719.126 1258.33 795.238C1321.47 878.895 1457.27 813.954 1592.02 683.175C1677.79 600.035 1784.73 535.682 1903.54 541.363C2022.35 547.045 2049.26 480.377 2080.41 477.206M1.82034 623.463C1.82034 623.463 376.726 727.3 438.643 536.531C508.96 319.841 525.515 394.78 723.585 489.96C945.698 596.786 971.342 374.109 1073.25 304.785C1222.25 203.483 1216.28 705.789 1269.85 783.115C1329.49 869.2 1450.53 825.246 1591.21 690.559C1677.46 607.939 1781.26 547.376 1900.08 553.058C2018.89 558.739 2048.85 483.742 2080 480.571M1.83037 624.114C1.83037 624.114 369.202 724.806 425.368 534.963C490.005 316.411 521.778 401.834 725.448 501.015C950.689 610.729 973.3 386.116 1079.38 312.552C1227.46 209.712 1231.79 692.415 1281.56 771.109C1337.54 859.663 1444.1 836.459 1590.6 698.059C1677.48 615.917 1778.04 559.339 1896.81 564.869C2015.58 570.399 2048.48 487.267 2079.59 483.944M1.68704 624.806C1.68704 624.806 361.369 722.395 411.785 533.478C470.585 313.107 517.732 408.971 726.962 512.002C955.485 624.561 975.104 398.163 1085.16 320.25C1232.25 216.217 1247.1 678.931 1292.93 759.034C1345.14 850.252 1437.16 847.647 1589.59 705.339C1676.99 623.869 1774.38 570.93 1893.04 576.654C2011.69 582.378 2048.07 490.637 2079.07 487.508M1.54322 625.496C1.54322 625.496 353.535 719.983 398.357 531.949C451.165 309.802 513.841 416.064 728.671 523.096C960.28 638.392 977.063 410.166 1091.1 327.905C1237.3 222.484 1262.46 665.597 1304.45 746.915C1353.04 840.754 1430.37 858.791 1588.78 712.726C1676.66 631.778 1770.81 582.822 1889.58 588.352C2008.35 593.882 2047.66 494.006 2078.66 490.877M1.55321 626.142C1.55321 626.142 345.856 717.526 384.927 530.418C431.703 306.343 509.948 423.155 730.338 534.037C965.074 652.221 978.865 422.209 1097.03 335.557C1242.4 228.901 1277.77 652.109 1316.12 734.751C1360.9 831.102 1423.75 869.89 1588.13 720.069C1676.44 639.49 1767.5 594.476 1886.31 600.158C2005.12 605.839 2047.25 497.373 2078.4 494.202M1.41047 626.833C1.41047 626.833 337.982 714.964 371.499 528.891C412.242 302.887 506.213 430.207 732.049 545.132C969.87 666.053 981.022 434.323 1102.97 343.213C1247.46 235.17 1292.97 638.819 1327.64 722.633C1368.49 821.691 1416.92 880.883 1587.32 727.457C1676.26 647.356 1764.08 606.327 1882.89 612.009C2001.7 617.69 2046.88 500.895 2077.88 497.766M1.42129 627.483C1.42129 627.483 330.149 712.554 358.07 527.364C392.511 299.669 502.279 437.151 733.871 556.034C974.975 679.801 983.177 446.437 1109.06 350.827C1252.75 241.7 1308.18 625.529 1339.2 710.668C1376.24 812.238 1409.98 892.072 1586.4 735.041C1675.82 655.461 1760.5 618.222 1879.16 623.946C1997.82 629.67 2046.36 504.46 2077.36 501.331M1.27682 628.175C1.27682 628.175 321.963 710.077 344.683 525.989C372.936 296.408 498.656 444.009 735.622 567.282C979.883 693.439 985.218 458.744 1114.88 358.677C1257.89 248.272 1323.33 612.088 1350.88 698.509C1383.95 802.633 1403.31 903.023 1585.74 742.387C1675.6 663.177 1757.08 630.074 1875.89 635.755C1994.7 641.437 2046.11 507.789 2077.06 504.508M1.13277 628.862C1.13277 628.862 313.819 707.746 331.099 524.499C352.854 293.117 494.609 451.141 737.134 578.263C984.679 707.266 987.26 471.046 1120.66 366.37C1262.98 254.687 1338.34 598.684 1362.24 686.428C1391.19 793.15 1396.18 914.097 1584.78 749.814C1675.11 671.124 1753.46 641.811 1872.28 647.492C1991.09 653.174 2045.7 511.154 2076.69 508.025M1.14324 629.51C1.14324 629.51 305.788 705.226 317.825 522.929C333.081 289.746 490.872 458.193 738.957 589.165C989.515 721.25 989.497 483.463 1126.75 373.983C1268.39 261.022 1353.65 585.199 1373.92 674.268C1398.89 783.544 1389.03 924.527 1584.13 757.16C1674.69 678.73 1750.2 653.619 1869.01 659.301C1987.82 664.983 2045.33 514.676 2076.28 511.395M1 630.204C1 630.204 297.646 702.902 304.242 521.446C313 286.463 486.671 465.374 740.512 600.305C994.352 735.236 991.695 495.73 1132.54 381.684C1273.38 267.638 1368.66 571.802 1385.44 662.153C1406.29 774.026 1382.44 935.783 1583.28 764.399C1674.52 686.599 1746.58 665.364 1865.35 670.894C1984.12 676.424 2044.92 518.048 2075.92 514.919" stroke="#00C186" stroke-miterlimit="10"/>
</g>
</svg>
