<svg width="1920" height="1179" viewBox="0 0 1920 1179" fill="none" xmlns="http://www.w3.org/2000/svg">
<g opacity="0.5">
<path d="M2120.67 115.038C2120.67 115.038 1695.87 67.9256 1590.61 309.824C1485.35 551.722 1707.12 792.31 1549.79 755.542C1331.5 704.506 1012.14 789.79 957.359 827.741C793.179 941.585 761.441 872.361 644.104 821.327C526.767 770.293 216.021 330.58 147.096 443.458C78.1704 556.337 271.331 1164.27 141.118 1177.5C10.9044 1190.72 -78.7822 639.782 -111.968 648.422M2120.55 112.397C2120.55 112.397 1699.04 60.0015 1600.59 300.163C1501.19 542.668 1713.58 786.705 1549.37 746.55C1327.23 692.866 1015.21 772.323 956.231 815.069C794.679 932.148 761.018 863.369 643.68 812.335C526.343 761.301 229.9 332.404 155.756 450.834C85.5536 562.888 270.908 1155.28 140.694 1168.5C10.4808 1181.73 -78.9558 636.082 -112.141 644.722M2120.42 109.58C2120.42 109.58 1702.19 51.9022 1610.56 290.504C1517.21 533.784 1720.01 780.749 1548.94 737.559C1322.94 680.521 1018.1 754.865 955.102 802.398C795.985 922.368 760.593 854.378 643.256 803.344C525.918 752.31 243.786 334.406 164.414 458.21C93.1123 569.433 270.483 1146.29 140.27 1159.51C10.0561 1172.74 -79.1386 632.207 -112.324 640.847M2120.28 106.749C2120.28 106.749 1705.34 43.7879 1620.53 280.653C1533.23 524.708 1726.45 774.779 1548.51 728.377C1318.66 668.515 1021.15 737.208 953.963 789.536C796.912 912.06 760.159 845.195 642.821 794.161C525.484 743.128 257.838 336.208 173.072 465.572C100.854 576.13 270.048 1137.11 139.835 1150.33C9.62157 1163.56 -79.3231 628.317 -112.508 636.957M2120.16 104.105C2120.16 104.105 1708.69 36.0296 1630.5 270.99C1549.25 515.82 1732.9 768.995 1548.08 719.382C1314.39 656.697 1024.03 719.571 953.01 776.854C798.008 901.579 759.734 836.201 642.396 785.167C525.059 734.133 271.892 338.022 181.907 472.936C108.597 582.84 269.624 1128.11 139.41 1141.34C9.19679 1154.56 -79.5061 624.438 -112.691 633.079M2120.02 101.282C2120.02 101.282 1711.84 27.9234 1640.48 261.324C1565.28 507.105 1739.16 763.217 1547.66 710.384C1310.11 644.875 1027.09 701.921 951.88 764.176C798.751 891.112 759.308 827.203 641.971 776.169C524.633 725.135 285.953 340.009 190.565 480.306C116.34 589.545 269.198 1119.11 138.985 1132.34C8.77116 1145.56 -79.6816 620.733 -112.867 629.373M2119.89 98.4592C2119.89 98.4592 1715.36 19.9776 1650.45 251.482C1581.3 498.215 1745.6 757.255 1547.23 701.21C1305.84 632.877 1029.95 683.928 950.743 751.322C799.47 880.115 758.875 818.029 641.538 766.995C524.201 715.961 300.008 341.82 199.215 487.5C124.075 596.075 268.765 1109.94 138.552 1123.16C8.33846 1136.39 -79.8726 616.675 -113.058 625.316M2119.76 95.637C2119.76 95.637 1718.7 12.2172 1660.41 241.641C1597.5 489.317 1752.05 751.47 1546.79 692.037C1301.56 620.88 1032.64 665.944 949.605 738.469C800.003 868.952 758.442 808.856 641.105 757.822C523.767 706.788 314.07 343.808 207.874 494.871C131.995 602.774 268.332 1100.77 138.118 1113.99C7.90501 1127.22 -80.0559 612.794 -113.241 621.435M2119.63 92.9907C2119.63 92.9907 1722.22 4.44783 1670.4 232.151C1613.72 480.771 1758.51 746.037 1546.37 683.216C1297.12 609.42 1035.52 648.304 948.483 725.969C800.375 858.149 758.023 800.035 640.686 749.001C523.349 697.967 328.306 345.787 216.53 502.241C139.912 609.472 267.905 1091.77 137.692 1104.99C7.47815 1118.22 -80.241 608.913 -113.426 617.554M2119.5 90.1661C2119.5 90.1661 1725.92 -3.33173 1680.36 222.308C1630.1 471.862 1764.77 740.081 1545.94 674.041C1292.85 597.597 1038.2 630.317 947.346 713.114C800.733 846.991 757.591 790.859 640.254 739.826C522.916 688.792 342.545 347.765 225.19 509.609C147.665 616.352 267.481 1082.77 137.268 1096C7.05412 1109.22 -80.4149 605.206 -113.6 613.847M2119.37 87.3434C2119.37 87.3434 1729.45 -11.101 1690.33 212.466C1646.48 463.131 1771.21 734.296 1545.51 664.867C1288.57 585.599 1040.88 612.156 946.208 700.26C801.073 835.482 757.158 781.686 639.82 730.652C522.483 679.618 356.969 349.912 233.848 516.98C155.592 623.227 267.056 1073.77 136.843 1087C6.62914 1100.22 -80.5982 601.325 -113.783 609.966M2119.24 84.6974C2119.24 84.6974 1733.33 -18.7103 1700.49 202.969C1663.23 454.56 1777.68 728.863 1545.08 655.87C1284.13 573.963 1043.57 594.172 945.263 687.752C801.438 824.503 756.732 772.689 639.395 721.655C522.058 670.621 371.207 351.892 242.675 524.166C163.688 629.917 266.614 1064.42 136.401 1077.65C6.18715 1090.87 -80.7817 597.444 -113.967 606.085M2119.11 81.8719C2119.11 81.8719 1737.03 -26.4908 1710.46 193.124C1679.79 445.818 1784.13 723.251 1544.65 646.694C1279.87 562.315 1046.07 576.016 944.126 674.896C801.602 813 756.299 763.513 638.962 712.479C521.625 661.445 385.63 354.036 251.333 531.533C171.784 636.604 266.189 1055.42 135.976 1068.65C5.76231 1081.87 -80.9731 593.384 -114.158 602.025M2118.97 79.0553C2118.97 79.0553 1740.91 -34.2706 1720.42 183.288C1696.35 437.085 1790.4 717.48 1544.22 637.526C1275.41 550.332 1048.56 557.693 942.988 662.049C801.766 801.505 755.866 754.345 638.528 703.311C521.191 652.277 400.053 356.189 259.991 538.91C179.72 643.661 265.764 1046.43 135.55 1059.66C5.33696 1072.88 -81.1484 589.685 -114.334 598.326M2118.84 76.2347C2118.84 76.2347 1744.96 -42.0628 1730.4 173.625C1713.09 428.517 1796.85 711.873 1543.79 628.531C1271.15 538.69 1051.06 539.542 941.859 649.374C801.939 790.184 755.442 745.35 638.104 694.316C520.767 643.282 414.477 358.339 268.643 546.106C187.64 650.361 265.331 1037.26 135.118 1050.49C4.90463 1063.71 -81.3389 585.63 -114.524 594.27M2118.72 73.5843C2118.72 73.5843 1749.02 -49.6848 1740.37 163.955C1730.01 419.933 1803.13 706.267 1543.37 619.53C1266.72 527.225 1053.38 521.217 940.729 636.693C801.934 778.864 755.015 736.349 637.678 685.315C520.34 634.281 429.083 360.65 277.308 553.648C195.751 657.399 264.905 1028.26 134.691 1041.48C4.47806 1054.71 -81.5154 581.921 -114.701 590.562M2118.58 70.7609C2118.58 70.7609 1753.07 -57.4798 1750.34 154.112C1746.93 411.177 1809.58 700.657 1542.93 610.356C1262.27 515.412 1055.87 502.888 939.592 623.839C801.913 767.195 754.582 727.174 637.245 676.141C519.908 625.107 443.507 362.797 285.959 560.842C203.848 664.088 264.472 1019.08 134.259 1032.31C4.04543 1045.54 -81.6979 578.039 -114.883 586.68M2118.45 67.9393C2118.45 67.9393 1757.3 -65.2814 1760.31 144.448C1764.02 402.414 1815.86 695.058 1542.51 601.36C1258.01 503.768 1058.19 484.568 938.461 611.163C801.9 755.704 754.156 718.178 636.819 667.144C519.482 616.11 458.114 365.113 294.616 568.213C211.775 670.964 264.046 1010.09 133.833 1023.31C3.61926 1036.54 -81.8823 574.159 -115.068 582.799M2118.32 65.2938C2118.32 65.2938 1761.54 -72.9068 1770.29 134.783C1781.12 393.827 1821.99 689.995 1542.08 592.363C1253.42 492.67 1060.33 466.256 937.509 598.478C801.896 744.389 753.732 709.182 636.394 658.148C519.057 607.114 472.731 367.606 303.451 575.576C220.064 677.999 263.622 1001.09 133.408 1014.32C3.19472 1027.54 -82.0651 570.279 -115.25 578.919M2118.19 62.4671C2118.19 62.4671 1765.93 -80.8983 1780.26 124.937C1798.37 384.874 1828.43 684.205 1541.65 583.186C1249.14 480.845 1062.45 447.587 936.371 585.621C801.875 732.717 753.298 700.004 635.961 648.97C518.624 597.936 487.515 369.909 312.11 582.942C228.168 684.861 263.188 991.914 132.975 1005.14C2.76137 1018.37 -82.2484 566.393 -115.434 575.034M2118.06 59.6513C2118.06 59.6513 1770.34 -88.7023 1790.23 115.279C1815.82 376.1 1834.71 678.611 1541.22 574.195C1244.7 469.039 1064.59 429.281 935.241 572.951C801.686 721.24 752.872 691.014 635.535 639.98C518.198 588.946 502.676 372.735 320.767 590.32C236.465 692.079 262.762 982.924 132.549 996.15C2.33543 1009.38 -82.4325 562.519 -115.618 571.16M2117.92 56.8247C2117.92 56.8247 1774.73 -96.6936 1800.2 105.433C1833.25 367.139 1841.15 672.822 1540.79 565.018C1240.42 457.214 1066.72 410.612 934.101 560.094C801.487 709.576 752.437 681.836 635.1 630.802C517.763 579.769 516.913 374.711 329.416 597.51C244.206 698.781 262.327 973.746 132.114 986.972C1.90045 1000.2 -82.6174 558.634 -115.803 567.275" stroke="#6296FE" stroke-miterlimit="10"/>
<path d="M-198.372 616.074C-198.372 616.074 255.436 752.176 385.274 553.035C515.113 353.894 367.92 315.281 503.793 368.563C692.186 442.455 752.142 246.361 806.864 220.274C970.989 141.861 843.765 855.772 941.62 916.39C1039.48 977.007 1320.47 699.592 1398.95 609.331C1477.43 519.069 1618.41 417.69 1737.22 423.371C1856.03 429.053 1852.35 446.025 1883.5 442.853M-198.361 616.724C-198.361 616.724 248.503 750.007 372.001 551.466C496.635 350.984 364.226 322.485 505.657 379.617C697.178 456.397 753.893 257.609 812.956 227.888C975.039 146.289 859.504 842.01 953.14 904.273C1047.56 966.972 1314.32 711.216 1398.14 616.72C1477.53 527.349 1614.95 429.39 1733.6 435.114C1852.26 440.838 1851.78 449.438 1882.94 446.267M-198.504 617.417C-198.504 617.417 241.302 748.077 358.418 549.983C477.805 348.008 359.952 330.011 507.17 390.605C701.633 470.813 755.179 268.985 818.737 235.588C979.369 151.13 875.088 828.291 964.816 892.115C1055.81 956.895 1308.12 722.689 1397.49 624.068C1477.75 535.436 1611.53 441.243 1730.34 446.925C1849.15 452.606 1851.57 452.92 1882.57 449.791M-198.493 618.065C-198.493 618.065 234.368 745.906 345.144 548.411C459.285 344.944 356.215 337.062 509.035 401.657C706.511 484.947 757.013 280.534 824.828 243.2C983.585 156.162 890.784 814.374 976.335 879.996C1063.78 947.052 1301.62 734.245 1396.52 631.498C1477.54 543.798 1607.91 452.984 1726.72 458.666C1845.53 464.347 1851 456.331 1882.12 453.008M-198.637 618.752C-198.637 618.752 227.083 743.666 331.56 546.922C440.455 341.962 352.055 344.388 510.547 412.639C710.996 498.86 758.298 291.904 830.609 250.894C987.926 161.645 906.212 800.691 987.7 867.916C1071.76 937.205 1295.07 745.646 1395.56 638.925C1477.45 551.963 1604.33 464.874 1723.14 470.555C1841.96 476.237 1850.64 459.848 1881.59 456.568M-198.626 619.407C-198.626 619.407 219.996 741.545 318.329 545.509C421.822 339.1 348.247 351.792 512.454 423.85C716.072 513.11 760.175 303.611 836.784 258.816C992.66 167.356 922.035 787.237 999.614 856.023C1080.28 927.545 1288.96 757.427 1395.14 646.537C1477.71 560.206 1601.31 476.949 1719.92 482.521C1838.54 488.094 1850.23 463.225 1881.38 460.053M-198.771 620.095C-198.771 620.095 212.709 739.306 304.744 544.021C402.949 335.967 344.199 358.925 513.965 434.832C720.555 527.023 761.542 315.285 842.523 266.359C997.196 172.949 937.42 773.403 1010.94 843.792C1088.1 917.741 1282.38 768.677 1394.1 653.662C1477.37 568.111 1597.45 488.427 1716.26 494.108C1835.07 499.79 1849.82 466.591 1880.81 463.463M-198.915 620.786C-198.915 620.786 205.382 736.918 291.314 542.493C384.035 332.687 340.194 366.213 515.633 445.776C725.391 541.007 763.22 326.877 848.458 274.014C1001.82 178.848 953.044 759.834 1022.46 831.674C1096.23 907.857 1275.99 780.04 1393.44 661.008C1477.39 576.087 1594.18 500.235 1712.95 505.766C1831.72 511.296 1849.56 469.919 1880.56 466.79M-198.903 621.433C-198.903 621.433 198.057 734.53 277.888 540.964C365.166 329.556 336.304 373.305 517.499 456.827C730.23 554.988 765.098 338.577 854.552 281.626C1006.79 184.812 968.785 746.068 1034.25 819.318C1104.51 897.928 1269.52 791.098 1392.75 668.201C1477.37 583.91 1590.84 511.739 1709.65 517.421C1828.46 523.102 1849.31 473.245 1880.26 469.965M-199.047 622.123C-199.047 622.123 190.576 732.183 264.459 539.434C346.097 326.317 332.412 380.398 519.166 467.769C735.025 568.819 766.818 350.319 860.332 289.322C1011.45 190.861 984.099 732.582 1045.61 807.241C1112.22 888.32 1262.66 802.586 1391.79 675.63C1476.88 591.86 1587.26 523.631 1705.92 529.355C1824.57 535.08 1848.63 476.85 1879.59 473.57M-199.035 622.777C-199.035 622.777 183.25 729.801 251.186 537.869C327.143 322.89 328.521 387.497 521.032 478.827C740.017 582.765 768.736 362.177 866.466 297.092C1016.51 197.135 999.921 719.126 1057.33 795.238C1120.47 878.895 1256.27 813.954 1391.02 683.175C1476.79 600.035 1583.73 535.682 1702.54 541.363C1821.35 547.045 1848.26 480.377 1879.41 477.206M-199.18 623.463C-199.18 623.463 175.726 727.3 237.643 536.531C307.96 319.841 324.515 394.78 522.585 489.96C744.698 596.786 770.342 374.109 872.246 304.785C1021.25 203.483 1015.28 705.789 1068.85 783.115C1128.49 869.2 1249.53 825.246 1390.21 690.559C1476.46 607.939 1580.26 547.376 1699.08 553.058C1817.89 558.739 1847.85 483.742 1879 480.571M-199.17 624.114C-199.17 624.114 168.202 724.806 224.368 534.963C289.005 316.411 320.778 401.834 524.448 501.015C749.689 610.729 772.3 386.116 878.378 312.552C1026.46 209.712 1030.79 692.415 1080.56 771.109C1136.54 859.663 1243.1 836.459 1389.6 698.059C1476.48 615.917 1577.04 559.339 1695.81 564.869C1814.58 570.399 1847.48 487.267 1878.59 483.944M-199.313 624.806C-199.313 624.806 160.369 722.395 210.785 533.478C269.585 313.107 316.732 408.971 525.962 512.002C754.485 624.561 774.104 398.163 884.16 320.25C1031.25 216.217 1046.1 678.931 1091.93 759.034C1144.14 850.252 1236.16 847.647 1388.59 705.339C1475.99 623.869 1573.38 570.93 1692.04 576.654C1810.69 582.378 1847.07 490.637 1878.07 487.508M-199.457 625.496C-199.457 625.496 152.535 719.983 197.357 531.949C250.165 309.802 312.841 416.064 527.671 523.096C759.28 638.392 776.063 410.166 890.096 327.905C1036.3 222.484 1061.46 665.597 1103.45 746.915C1152.04 840.754 1229.37 858.791 1387.78 712.726C1475.66 631.778 1569.81 582.822 1688.58 588.352C1807.35 593.882 1846.66 494.006 1877.66 490.877M-199.447 626.142C-199.447 626.142 144.856 717.526 183.927 530.418C230.703 306.343 308.948 423.155 529.338 534.037C764.074 652.221 777.865 422.209 896.031 335.557C1041.4 228.901 1076.77 652.109 1115.12 734.751C1159.9 831.102 1222.75 869.89 1387.13 720.069C1475.44 639.49 1566.5 594.476 1685.31 600.158C1804.12 605.839 1846.25 497.373 1877.4 494.202M-199.59 626.833C-199.59 626.833 136.982 714.964 170.499 528.891C211.242 302.887 305.213 430.207 531.049 545.132C768.87 666.053 780.022 434.323 901.969 343.213C1046.46 235.17 1091.97 638.819 1126.64 722.633C1167.49 821.691 1215.92 880.883 1386.32 727.457C1475.26 647.356 1563.08 606.327 1681.89 612.009C1800.7 617.69 1845.88 500.895 1876.88 497.766M-199.579 627.483C-199.579 627.483 129.149 712.554 157.07 527.364C191.511 299.669 301.279 437.151 532.871 556.034C773.975 679.801 782.177 446.437 908.06 350.827C1051.75 241.7 1107.18 625.529 1138.2 710.668C1175.24 812.238 1208.98 892.072 1385.4 735.041C1474.82 655.461 1559.5 618.222 1678.16 623.946C1796.82 629.67 1845.36 504.46 1876.36 501.331M-199.723 628.175C-199.723 628.175 120.963 710.077 143.683 525.989C171.936 296.408 297.656 444.009 534.622 567.282C778.883 693.439 784.218 458.744 913.882 358.677C1056.89 248.272 1122.33 612.088 1149.88 698.509C1182.95 802.633 1202.31 903.023 1384.74 742.387C1474.6 663.177 1556.08 630.074 1674.89 635.755C1793.7 641.437 1845.11 507.789 1876.06 504.508M-199.867 628.862C-199.867 628.862 112.819 707.746 130.099 524.499C151.854 293.117 293.609 451.141 536.134 578.263C783.679 707.266 786.26 471.046 919.663 366.37C1061.98 254.687 1137.34 598.684 1161.24 686.428C1190.19 793.15 1195.18 914.097 1383.78 749.814C1474.11 671.124 1552.46 641.811 1671.28 647.492C1790.09 653.174 1844.7 511.154 1875.69 508.025M-199.857 629.51C-199.857 629.51 104.788 705.226 116.825 522.929C132.081 289.746 289.872 458.193 537.957 589.165C788.515 721.25 788.497 483.463 925.753 373.983C1067.39 261.022 1152.65 585.199 1172.92 674.268C1197.89 783.544 1188.03 924.527 1383.13 757.16C1473.69 678.73 1549.2 653.619 1668.01 659.301C1786.82 664.983 1844.33 514.676 1875.28 511.395M-200 630.204C-200 630.204 96.6457 702.902 103.242 521.446C112 286.463 285.671 465.374 539.512 600.305C793.352 735.236 790.695 495.73 931.535 381.684C1072.38 267.638 1167.66 571.802 1184.44 662.153C1205.29 774.026 1181.44 935.783 1382.28 764.399C1473.52 686.599 1545.58 665.364 1664.35 670.894C1783.12 676.424 1843.92 518.048 1874.92 514.919" stroke="#00C186" stroke-miterlimit="10"/>
</g>
</svg>
