<svg width="2273" height="739" viewBox="0 0 2273 739" fill="none" xmlns="http://www.w3.org/2000/svg">
<path d="M10.3931 156.727C10.3931 156.727 395.41 25.5949 542.861 228.815C690.312 432.036 533.643 701.276 672.273 634.752C864.619 542.428 1178.84 556.049 1237.53 580.063C1413.44 652.135 1428.72 581.261 1527.26 509.697C1625.81 438.133 1824.27 -34.5012 1911.48 56.2569C1998.69 147.015 1944 751.848 2067.7 737.371C2191.4 722.894 2161.64 192.314 2194.25 193.524M9.96647 154.245C9.96647 154.245 390.845 18.8782 531.61 221.885C673.738 426.876 526.496 697.393 670.822 626.305C866.19 530.731 1172.41 540.441 1235.98 568.051C1410.11 643.67 1427.27 572.814 1525.81 501.25C1624.36 429.686 1811.75 -29.9529 1904.95 64.8923C1993.17 154.622 1942.55 743.401 2066.25 728.924C2189.95 714.447 2161.05 188.838 2193.65 190.048M9.51136 151.598C9.51136 151.598 386.252 11.996 520.358 214.956C657.026 421.91 519.292 693.178 669.37 617.858C867.647 518.371 1166.14 524.805 1234.43 556.039C1406.89 634.845 1425.82 564.367 1524.36 492.803C1622.9 421.239 1799.26 -25.2387 1898.42 73.5277C1987.49 162.258 1941.1 734.954 2064.8 720.477C2188.49 706 2160.42 185.197 2193.03 186.406M9.05551 148.939C9.05551 148.939 381.659 5.10207 509.078 207.848C640.285 416.766 512.087 688.951 667.89 609.233C869.161 506.331 1159.68 509.02 1232.84 543.849C1403.91 625.455 1424.33 555.743 1522.88 484.179C1621.42 412.615 1786.58 -20.6733 1891.89 82.1516C1981.68 170.077 1939.62 726.33 2063.32 711.853C2187.01 697.376 2159.79 181.544 2192.4 182.753M8.62827 146.455C8.62827 146.455 376.956 -1.42326 497.826 200.915C623.573 411.797 504.911 684.899 666.438 600.784C870.703 494.465 1153.38 493.216 1231.13 531.862C1400.74 615.936 1422.88 547.293 1521.43 475.729C1619.97 404.165 1773.89 -16.0992 1885.19 90.8127C1975.86 177.904 1938.17 717.88 2061.86 703.403C2185.56 688.926 2159.17 177.899 2191.77 179.109M8.17294 143.804C8.17294 143.804 372.363 -8.30936 486.574 193.982C606.889 406.993 497.9 680.818 664.986 592.333C872.246 482.599 1146.92 477.438 1229.57 519.846C1397.9 606.36 1421.43 538.842 1519.98 467.278C1618.52 395.714 1761.23 -11.3603 1878.66 99.4444C1970.04 185.73 1936.71 709.429 2060.41 694.952C2184.11 680.475 2158.57 174.42 2191.18 175.629M7.71781 141.155C7.71781 141.155 367.467 -14.9705 475.294 186.884C590.178 402.026 490.696 676.602 663.506 583.719C873.76 470.569 1140.57 461.304 1227.99 507.667C1394.98 596.288 1419.95 530.228 1518.5 458.664C1617.04 387.1 1748.55 -6.7849 1872.1 107.913C1964.2 193.393 1935.24 700.815 2058.93 686.338C2182.63 671.861 2157.92 170.611 2190.52 171.82M7.26216 138.503C7.26216 138.503 362.765 -21.4976 464.014 179.784C573.3 397.083 483.52 672.548 662.026 575.101C875.274 458.535 1134.38 445.137 1226.41 495.484C1392.19 586.019 1418.47 521.611 1517.02 450.047C1615.56 378.483 1735.89 -2.04707 1865.56 116.543C1958.21 201.246 1933.75 692.198 2057.45 677.721C2181.15 663.243 2157.29 166.965 2189.9 168.174M6.83578 136.018C6.83578 136.018 357.898 -27.9945 452.791 173.017C556.48 392.474 476.402 668.827 660.604 566.817C877.039 446.972 1128.08 429.332 1224.89 483.634C1389.63 576.054 1417.05 513.326 1515.59 441.762C1614.14 370.199 1723.07 2.7212 1859.03 125.176C1952.23 209.102 1932.3 683.748 2056 669.271C2179.7 654.794 2156.66 163.32 2189.27 164.529M6.37958 133.364C6.37958 133.364 352.864 -34.4667 441.51 165.914C539.436 387.558 469.362 664.577 659.123 558.197C878.581 435.102 1121.9 413.163 1223.31 471.449C1387 565.755 1415.57 504.707 1514.11 433.143C1612.66 361.579 1710.25 7.48547 1852.5 133.804C1946.44 217.091 1930.85 675.294 2054.55 660.817C2178.25 646.34 2156.06 159.837 2188.67 161.047M5.92428 130.713C5.92428 130.713 347.997 -40.9642 430.23 158.815C522.421 382.812 462.186 660.524 657.643 549.581C880.095 423.07 1115.68 396.832 1221.73 459.268C1384.33 555.127 1414.09 496.091 1512.63 424.527C1611.18 352.963 1697.29 12.4473 1845.97 142.436C1940.49 225.111 1929.4 666.843 2053.1 652.366C2176.8 637.889 2155.44 156.192 2188.04 157.402M5.49715 128.227C5.49715 128.227 342.826 -47.2393 418.841 152.075C505.103 378.287 455.067 656.803 656.191 541.13C881.832 411.341 1109.49 380.667 1220.04 447.446C1381.73 544.996 1412.64 487.64 1511.18 416.076C1609.73 344.512 1684.46 17.2145 1839.24 150.93C1934.34 232.995 1927.89 658.061 2051.59 643.584C2175.29 629.107 2154.81 152.547 2187.42 153.756M5.04135 125.573C5.04135 125.573 337.792 -53.7114 407.56 144.973C487.922 373.566 447.919 652.913 654.71 532.511C883.402 399.637 1103.44 364.304 1218.45 435.261C1379.22 534.337 1411.16 479.02 1509.7 407.456C1608.24 335.893 1671.5 22.1732 1832.71 159.559C1928.19 240.875 1926.44 649.607 2050.14 635.13C2173.83 620.653 2154.16 148.733 2186.76 149.942M4.58678 122.926C4.58678 122.926 332.594 -60.1482 396.281 137.877C470.743 368.851 440.91 648.835 653.231 523.898C885.083 387.58 1097.36 347.782 1216.87 423.083C1376.71 523.684 1409.68 470.408 1508.22 398.844C1606.77 327.28 1658.54 27.1386 1826.18 168.195C1922.26 249.065 1924.99 641.16 2048.69 626.683C2172.38 612.206 2153.56 145.257 2186.17 146.466M4.13075 120.277C4.13075 120.277 327.229 -66.5586 385.028 130.945C453.424 364.328 433.761 644.949 651.779 515.449C886.653 375.88 1091.31 331.424 1215.32 411.068C1374.22 513.195 1408.22 461.958 1506.77 390.395C1605.31 318.831 1645.58 32.1019 1819.62 176.662C1916.28 256.921 1923.51 632.546 2047.21 618.069C2170.9 603.591 2152.9 141.448 2185.51 142.657M3.70379 117.788C3.70379 117.788 321.893 -72.8085 373.777 124.008C435.941 359.829 426.78 641.03 650.327 506.995C888.418 364.313 1085.4 314.867 1213.77 399.049C1371.91 502.672 1406.77 453.504 1505.32 381.94C1603.86 310.376 1632.49 37.2543 1813.12 185.456C1910.19 265.132 1922.06 624.091 2045.75 609.614C2169.45 595.137 2152.31 137.965 2184.91 139.174M3.24846 115.138C3.24846 115.138 316.529 -79.2195 362.497 116.91C418.43 355.169 419.632 637.144 648.847 498.379C890.126 352.419 1079.32 298.342 1212.19 386.868C1369.53 491.822 1405.29 444.889 1503.84 373.325C1602.38 301.761 1619.53 42.217 1806.56 193.923C1904.04 273.017 1920.58 615.476 2044.27 600.999C2167.97 586.522 2151.68 134.32 2184.29 135.53M2.79321 112.485C2.79321 112.485 310.999 -85.6048 351.245 109.974C400.752 350.534 412.651 633.227 647.396 489.927C891.697 340.716 1073.41 281.787 1210.63 374.85C1367.18 481.135 1403.84 436.437 1502.39 364.873C1600.93 293.309 1606.43 47.3712 1800.02 202.553C1898.08 281.036 1919.12 607.024 2042.82 592.547C2166.52 578.069 2151.05 130.673 2183.66 131.883M2.36633 110.001C2.36633 110.001 305.498 -91.8209 339.993 103.042C383.104 346.068 405.92 629.781 645.944 481.478C893.685 329.457 1067.66 265.206 1208.92 362.864C1364.86 470.618 1402.39 427.987 1500.93 356.424C1599.48 284.86 1593.36 52.6944 1793.33 211.215C1891.83 289.281 1917.67 598.574 2041.37 584.097C2165.07 569.62 2150.43 127.03 2183.04 128.239M1.90985 107.345C1.90985 107.345 299.772 -98.3474 328.712 95.9371C365.231 341.292 398.743 625.723 644.463 472.856C895.226 317.585 1061.86 248.286 1207.33 350.677C1362.49 459.761 1400.91 419.365 1499.45 347.801C1598 276.237 1580.1 57.8731 1786.79 219.841C1885.71 297.324 1916.19 589.952 2039.89 575.475C2163.59 560.998 2149.8 123.379 2182.41 124.588M1.45618 104.701C1.45618 104.701 294.078 -104.695 317.462 89.0113C347.224 336.724 391.763 621.815 643.013 464.413C896.936 305.698 1056.11 231.711 1205.78 338.669C1360.31 449.056 1399.46 410.922 1498 339.359C1596.55 267.795 1566.59 63.6196 1780.26 228.48C1879.48 305.741 1914.74 581.51 2038.44 567.032C2162.14 552.555 2149.18 119.741 2181.78 120.951M1 102.046C1 102.046 288.353 -111.22 306.181 81.9072C329.187 331.978 384.586 617.758 641.532 455.792C898.478 293.826 1050.31 214.793 1204.2 326.482C1358.1 438.172 1397.98 402.301 1496.52 330.738C1595.07 259.174 1553.77 68.3824 1773.7 236.942C1873.66 313.562 1913.26 572.889 2036.96 558.411C2160.66 543.934 2148.55 116.091 2181.16 117.301" stroke="#6296FE" stroke-miterlimit="10"/>
<path d="M2270.54 353.634C2270.54 353.634 1822.75 211.395 1690.87 406.793C1558.98 602.191 1704.3 642.841 1570.43 587.825C1384.82 511.531 1322.26 705.028 1267.6 730.02C1103.63 805.148 1241.08 99.2343 1145.02 37.5545C1048.96 -24.1252 765.967 246.471 686.724 334.721C607.482 422.971 466.098 521.245 348.389 513.707C230.681 506.169 234.602 489.398 203.664 492.043M2270.53 352.989C2270.53 352.989 1829.59 213.657 1704 408.562C1577.25 605.373 1708.08 635.756 1568.76 576.834C1380.09 497.625 1320.71 693.846 1261.68 722.372C1099.68 800.692 1225.26 112.63 1133.41 49.3856C1040.78 -14.3033 772.25 235.043 687.643 327.406C607.51 414.759 469.715 509.698 352.161 502.12C234.608 494.542 235.216 486.022 204.278 488.667M2270.69 352.304C2270.69 352.304 1836.7 215.686 1717.44 410.25C1595.87 608.625 1712.44 628.361 1567.43 565.913C1375.9 483.258 1319.61 682.543 1256.07 714.643C1095.47 795.821 1209.59 125.984 1121.64 61.255C1032.45 -4.44313 778.572 223.764 688.407 320.13C607.424 406.736 473.294 497.998 355.586 490.46C237.878 482.922 235.482 482.573 204.699 485.179M2270.69 351.662C2270.69 351.662 1843.54 217.95 1730.58 412.021C1614.19 611.961 1716.25 621.429 1565.76 554.924C1371.29 469.164 1317.98 671.062 1250.15 706.997C1091.37 790.764 1193.81 139.533 1110.02 73.0886C1024.39 5.19069 785.203 212.409 689.48 312.778C607.763 398.447 477.067 486.414 359.359 478.875C241.65 471.337 236.097 479.199 205.197 481.995M2270.84 350.982C2270.84 350.982 1850.73 220.288 1744.03 413.715C1632.81 615.218 1720.5 614.23 1564.44 544.008C1367.06 455.295 1316.88 659.765 1244.54 699.274C1087.15 785.257 1178.29 152.854 1098.57 84.8842C1016.32 14.8262 791.874 201.208 690.554 305.428C607.985 390.351 480.801 474.68 363.093 467.142C245.384 459.603 236.518 475.716 205.773 478.473M2270.84 350.334C2270.84 350.334 1857.72 222.506 1757.12 415.33C1651.24 618.358 1724.39 606.951 1562.72 532.863C1362.26 441.085 1315.21 648.128 1238.54 691.321C1082.54 779.519 1162.39 165.945 1086.56 96.4898C1007.72 24.2718 798.118 189.625 691.086 297.887C607.86 382.175 483.993 462.756 366.478 455.329C248.963 447.902 236.977 472.376 206.039 475.022M2271 349.655C2271 349.655 1864.91 224.844 1770.57 417.024C1669.9 621.767 1728.51 599.943 1561.4 521.948C1358.03 427.216 1314.04 636.53 1232.97 683.75C1078.14 773.901 1146.92 179.417 1075.15 108.437C999.814 33.8682 804.828 178.575 692.238 290.839C608.316 374.341 487.999 451.436 370.29 443.898C252.582 436.36 237.438 469.045 206.654 471.651M2271.15 348.97C2271.15 348.97 1872.14 227.327 1783.86 418.753C1688.6 625.322 1732.6 592.778 1559.92 511.067C1353.46 413.27 1312.56 625.006 1227.21 676.061C1073.65 767.976 1131.21 192.621 1063.53 120.267C991.597 43.5387 811.344 167.408 693.002 283.564C608.423 366.43 491.424 439.777 373.754 432.39C256.085 425.002 237.744 465.747 206.96 468.353M2271.15 348.328C2271.15 348.328 1879.36 229.813 1797.15 420.484C1707.26 628.728 1736.57 585.807 1558.24 500.078C1348.88 399.327 1310.88 613.373 1221.29 668.415C1068.81 761.981 1115.39 206.019 1051.65 132.331C983.225 53.2515 817.935 156.545 693.804 276.442C608.567 358.673 494.925 428.422 377.216 420.884C259.508 413.346 238.048 462.453 207.303 465.21M2271.3 347.646C2271.3 347.646 1886.74 232.26 1810.44 422.216C1726.12 632.247 1740.54 578.836 1556.76 489.201C1344.35 385.535 1309.36 601.702 1215.68 660.69C1064.29 755.908 1099.99 219.147 1040.19 144.125C975.432 62.655 824.915 145.262 694.877 269.09C609.177 350.797 498.659 416.687 381.105 409.109C263.551 401.531 238.778 458.888 208.033 461.645M2271.3 346.998C2271.3 346.998 1893.97 234.74 1823.57 423.981C1744.85 635.949 1744.51 571.859 1555.09 478.206C1339.62 371.626 1307.65 589.913 1209.72 652.888C1059.37 749.606 1084.09 232.237 1028.38 155.841C967.098 71.8698 831.429 134.092 695.757 261.62C609.398 342.692 502.353 404.794 384.644 397.256C266.936 389.718 239.198 455.398 208.26 458.043M2271.45 346.321C2271.45 346.321 1901.39 237.343 1836.98 425.527C1763.83 639.282 1748.6 564.702 1553.73 467.142C1335.2 357.649 1306.25 578.055 1204.11 645.168C1054.77 743.236 1068.65 245.219 1016.77 167.68C958.998 81.3576 838.294 123.005 696.676 254.313C609.854 334.861 505.972 393.254 388.263 385.716C270.555 378.178 239.659 452.068 208.721 454.714M2271.45 345.676C2271.45 345.676 1908.81 239.937 1850.11 427.296C1782.56 642.987 1752.42 557.768 1552.05 456.151C1330.47 343.743 1304.49 566.119 1198.15 637.369C1049.7 736.977 1053.06 258.233 1004.96 179.399C950.859 90.6869 844.849 111.989 697.403 246.887C609.962 326.95 509.358 381.445 391.689 374.057C274.019 366.67 240.08 448.581 209.181 451.377M2271.61 344.991C2271.61 344.991 1916.54 242.452 1863.56 428.984C1801.77 646.574 1756.54 550.754 1550.73 445.23C1325.94 329.948 1302.9 554.142 1192.54 629.64C1045.06 730.448 1037.67 271.358 993.501 191.189C943.182 99.8962 851.905 101.004 698.514 239.682C610.57 319.07 513.169 370.007 395.615 362.429C278.061 354.851 240.54 445.243 209.756 447.849M2271.76 344.309C2271.76 344.309 1924.27 244.97 1876.85 430.716C1820.97 650.163 1760.51 543.783 1549.21 434.201C1321.4 316.156 1301.14 542.208 1186.78 621.955C1040.15 724.152 1022.23 284.335 981.887 203.023C935.196 109.188 858.806 90.0625 699.433 232.369C611.025 311.234 516.902 358.272 399.233 350.884C281.563 343.497 240.999 441.909 210.215 444.515M2271.76 343.667C2271.76 343.667 1931.84 247.528 1890.14 432.447C1840.21 653.903 1764.48 536.811 1547.73 423.323C1316.87 302.364 1299.55 530.234 1181.02 614.27C1035.2 717.705 1006.83 297.463 970.12 214.896C927.25 118.631 865.555 79.1605 700.198 225.097C611.365 303.588 520.367 346.766 402.659 339.228C284.95 331.69 241.46 438.575 210.522 441.221M2271.91 342.984C2271.91 342.984 1939.61 250.195 1903.43 434.178C1859.45 657.642 1768.3 529.879 1546.21 412.294C1312.33 288.571 1297.6 518.188 1175.25 606.583C1030.28 711.409 991.549 310.399 958.505 226.728C919.572 127.843 872.495 68.3686 701.116 217.783C611.664 295.79 523.945 335.069 406.237 327.531C288.528 319.993 241.88 435.089 211.096 437.695M2271.91 342.339C2271.91 342.339 1947.34 252.71 1916.72 435.906C1878.96 661.149 1772.31 523.056 1544.57 401.453C1307.49 274.855 1295.66 506.14 1169.33 598.935C1025.14 704.848 976.267 323.334 946.853 238.408C911.741 137.093 879.552 57.3844 702.15 210.277C612.234 287.76 527.679 323.331 410.125 315.753C292.571 308.175 242.455 431.562 211.672 434.168M2272.07 341.658C2272.07 341.658 1955.41 255.301 1929.97 437.488C1898.32 664.7 1776.01 516.316 1543.02 390.274C1302.84 261.255 1293.83 493.906 1163.68 591.06C1020.15 698.251 961.025 336.423 935.085 250.282C903.95 146.497 886.339 46.6342 702.916 203.005C612.574 280.115 531.259 311.636 413.551 304.098C295.843 296.559 242.762 428.268 212.017 431.025M2272.22 340.977C2272.22 340.977 1963.45 257.739 1943.41 439.18C1918.18 668.282 1780.13 509.305 1541.69 379.357C1298.3 247.463 1292 481.67 1158.07 583.335C1015.19 691.805 945.935 349.472 923.625 262.076C896.62 155.782 893.588 35.7642 703.988 195.653C613.183 272.239 535.031 300.051 417.323 292.513C299.614 284.975 243.22 424.934 212.437 427.54M2272.22 340.334C2272.22 340.334 1971.37 260.368 1956.55 440.951C1937.73 671.943 1783.95 502.374 1540.06 368.519C1293.73 233.52 1289.98 469.323 1152.16 575.689C1009.94 685.438 930.538 362.599 911.858 273.949C888.829 165.185 900.839 25.5369 704.754 188.38C613.716 264.704 538.457 288.395 420.748 280.857C303.04 273.318 243.642 421.449 212.898 424.206M2272.37 339.647C2272.37 339.647 1979.41 262.802 1969.99 442.638C1957.59 675.519 1788.23 495.318 1538.69 357.445C1289.15 219.572 1287.99 457.122 1146.55 567.958C1005.1 678.795 915.448 375.643 900.243 285.777C881.345 174.503 907.547 14.4787 705.71 181.213C614.015 256.902 542.228 276.805 424.559 269.417C306.889 262.03 244.101 418.11 213.318 420.716" stroke="#00C186" stroke-miterlimit="10"/>
</svg>
