<svg width="24" height="24" viewBox="0 0 24 24" fill="none" xmlns="http://www.w3.org/2000/svg">
<g clip-path="url(#clip0_7394_946)">
<path d="M21 12.0039C21 7.03334 16.9706 3.00391 12 3.00391C7.02944 3.00391 3 7.03334 3 12.0039C3 16.9745 7.02944 21.0039 12 21.0039C16.9706 21.0039 21 16.9745 21 12.0039Z" fill="#419FD9"/>
<path d="M21 12.0039C21 7.03334 16.9706 3.00391 12 3.00391C7.02944 3.00391 3 7.03334 3 12.0039C3 16.9745 7.02944 21.0039 12 21.0039C16.9706 21.0039 21 16.9745 21 12.0039Z" fill="url(#paint0_linear_7394_946)"/>
<path d="M7.04527 11.806C9.66251 10.6417 11.4077 9.87419 12.281 9.50332C14.7742 8.4445 15.2923 8.26057 15.63 8.25445C15.7042 8.25318 15.8703 8.27197 15.9779 8.36107C16.0687 8.43633 16.0937 8.53799 16.1056 8.60932C16.1176 8.68068 16.1325 8.8432 16.1206 8.97018C15.9855 10.4196 15.4009 13.9371 15.1035 15.5605C14.9776 16.2474 14.7298 16.4778 14.49 16.5003C13.9686 16.5493 13.5727 16.1485 13.0677 15.8105C12.2775 15.2817 11.8312 14.9524 11.0641 14.4364C10.1778 13.84 10.7524 13.5122 11.2575 12.9765C11.3897 12.8363 13.6869 10.7029 13.7313 10.5094C13.7369 10.4852 13.7421 10.395 13.6896 10.3474C13.6371 10.2997 13.5596 10.316 13.5037 10.329C13.4244 10.3473 12.1621 11.1992 9.71674 12.8846C9.35842 13.1358 9.0339 13.2582 8.74312 13.2518C8.42257 13.2447 7.80596 13.0668 7.34756 12.9146C6.78532 12.728 6.33845 12.6294 6.37736 12.3124C6.39763 12.1474 6.62026 11.9785 7.04527 11.806Z" fill="white"/>
</g>
<defs>
<linearGradient id="paint0_linear_7394_946" x1="12" y1="3.00391" x2="12" y2="20.8704" gradientUnits="userSpaceOnUse">
<stop stop-color="#2AABEE"/>
<stop offset="1" stop-color="#229ED9"/>
</linearGradient>
<clipPath id="clip0_7394_946">
<rect width="18" height="18" fill="white" transform="translate(3 3.00391)"/>
</clipPath>
</defs>
</svg>
