<svg width="24" height="24" viewBox="0 0 24 24" fill="none" xmlns="http://www.w3.org/2000/svg">
<g clip-path="url(#clip0_7394_942)">
<path d="M3 11.6439C3 7.57096 3 5.5345 4.2653 4.2692C5.5306 3.00391 7.56705 3.00391 11.64 3.00391H12.36C16.433 3.00391 18.4694 3.00391 19.7347 4.2692C21 5.5345 21 7.57096 21 11.6439V12.3639C21 16.4369 21 18.4733 19.7347 19.7386C18.4694 21.0039 16.433 21.0039 12.36 21.0039H11.64C7.56705 21.0039 5.5306 21.0039 4.2653 19.7386C3 18.4733 3 16.4369 3 12.3639V11.6439Z" fill="#0077FF"/>
<path d="M12.4823 15.604C8.79235 15.604 6.6877 13.0702 6.60001 8.854H8.44835C8.50906 11.9486 9.87168 13.2594 10.951 13.5297V8.854H12.6915V11.5229C13.7573 11.4081 14.877 10.1918 15.2547 8.854H16.9952C16.7051 10.5027 15.4909 11.7189 14.6274 12.2189C15.4909 12.6243 16.8738 13.6851 17.4 15.604H15.4841C15.0726 14.3202 14.0474 13.327 12.6915 13.1918V15.604H12.4823Z" fill="white"/>
</g>
<defs>
<clipPath id="clip0_7394_942">
<rect x="3" y="3.00391" width="18" height="18" rx="9" fill="white"/>
</clipPath>
</defs>
</svg>
