<svg width="24" height="24" viewBox="0 0 24 24" fill="none" xmlns="http://www.w3.org/2000/svg">
<path d="M21.7079 6.90989C21.4744 6.04251 20.7905 5.35862 19.9231 5.12509C18.3385 4.69141 12 4.69141 12 4.69141C12 4.69141 5.66143 4.69141 4.0768 5.10841C3.22611 5.34194 2.52553 6.04251 2.29201 6.90989C1.875 8.49452 1.875 11.7805 1.875 11.7805C1.875 11.7805 1.875 15.0832 2.29201 16.6512C2.52553 17.5186 3.20943 18.2025 4.0768 18.436C5.67811 18.8697 12 18.8697 12 18.8697C12 18.8697 18.3385 18.8697 19.9231 18.4527C20.7905 18.2191 21.4744 17.5353 21.7079 16.6679C22.1249 15.0832 22.1249 11.7972 22.1249 11.7972C22.1249 11.7972 22.1416 8.49452 21.7079 6.90989Z" fill="#FF0000"/>
<path d="M9.98162 14.7005L15.2526 11.6647L9.98162 8.62891V14.7005Z" fill="white"/>
</svg>
