<svg width="48" height="48" viewBox="0 0 48 48" fill="none" xmlns="http://www.w3.org/2000/svg">
<rect width="48" height="48" rx="24" fill="#00FFC2"/>
<path d="M32.8911 16.5554L30.3567 14.0225C30.1778 13.8425 29.9651 13.6997 29.7309 13.6022C29.4966 13.5048 29.2454 13.4546 28.9916 13.4546C28.7379 13.4546 28.4867 13.5048 28.2524 13.6022C28.0181 13.6997 27.8054 13.8425 27.6266 14.0225L24.8994 16.7504C24.7196 16.9292 24.5768 17.1419 24.4794 17.3761C24.382 17.6103 24.3319 17.8614 24.3319 18.1151C24.3319 18.3687 24.382 18.6199 24.4794 18.8541C24.5768 19.0883 24.7196 19.3009 24.8994 19.4798L26.8933 21.4736C26.4267 22.5026 25.778 23.4387 24.9785 24.2369C24.1804 25.0388 23.2444 25.6902 22.2151 26.1599L20.2213 24.166C20.0425 23.9864 19.8299 23.8439 19.5959 23.7467C19.3618 23.6495 19.1108 23.5995 18.8573 23.5996C18.3404 23.5996 17.8553 23.8012 17.4912 24.166L14.7618 26.891C14.582 27.0701 14.4394 27.283 14.3422 27.5175C14.245 27.7519 14.1951 28.0033 14.1954 28.2571C14.1954 28.7733 14.3978 29.2585 14.7618 29.6233L17.2911 32.1525C17.8768 32.7368 18.6702 33.0653 19.4976 33.066C19.6711 33.066 19.8373 33.0519 20.002 33.0231C23.2098 32.4951 26.3919 30.7886 28.9595 28.2231C31.5249 25.6607 33.2293 22.4809 33.7647 19.2634C33.8431 18.7751 33.8049 18.2752 33.6531 17.8045C33.5012 17.3338 33.2401 16.9058 32.8911 16.5554Z" fill="white"/>
</svg>
