<svg width="36" height="36" viewBox="0 0 36 36" fill="none" xmlns="http://www.w3.org/2000/svg">
<path d="M19.6535 7.27831C19.4955 7.43651 19.4068 7.65097 19.4068 7.87456C19.4068 8.09816 19.4955 8.31261 19.6535 8.47081L28.3371 17.1558H5.62477C5.40099 17.1558 5.18638 17.2447 5.02815 17.4029C4.86991 17.5612 4.78102 17.7758 4.78102 17.9996C4.78102 18.2233 4.86991 18.4379 5.02815 18.5962C5.18638 18.7544 5.40099 18.8433 5.62477 18.8433H28.3371L19.6535 27.5283C19.5045 27.6883 19.4233 27.8998 19.4272 28.1184C19.4311 28.337 19.5196 28.5455 19.6742 28.7001C19.8288 28.8547 20.0373 28.9433 20.2559 28.9471C20.4745 28.951 20.6861 28.8699 20.846 28.7208L30.971 18.5958C31.129 18.4376 31.2178 18.2232 31.2178 17.9996C31.2178 17.776 31.129 17.5615 30.971 17.4033L20.846 7.27831C20.6878 7.1203 20.4734 7.03155 20.2498 7.03155C20.0262 7.03155 19.8117 7.1203 19.6535 7.27831Z" fill="#343434"/>
</svg>
