<svg width="42" height="21" viewBox="0 0 42 21" fill="none" xmlns="http://www.w3.org/2000/svg">
<path d="M33.8862 12.221C33.8862 10.3493 32.3689 8.83203 30.4972 8.83203H3.38508C1.51338 8.83203 -0.00393677 10.3493 -0.00393677 12.221V18.9991H33.8862V12.221Z" fill="#B9DAFF"/>
<path d="M32.1919 13.0691C32.1919 11.6653 31.0539 10.5273 29.6501 10.5273H4.23251C2.82873 10.5273 1.69074 11.6653 1.69074 13.0691V18.9999H32.1919V13.0691Z" fill="#B9DAFF"/>
<path d="M32.1919 13.0691C32.1919 11.6653 31.0539 10.5273 29.6501 10.5273H4.23251C2.82873 10.5273 1.69074 11.6653 1.69074 13.0691V18.9999H32.1919V13.0691Z" fill="url(#paint0_linear_5704_11418)"/>
<g filter="url(#filter0_d_5704_11418)">
<path d="M27.9555 10.3174C27.9555 12.5401 29.7573 14.3419 31.9799 14.3419C34.2026 14.3419 36.0044 12.5401 36.0044 10.3174C36.0044 8.09478 34.2026 6.29297 31.9799 6.29297C29.7573 6.29297 27.9555 8.09478 27.9555 10.3174Z" fill="#F8F8F8"/>
</g>
<path d="M28.216 10.3156C28.216 12.3948 29.9015 14.0804 31.9808 14.0804C34.06 14.0804 35.7456 12.3948 35.7456 10.3156C35.7456 8.23635 34.06 6.55078 31.9808 6.55078C29.9015 6.55078 28.216 8.23635 28.216 10.3156Z" fill="white"/>
<path d="M29.7731 10.3163C29.7731 11.5352 30.7612 12.5233 31.9801 12.5233C33.1989 12.5233 34.187 11.5352 34.187 10.3163C34.187 9.09746 33.1989 8.10938 31.9801 8.10938C30.7612 8.10938 29.7731 9.09746 29.7731 10.3163Z" fill="#DDF3FF"/>
<path d="M30.2921 10.3205C30.2921 11.2526 31.0477 12.0082 31.9798 12.0082C32.9119 12.0082 33.6675 11.2526 33.6675 10.3205C33.6675 9.38841 32.9119 8.63281 31.9798 8.63281C31.0477 8.63281 30.2921 9.38841 30.2921 10.3205Z" fill="white"/>
<path d="M31.972 6.55078H31.7834V7.46903H31.972V6.55078Z" fill="#8EB3DB"/>
<path d="M31.972 13.1622H31.7834V14.0804H31.972V13.1622Z" fill="#8EB3DB"/>
<path d="M34.8022 10.2238V10.4074H35.7456L35.7456 10.2238H34.8022Z" fill="#8EB3DB"/>
<path d="M33.8789 8.2377L34.0123 8.36756L34.6794 7.71826L34.546 7.5884L33.8789 8.2377Z" fill="#8EB3DB"/>
<path d="M34.5459 13.0427L34.6793 12.9129L34.0123 12.2636L33.8788 12.3934L34.5459 13.0427Z" fill="#8EB3DB"/>
<path d="M33.428 6.86535L33.2534 6.79589L32.8965 7.64591L33.0712 7.71538L33.428 6.86535Z" fill="#8EB3DB"/>
<path d="M30.8588 12.9853L30.6841 12.9159L30.3273 13.7659L30.5019 13.8354L30.8588 12.9853Z" fill="#8EB3DB"/>
<path d="M34.6205 11.3074L34.5492 11.4774L35.4225 11.8247L35.4938 11.6547L34.6205 11.3074Z" fill="#8EB3DB"/>
<path d="M34.5376 9.12905L34.6107 9.29838L35.4805 8.94292L35.4075 8.77359L34.5376 9.12905Z" fill="#8EB3DB"/>
<path d="M33.2878 13.8225L33.4618 13.7514L33.0966 12.9048L32.9226 12.9759L33.2878 13.8225Z" fill="#8EB3DB"/>
<path d="M30.6583 7.72621L30.8323 7.65512L30.4671 6.80846L30.2931 6.87955L30.6583 7.72621Z" fill="#8EB3DB"/>
<defs>
<filter id="filter0_d_5704_11418" x="22.0247" y="0.36219" width="19.9104" height="19.9105" filterUnits="userSpaceOnUse" color-interpolation-filters="sRGB">
<feFlood flood-opacity="0" result="BackgroundImageFix"/>
<feColorMatrix in="SourceAlpha" type="matrix" values="0 0 0 0 0 0 0 0 0 0 0 0 0 0 0 0 0 0 127 0" result="hardAlpha"/>
<feOffset/>
<feGaussianBlur stdDeviation="2.96539"/>
<feColorMatrix type="matrix" values="0 0 0 0 0 0 0 0 0 0 0 0 0 0 0 0 0 0 0.16 0"/>
<feBlend mode="normal" in2="BackgroundImageFix" result="effect1_dropShadow_5704_11418"/>
<feBlend mode="normal" in="SourceGraphic" in2="effect1_dropShadow_5704_11418" result="shape"/>
</filter>
<linearGradient id="paint0_linear_5704_11418" x1="23.3253" y1="11.4633" x2="21.8387" y2="21.0966" gradientUnits="userSpaceOnUse">
<stop offset="0.394212" stop-color="#67ABFF"/>
<stop offset="1" stop-color="#82E8FF"/>
</linearGradient>
</defs>
</svg>
