<svg width="197" height="40" viewBox="0 0 197 40" fill="none" xmlns="http://www.w3.org/2000/svg">
<path d="M30.3905 32.6507V0H25.5625V32.6507H30.3905Z" fill="#343434"/>
<path d="M42.7986 6.03868C44.058 4.77479 44.058 2.90235 42.8452 1.70867C41.6324 0.444768 39.6732 0.444768 38.4604 1.70867C37.2476 2.92575 37.2476 4.79819 38.4604 6.03868C39.7199 7.25577 41.5858 7.25577 42.7986 6.03868ZM43.0785 32.6507V10.2751H38.2505V32.6273H43.0785V32.6507Z" fill="#343434"/>
<path d="M75.3584 9.71387C72.2797 9.71387 69.994 10.8841 68.5013 13.2481C67.1019 10.8841 65.0028 9.71387 62.134 9.71387C59.3119 9.71387 57.1661 10.7905 55.7201 12.9672V10.2756H50.8921V32.6279H55.7201V20.1293C55.7201 16.244 57.7725 14.2311 60.688 14.2311C63.3702 14.2311 64.8862 16.0099 64.8862 19.0995V32.6513H69.7142V20.1293C69.7142 16.1972 71.6034 14.2311 74.5888 14.2311C77.271 14.2311 78.9269 16.0099 78.9269 19.0995V32.6513H83.7549V18.7952C83.8249 13.2481 80.4196 9.71387 75.3584 9.71387Z" fill="#343434"/>
<path d="M108.967 13.4587C107.125 10.9543 104.536 9.69043 101.131 9.69043C98.0519 9.69043 95.4396 10.8139 93.2472 13.0842C91.0548 15.3546 89.9819 18.1398 89.9819 21.44C89.9819 24.6934 91.0548 27.5254 93.2472 29.7958C95.4396 32.0661 98.0285 33.1896 101.131 33.1896C104.536 33.1896 107.125 31.9491 108.967 29.3979V32.6278H113.819V10.2756H108.991V13.4587H108.967ZM96.839 26.6126C95.4863 25.2317 94.8332 23.5231 94.8332 21.4634C94.8332 19.4037 95.5096 17.6951 96.839 16.361C98.1918 14.9801 99.8944 14.3013 101.9 14.3013C103.906 14.3013 105.609 14.9801 106.961 16.361C108.314 17.6951 108.967 19.4037 108.967 21.4634C108.967 23.5231 108.291 25.2317 106.961 26.6126C105.609 27.9467 103.906 28.6255 101.9 28.6255C99.8944 28.6255 98.1918 27.9467 96.839 26.6126Z" fill="#343434"/>
<path d="M134.181 10.2756H128.63V4.02637L123.802 5.4541V10.2756H119.673V14.9333H123.802V25.6765C123.802 31.5278 126.81 33.5407 134.181 32.6513V28.3213C130.519 28.5085 128.63 28.5553 128.63 25.6765V14.9333H134.181V10.2756Z" fill="#343434"/>
<path d="M161.515 23.5231C161.655 22.6805 161.702 22.0018 161.702 21.5102C161.702 18.2569 160.629 15.4248 158.53 13.1545C156.431 10.8841 153.748 9.71387 150.46 9.71387C147.008 9.71387 144.139 10.8373 141.947 13.1077C139.754 15.3546 138.635 18.1164 138.635 21.4634C138.635 24.8572 139.754 27.6893 141.993 29.9128C144.232 32.1129 147.194 33.213 150.81 33.213C155.148 33.213 158.413 31.598 160.605 28.3446L156.617 26.0275C155.311 27.8531 153.399 28.7894 150.833 28.7894C147.125 28.7894 144.396 26.9169 143.673 23.5231H161.515ZM143.649 19.591C144.326 16.1972 146.821 14.0907 150.413 14.0907C153.585 14.0907 156.151 15.9631 156.827 19.591H143.649Z" fill="#343434"/>
<path d="M178.611 33.2364C182.949 33.2364 186.751 30.9895 188.687 27.4318L184.512 25.0445C183.439 27.151 181.2 28.4851 178.565 28.4851C176.605 28.4851 174.949 27.8063 173.597 26.4722C172.29 25.1381 171.637 23.4763 171.637 21.4634C171.637 19.4506 172.314 17.7888 173.597 16.4547C174.949 15.1205 176.605 14.4418 178.565 14.4418C181.247 14.4418 183.392 15.7291 184.419 17.8824L188.594 15.4716C186.798 11.9374 182.949 9.71387 178.611 9.71387C175.253 9.71387 172.43 10.8373 170.145 13.1077C167.906 15.3546 166.786 18.1164 166.786 21.4634C166.786 24.7636 167.906 27.5489 170.145 29.8192C172.43 32.1129 175.253 33.2364 178.611 33.2364Z" fill="#343434"/>
<path d="M3.31197 29.3973C-1.09618 24.9268 -1.09618 17.6711 3.31197 13.2007L7.62681 17.5541C5.59767 19.6138 1.79594 24.5992 3.31197 29.3973Z" fill="#00FFC2"/>
<path d="M3.33545 13.1771C7.74359 8.70661 14.9506 8.70661 19.3587 13.1771L15.0438 17.5305C13.0147 15.4708 8.07012 11.6323 3.33545 13.1771Z" fill="#00FFC2"/>
<path d="M19.3587 29.4208C14.9506 33.8913 7.74359 33.8913 3.33545 29.4208L7.6503 25.0674C9.67944 27.1271 14.624 30.9656 19.3587 29.4208Z" fill="#00FFC2"/>
<path d="M150.856 28.8128C147.148 28.8128 144.419 26.9403 143.696 23.5466H156.804V19.6144H143.649C144.326 16.2206 146.821 14.1141 150.413 14.1141L150.46 9.7373C147.008 9.7373 144.139 10.8608 141.947 13.1311C139.754 15.378 138.635 18.1399 138.635 21.4869C138.635 24.8807 139.754 27.7127 141.993 29.9363C144.232 32.1364 147.194 33.2364 150.81 33.2364C155.148 33.2364 158.413 31.6214 160.605 28.3681L156.617 26.0509C155.334 27.8532 153.399 28.8128 150.856 28.8128Z" fill="#343434"/>
</svg>
