<?xml version="1.0" standalone="no"?>
<!DOCTYPE svg PUBLIC "-//W3C//DTD SVG 20010904//EN"
 "http://www.w3.org/TR/2001/REC-SVG-20010904/DTD/svg10.dtd">
<svg version="1.0" xmlns="http://www.w3.org/2000/svg"
 width="182.000000pt" height="182.000000pt" viewBox="0 0 182.000000 182.000000"
 preserveAspectRatio="xMidYMid meet">
<metadata>
Created by potrace 1.11, written by Peter Selinger 2001-2013
</metadata>
<g transform="translate(0.000000,182.000000) scale(0.100000,-0.100000)"
fill="#000000" stroke="none">
<path d="M940 1813 c-277 -43 -498 -179 -644 -397 -104 -155 -150 -312 -150
-506 0 -123 13 -209 47 -305 21 -59 60 -139 69 -143 4 -2 8 -8 8 -14 0 -20
115 -168 131 -168 5 0 2 18 -6 40 -14 40 -15 224 -2 279 20 78 43 143 75 210
38 81 150 252 204 312 18 20 43 48 55 62 l22 26 -170 170 c-93 93 -166 172
-162 174 39 24 240 33 318 13 102 -24 302 -110 350 -148 6 -5 42 -32 82 -61
39 -28 88 -68 110 -87 21 -19 45 -41 54 -47 14 -11 40 11 187 160 l172 172
-38 34 c-93 86 -251 169 -386 203 -76 19 -262 31 -326 21z"/>
<path d="M578 438 l-173 -174 35 -31 c100 -88 258 -171 392 -204 148 -37 348
-32 483 12 122 40 255 115 340 192 l40 35 -55 -12 c-211 -49 -471 27 -710 207
-58 44 -114 89 -125 101 -52 55 -39 62 -227 -126z"/>
</g>
</svg>
