<svg width="1920" height="1141" viewBox="0 0 1920 1141" fill="none" xmlns="http://www.w3.org/2000/svg">
<path d="M1969.04 820.382C1969.04 820.382 1497.98 863.967 1410.28 643.387C1322.58 422.807 1474.28 414.084 1330.76 439.402C1131.76 474.52 1111.86 270.726 1063.46 234.381C918.336 125.205 901.68 849.162 793.92 889.169C686.16 929.177 466.005 602.119 407.043 498.262C348.081 394.406 230.149 267.321 112.743 249.414C-4.66374 231.506 -4.41467 248.847 -34.278 239.589M1968.9 821.016C1968.9 821.016 1505.19 863.214 1423.58 644.473C1341.24 423.608 1476.47 421.866 1326.75 449.854C1124.12 487.181 1107.92 281.39 1055.99 240.63C913.496 128.74 888.997 832.581 785.041 875.033C680.228 917.756 469.727 614.712 406.373 505.655C346.342 402.49 231.223 279.458 113.96 261.623C-3.30267 243.788 -4.53722 252.3 -34.4006 243.042M1968.9 821.723C1968.9 821.723 1512.62 862.747 1437.17 645.705C1360.26 424.415 1479.16 430.078 1323.1 460.312C1116.91 500.413 1104.42 292.272 1048.81 247.026C908.301 132.623 876.458 816.074 776.018 860.826C674.153 906.264 473.519 627.167 405.559 512.977C344.531 410.364 232.227 291.737 114.821 273.829C-2.58588 255.922 -5.0172 255.75 -34.7371 246.564M1968.77 822.354C1968.77 822.354 1519.83 861.991 1450.47 646.788C1378.99 425.074 1481.43 437.717 1319.09 470.761C1109.34 513.284 1100.34 303.214 1041.35 253.274C903.18 136.716 863.847 799.351 767.14 846.687C668.295 895.053 477.6 639.763 405.033 520.44C343.081 418.59 233.446 303.944 116.039 286.036C-1.36706 268.129 -5.13859 259.201 -34.9313 249.803M1968.77 823.056C1968.77 823.056 1527.41 861.238 1464.06 648.014C1398.01 425.876 1484.05 445.712 1315.44 481.214C1102.2 526.018 1096.83 314.091 1034.17 259.664C897.848 141.226 851.453 782.911 758.406 832.619C662.438 883.84 481.751 652.217 404.508 527.902C341.559 426.602 234.594 316.289 117.188 298.382C-0.21838 280.475 -5.4735 262.718 -35.1228 253.392M1968.63 823.693C1968.63 823.693 1534.76 860.56 1477.29 649.243C1416.81 426.752 1486.31 453.709 1311.35 491.808C1094.42 538.962 1092.68 325.178 1026.56 266.197C892.085 145.88 838.629 766.613 749.098 818.621C656.006 872.698 485.401 664.953 403.409 535.433C339.676 434.617 235.169 328.705 117.977 310.73C0.784398 292.755 -5.74033 266.102 -35.6037 256.844M1968.64 824.395C1968.64 824.395 1542.34 859.807 1490.88 650.469C1435.91 427.413 1488.87 461.49 1307.7 502.26C1087.28 551.695 1089.03 336.335 1019.45 272.447C886.54 150.458 826.306 750.032 740.436 804.412C650.293 861.557 489.624 677.267 403.026 542.614C338.439 442.422 236.674 340.702 119.268 322.795C1.8612 304.887 -6.00371 269.478 -35.7237 260.292M1968.64 825.101C1968.64 825.101 1549.98 858.919 1504.32 651.628C1455.06 427.939 1491.34 469.417 1303.9 512.645C1079.78 564.43 1085.1 347.352 1012.13 278.769C880.851 155.321 813.697 733.665 731.557 790.277C644.291 850.277 493.631 689.653 402.213 549.935C336.843 450.226 237.535 352.907 120.199 334.86C2.86325 316.813 -6.41248 272.787 -36.1324 263.601M1968.5 825.733C1968.5 825.733 1557.62 858.028 1517.77 652.783C1474.15 428.603 1493.75 477.129 1299.89 523.094C1072.28 577.161 1080.95 358.434 1004.66 285.017C874.804 160.177 801.014 717.082 722.461 775.853C638.145 838.922 497.779 701.756 401.469 557.114C335.316 457.888 238.536 364.83 121.129 346.923C3.723 329.015 -6.82231 276.093 -36.4716 266.768M1968.5 826.437C1968.5 826.437 1565.41 857.209 1531.21 653.939C1493.46 429.198 1496.16 484.84 1296.1 533.476C1064.85 589.752 1076.94 369.589 997.479 291.409C869.045 165.177 788.692 700.855 713.727 761.787C632.503 827.996 502.216 714.356 400.943 564.576C334.221 465.767 239.684 377.177 122.421 359.342C5.15808 341.507 -6.87085 279.757 -36.5202 270.431M1968.36 827.074C1968.36 827.074 1573.05 856.324 1544.51 655.028C1512.68 429.587 1498.56 492.557 1292.09 543.931C1057.21 602.416 1072.72 380.816 989.939 297.802C862.856 170.319 775.868 684.558 704.632 747.722C626.287 817.138 506.222 726.745 400.201 572.113C332.696 473.787 240.759 389.67 123.353 371.763C5.94648 353.855 -7.20861 283.281 -37.072 274.023M1968.37 827.773C1968.37 827.773 1580.91 855.36 1558.03 656.392C1532.06 430.39 1501.04 500.476 1288.36 554.52C1049.85 615.215 1068.79 392.178 982.761 304.19C856.958 175.595 763.477 668.467 695.756 733.578C620.361 806.063 510.588 739.129 399.534 579.499C331.459 481.588 241.837 401.8 124.43 383.893C7.02373 365.986 -7.47156 286.655 -37.3349 277.397M1968.23 828.407C1968.23 828.407 1588.77 854.404 1571.34 657.478C1551.29 430.777 1503.3 508.119 1284.35 564.973C1042.21 627.877 1064.5 403.543 975.224 310.58C850.627 180.662 750.941 652.312 686.664 719.51C614.361 795.135 514.666 751.375 398.651 586.96C329.863 489.393 242.627 414.146 125.291 396.098C7.95563 378.051 -7.80708 290.176 -37.5998 280.778M1968.24 829.114C1968.24 829.114 1596.91 853.593 1584.92 658.709C1570.95 431.38 1505.85 515.906 1280.7 575.43C1034.78 640.471 1060.35 414.981 968.042 316.975C844.655 186.086 738.618 636.089 677.928 705.447C608.791 784.424 519.244 763.698 398.194 594.286C328.767 497.275 243.915 426.216 126.652 408.381C9.3892 390.546 -8.07332 293.558 -37.7933 284.372M1968.24 829.818C1968.24 829.818 1605.05 852.779 1598.37 659.865C1590.61 431.98 1508.26 523.617 1276.83 585.952C1027.35 653.062 1056.06 426.343 960.719 323.295C838.468 191.222 726.225 620.003 669.05 691.308C602.935 773.566 523.679 775.946 397.525 601.677C327.528 505.081 245.063 438.563 127.727 420.516C10.3912 402.469 -8.33869 296.936 -38.0586 287.751M1968.1 830.45C1968.1 830.45 1613.05 851.893 1611.81 661.021C1610.34 432.44 1510.66 531.329 1273.04 596.334C1019.93 665.653 1051.91 437.778 953.396 329.615C832.211 196.498 713.904 603.777 660.029 677.098C597.15 762.568 527.972 788.122 396.713 608.996C326.217 512.676 245.996 450.626 128.589 432.719C11.1827 414.811 -8.60279 300.315 -38.4661 291.057M1968.1 831.154C1968.1 831.154 1621.27 850.939 1625.26 662.177C1630.07 432.901 1512.93 538.969 1269.17 606.856C1012.5 678.245 1047.41 449.209 946.071 335.936C826.023 201.635 701.654 587.764 651.149 662.96C591.58 751.855 532.477 800.23 396.042 616.387C324.834 520.41 246.999 462.902 129.592 444.994C12.1859 427.087 -8.93978 303.835 -38.6597 294.649M1967.97 831.788C1967.97 831.788 1629.41 850.128 1638.7 663.336C1650.02 433.649 1515.4 546.543 1265.23 617.169C1004.78 690.695 1042.9 460.641 938.604 342.186C819.551 206.982 689.404 571.753 642.2 648.964C585.867 741.071 537.055 812.553 395.445 623.993C323.667 528.432 248.146 475.252 130.883 457.417C13.6203 439.582 -9.13239 307.428 -38.8523 298.243M1967.97 832.491C1967.97 832.491 1637.91 849.317 1652.08 664.631C1669.83 434.32 1517.59 553.969 1261.29 627.83C997.282 703.072 1038.47 472.283 931.355 348.718C813.224 212.397 677.227 555.598 633.18 634.752C580.226 730.145 541.419 824.588 394.634 631.311C322.357 536.025 249.152 487.526 131.746 469.619C14.3394 451.712 -9.53947 310.734 -39.1888 301.408M1967.97 833.195C1967.97 833.195 1646.34 848.648 1665.67 665.859C1690.13 435.069 1520.14 561.753 1257.64 638.284C989.854 715.663 1034.04 483.925 924.174 355.109C806.965 217.673 665.191 539.517 624.444 620.686C575.013 719.435 546.211 836.84 394.107 638.773C321.261 543.904 250.37 499.733 132.964 481.825C15.5571 463.918 -9.80537 314.112 -39.5253 304.926M1967.84 833.827C1967.84 833.827 1654.7 847.766 1678.97 666.943C1710.15 435.674 1522.41 569.393 1253.7 648.593C982.356 728.395 1029.39 495.635 916.708 361.357C800.422 222.805 652.87 523.291 615.423 606.475C569.372 708.509 551.144 848.46 393.295 646.092C320.165 551.43 251.232 511.936 133.826 494.029C16.4192 476.121 -10.1401 317.631 -39.7894 308.305M1967.84 834.536C1967.84 834.536 1663.13 847.101 1692.56 668.176C1730.45 436.428 1525.1 577.254 1249.98 659.192C974.855 741.131 1024.82 507.211 909.526 367.754C794.235 228.298 640.833 507.214 606.543 592.342C564.015 697.733 555.363 860.781 392.694 653.348C318.781 559.17 252.448 524.148 135.113 506.101C17.7769 488.053 -10.4072 321.015 -40.1271 311.829" stroke="url(#paint0_linear_5704_12498)" stroke-miterlimit="10"/>
<defs>
<linearGradient id="paint0_linear_5704_12498" x1="1202.08" y1="510.554" x2="-96.2638" y2="456.211" gradientUnits="userSpaceOnUse">
<stop stop-color="#5AFF9C"/>
<stop offset="1" stop-color="#36995E" stop-opacity="0"/>
</linearGradient>
</defs>
</svg>
