<svg width="30" height="30" viewBox="0 0 30 30" fill="none" xmlns="http://www.w3.org/2000/svg">
<circle cx="15" cy="15" r="15" fill="#B9DAFF"/>
<circle cx="15.0001" cy="15.002" r="13.0645" fill="url(#paint0_linear_5704_11375)"/>
<mask id="mask0_5704_11375" style="mask-type:alpha" maskUnits="userSpaceOnUse" x="1" y="1" width="28" height="28">
<circle cx="15.0006" cy="14.9992" r="13.1633" fill="white"/>
<circle cx="15.0006" cy="14.9992" r="13.1633" fill="url(#paint1_linear_5704_11375)"/>
</mask>
<g mask="url(#mask0_5704_11375)">
<path d="M8.05571 22.12C4.97384 20.1614 2.96827 21.5021 2.02944 22.9515L3.51131 33.6915L31.0963 29.8854C31.0491 28.4986 28.6533 20.642 27.4889 20.9786C26.0333 21.3995 25.862 20.1582 23.5078 20.648C21.1536 21.1378 21.0702 22.4142 19.4761 21.2043C16.729 19.119 15.5893 21.7406 13.3226 22.0533C11.0733 22.3637 10.0466 23.3853 8.05571 22.12Z" fill="url(#paint2_linear_5704_11375)"/>
</g>
<path d="M15.41 14.4305C15.0888 17.019 13.4483 17.4795 13.4483 19.2792C13.4483 20.3901 14.3805 21.2916 15.4842 21.2916C16.5879 21.2916 17.5194 20.3895 17.5194 19.2792C17.5194 17.4795 15.8789 17.019 15.5577 14.4305C15.5477 14.3531 15.4201 14.3531 15.41 14.4305ZM11.6394 8.76897C11.3182 11.3575 9.67773 11.8174 9.67773 13.6177C9.67773 14.728 10.6092 15.6301 11.7129 15.6301C12.8167 15.6301 13.7482 14.728 13.7482 13.6177C13.7482 11.818 12.1077 11.3575 11.7865 8.76897C11.7771 8.69159 11.6488 8.69159 11.6394 8.76897ZM19.1819 8.76897C18.8607 11.3575 17.2202 11.818 17.2202 13.6177C17.2202 14.728 18.1517 15.6301 19.2554 15.6301C20.3591 15.6301 21.2906 14.728 21.2906 13.6177C21.2906 11.818 19.6501 11.3575 19.329 8.76897C19.3189 8.69159 19.1913 8.69159 19.1819 8.76897Z" fill="white"/>
<defs>
<linearGradient id="paint0_linear_5704_11375" x1="15.0001" y1="40.9791" x2="9.98694" y2="-11.5828" gradientUnits="userSpaceOnUse">
<stop offset="0.394212" stop-color="#67ABFF"/>
<stop offset="1" stop-color="#82E8FF"/>
</linearGradient>
<linearGradient id="paint1_linear_5704_11375" x1="9.4904" y1="4.74411" x2="22.5006" y2="28.1625" gradientUnits="userSpaceOnUse">
<stop offset="0.394212" stop-color="#67ABFF"/>
<stop offset="1" stop-color="#82E8FF"/>
</linearGradient>
<linearGradient id="paint2_linear_5704_11375" x1="15.7259" y1="20.1269" x2="17.3343" y2="31.7843" gradientUnits="userSpaceOnUse">
<stop stop-color="#86D1FF"/>
<stop offset="1" stop-color="#86A1FF" stop-opacity="0"/>
</linearGradient>
</defs>
</svg>
