<svg width="2328" height="456" viewBox="0 0 2328 456" fill="none" xmlns="http://www.w3.org/2000/svg">
<path d="M2326.52 1C2192.81 260.532 2064.9 -24.5743 1675.65 243.166C1545.81 315.785 1487.93 135.502 1386.73 143.395C1285.52 151.288 1225.12 248.534 1138.01 251.06C1050.9 253.744 915.122 98.7191 816.29 114.506C717.458 130.292 705.141 230.064 579.153 240.641C453.164 251.218 313.375 105.981 235.912 155.709C60.6558 268.109 30.6798 177.178 1.14893 168.338" stroke="url(#paint0_linear_7523_2656)" stroke-width="1.3835"/>
<path d="M2321.18 22.6292C2187.03 254.534 2058.66 -1.36648 1675.65 246.641C1545.81 312.471 1487.93 149.238 1386.73 156.5C1285.52 163.603 1225.12 251.535 1138.01 253.903C1050.9 256.271 915.122 116.086 816.29 130.294C717.458 144.502 705.141 234.801 579.153 244.431C453.164 253.903 319.607 119.717 241.848 168.655C65.1077 279.793 30.8282 181.6 1.14893 173.707" stroke="url(#paint1_linear_7523_2656)" stroke-width="1.3835"/>
<path d="M2315.83 44.4132C2181.09 248.692 2052.58 21.9962 1675.65 250.428C1545.81 309.155 1487.93 163.128 1386.73 169.601C1285.52 176.073 1225.12 254.691 1138.01 256.743C1050.9 258.795 915.122 133.45 816.29 146.237C717.458 159.024 705.141 239.851 579.153 248.376C453.164 256.901 325.84 133.45 247.635 181.757C69.5596 291.631 30.6798 186.335 1.14893 179.231" stroke="url(#paint2_linear_7523_2656)" stroke-width="1.3835"/>
<path d="M2310.34 66.0392C2175.15 242.691 2046.35 45.3587 1675.65 253.9C1545.81 305.838 1487.93 177.019 1386.73 182.544C1285.52 188.227 1225.12 257.531 1138.01 259.425C1050.9 261.319 915.122 150.655 816.29 162.022C717.458 173.23 705.141 244.586 579.153 252.163C453.164 259.741 331.924 147.024 253.571 194.7C74.1599 303.312 30.8282 190.753 1.14893 184.597" stroke="url(#paint3_linear_7523_2656)" stroke-width="1.3835"/>
<path d="M2305 87.6675C2169.37 236.851 2040.26 68.5657 1675.65 257.531C1545.81 302.523 1487.93 190.912 1386.73 195.806C1285.52 200.7 1225.12 260.847 1138.01 262.425C1050.9 264.004 915.122 168.021 816.29 177.809C717.458 187.597 705.141 249.322 579.153 255.795C453.164 262.267 338.157 160.602 259.507 207.488C78.7602 314.837 30.8282 195.174 1.14893 189.649" stroke="url(#paint4_linear_7523_2656)" stroke-width="1.3835"/>
<path d="M2299.66 109.295C2163.58 230.852 2034.18 91.7715 1675.65 261.162C1545.81 299.05 1487.93 204.646 1386.73 208.75C1285.52 212.855 1225.12 263.845 1138.01 265.108C1050.9 266.529 915.122 185.228 816.29 193.595C717.458 201.962 705.141 254.216 579.153 259.583C453.164 265.108 344.39 174.178 265.294 220.432C83.2121 326.518 30.6798 199.594 1.14893 195.016" stroke="url(#paint5_linear_7523_2656)" stroke-width="1.3835"/>
<path d="M2294.32 130.924C2157.64 225.012 2028.09 115.138 1675.65 264.637C1545.81 295.736 1487.93 218.54 1386.73 221.855C1285.52 225.17 1225.12 266.847 1138.01 267.952C1050.9 269.057 915.122 202.753 816.29 209.541C717.458 216.33 705.141 259.111 579.153 263.532C453.164 268.11 350.622 188.072 271.23 233.695C87.8124 338.518 30.8282 204.49 1.14893 200.701" stroke="url(#paint6_linear_7523_2656)" stroke-width="1.3835"/>
<path d="M2288.97 152.553C2151.86 219.014 2022.01 138.345 1675.65 268.268C1545.81 292.422 1487.93 232.433 1386.72 234.959C1285.52 237.642 1225.12 270.005 1138.01 270.794C1050.9 271.741 915.121 219.961 816.289 225.329C717.457 230.538 705.14 263.848 579.152 267.321C453.164 270.794 356.706 201.649 277.017 246.641C92.1153 350.201 30.6793 208.911 1 206.069" stroke="url(#paint7_linear_7523_2656)" stroke-width="1.3835"/>
<path d="M2283.48 174.175C2145.92 213.01 2015.78 161.546 1675.65 271.736C1545.81 289.101 1487.93 246.162 1386.73 247.898C1285.52 249.793 1225.12 272.841 1138.01 273.473C1050.9 274.104 915.122 237.163 816.29 240.952C717.458 244.741 705.141 268.421 579.152 270.947C453.312 273.63 363.087 215.378 282.953 259.58C96.8645 361.878 30.8282 213.484 1.14893 211.431" stroke="url(#paint8_linear_7523_2656)" stroke-width="1.3835"/>
<path d="M2278.14 195.809C2140.13 207.176 2009.69 184.916 1675.65 275.374C1545.81 285.793 1487.93 260.061 1386.73 261.166C1285.52 262.271 1225.12 276.163 1138.01 276.479C1050.9 276.794 915.122 254.693 816.29 256.903C717.458 259.113 705.141 273.479 579.153 274.9C453.164 276.479 369.172 228.961 288.889 272.532C101.316 373.566 30.8282 217.91 1.14893 216.648" stroke="url(#paint9_linear_7523_2656)" stroke-width="1.3835"/>
<path d="M2272.8 217.436C2134.2 201.176 2003.61 208.122 1675.65 279.004C1545.81 282.477 1487.93 273.952 1386.73 274.268C1285.52 274.584 1225.12 279.32 1138.01 279.32C1050.9 279.32 915.122 272.058 816.29 272.847C717.458 273.636 705.141 278.372 579.153 278.846C453.164 279.32 375.404 242.695 294.677 285.634C105.917 385.406 30.8282 222.646 1.14893 222.172" stroke="url(#paint10_linear_7523_2656)" stroke-width="1.3835"/>
<path d="M2267.46 239.062C2128.41 195.333 1997.52 231.326 1675.65 282.475C1545.81 279.002 1487.93 287.526 1386.73 287.211C1285.52 286.895 1225.12 282.159 1138.01 282.159C1050.9 282.001 915.122 289.421 816.29 288.632C717.458 287.842 705.141 283.106 579.153 282.633C453.164 282.159 381.489 256.427 300.613 298.577C110.369 397.085 30.8282 227.064 1.14893 227.537" stroke="url(#paint11_linear_7523_2656)" stroke-width="1.3835"/>
<path d="M2261.97 260.685C2122.47 189.33 1991.14 254.686 1675.65 286.101C1545.81 275.682 1487.93 301.414 1386.73 300.309C1285.52 299.204 1225.12 285.312 1138.01 284.996C1050.9 284.681 915.122 306.782 816.29 304.414C717.458 302.046 705.141 287.996 579.153 286.417C453.164 284.838 387.721 269.999 306.4 311.518C114.969 408.763 30.8282 231.796 1.14893 233.058" stroke="url(#paint12_linear_7523_2656)" stroke-width="1.3835"/>
<path d="M2256.62 282.315C2116.69 183.333 1985.06 277.894 1675.65 289.577C1545.81 272.211 1487.93 315.151 1386.73 313.414C1285.52 311.678 1225.12 288.471 1138.01 287.84C1050.9 287.209 915.122 324.149 816.29 320.36C717.458 316.572 705.141 292.892 579.153 290.366C453.164 287.84 393.954 283.893 312.336 324.623C119.421 420.447 30.6798 236.218 1.14893 238.428" stroke="url(#paint13_linear_7523_2656)" stroke-width="1.3835"/>
<path d="M2251.28 303.944C2110.75 177.493 1978.98 301.102 1675.65 293.209C1545.81 269.055 1487.93 329.202 1386.73 326.519C1285.52 323.835 1225.12 291.472 1138.01 290.683C1050.9 289.736 915.122 341.516 816.29 336.148C717.458 330.939 705.141 297.629 579.153 294.156C453.164 290.683 400.187 297.471 318.272 337.569C124.021 432.289 30.8282 240.797 1.14893 243.797" stroke="url(#paint14_linear_7523_2656)" stroke-width="1.3835"/>
<path d="M2245.94 325.57C2104.96 171.493 1972.89 324.465 1675.65 296.839C1545.81 265.739 1487.93 342.936 1386.73 339.62C1285.52 336.305 1225.12 294.629 1138.01 293.523C1050.9 292.418 915.122 358.722 816.29 351.934C717.458 345.146 705.141 302.364 579.153 297.944C453.164 293.366 406.271 311.204 324.059 350.671C128.473 443.97 30.8282 245.374 1.14893 249.163" stroke="url(#paint15_linear_7523_2656)" stroke-width="1.3835"/>
<path d="M2240.45 347.204C2099.03 165.658 1966.66 347.677 1675.65 300.317C1545.81 262.43 1487.93 356.833 1386.73 352.729C1285.52 348.624 1225.12 297.634 1138.01 296.371C1050.9 294.95 915.122 376.251 816.29 367.884C717.458 359.675 705.141 307.263 579.153 301.896C453.164 296.529 412.503 324.944 329.995 363.779C132.925 455.815 30.8282 250.116 1.14893 254.694" stroke="url(#paint16_linear_7523_2656)" stroke-width="1.3835"/>
<path d="M2235.11 368.831C2093.24 159.658 1960.57 370.883 1675.65 303.948C1545.81 258.956 1487.93 370.567 1386.73 365.673C1285.52 360.78 1225.12 300.791 1138.01 299.054C1050.9 297.475 915.122 393.3 816.29 383.67C717.458 374.04 705.141 312.157 579.153 305.684C453.164 299.212 418.736 338.678 335.931 376.724C137.525 467.339 30.8282 254.536 1.14893 259.903" stroke="url(#paint17_linear_7523_2656)" stroke-width="1.3835"/>
<path d="M2229.76 390.614C2087.3 153.815 1954.49 394.402 1675.65 307.576C1545.81 255.638 1487.93 384.457 1386.73 378.932C1285.52 373.406 1225.12 303.787 1138.01 301.893C1050.9 299.999 915.122 410.82 816.29 399.454C717.458 388.088 705.141 316.89 579.153 309.313C453.164 301.735 424.969 352.094 341.718 389.509C141.977 479.176 30.8282 259.111 1.14893 265.426" stroke="url(#paint18_linear_7523_2656)" stroke-width="1.3835"/>
<path d="M2224.42 412.242C2081.52 147.974 1948.41 417.609 1675.65 311.207C1545.81 252.323 1487.93 398.349 1386.73 392.035C1285.52 385.72 1225.12 306.945 1138.01 304.893C1050.9 302.84 915.122 428.186 816.29 415.399C717.458 402.612 705.141 321.784 579.153 313.26C453.164 304.735 431.053 365.829 347.654 402.612C146.577 490.859 30.8282 263.69 1.14893 270.794" stroke="url(#paint19_linear_7523_2656)" stroke-width="1.3835"/>
<path d="M2219.08 433.868C2075.73 141.974 1942.32 440.814 1675.65 314.837C1545.81 249.165 1487.93 412.24 1386.73 405.136C1285.52 398.032 1225.12 310.101 1138.01 307.733C1050.9 305.365 915.122 445.392 816.29 431.184C717.458 416.976 705.141 326.677 579.153 317.047C453.164 307.575 437.286 379.562 353.442 415.555C151.029 502.54 30.8282 268.267 1.14893 276.16" stroke="url(#paint20_linear_7523_2656)" stroke-width="1.3835"/>
<path d="M2213.59 455.495C2069.79 136.132 1936.09 464.177 1675.65 318.309C1545.81 245.691 1487.93 425.974 1386.73 418.08C1285.52 410.187 1225.12 312.942 1138.01 310.416C1050.9 307.89 915.122 462.756 816.29 446.97C717.458 431.183 705.141 331.412 579.153 320.835C453.164 310.258 443.518 393.138 359.378 428.5C155.629 514.379 30.8282 272.686 1.14893 281.526" stroke="url(#paint21_linear_7523_2656)" stroke-width="1.3835"/>
<defs>
<linearGradient id="paint0_linear_7523_2656" x1="1.14891" y1="200.097" x2="2086.05" y2="-155.812" gradientUnits="userSpaceOnUse">
<stop stop-color="#3DD0FF" stop-opacity="0"/>
<stop offset="0.23447" stop-color="#3DD0FF" stop-opacity="0.4"/>
<stop offset="0.505045" stop-color="#3DD0FF"/>
<stop offset="0.781633" stop-color="#3DD0FF" stop-opacity="0.4"/>
<stop offset="1" stop-color="#3DD0FF" stop-opacity="0"/>
</linearGradient>
<linearGradient id="paint1_linear_7523_2656" x1="1.14891" y1="206.567" x2="2071.51" y2="-175.11" gradientUnits="userSpaceOnUse">
<stop stop-color="#3DD0FF" stop-opacity="0"/>
<stop offset="0.23447" stop-color="#3DD0FF" stop-opacity="0.4"/>
<stop offset="0.505045" stop-color="#3DD0FF"/>
<stop offset="0.781633" stop-color="#3DD0FF" stop-opacity="0.4"/>
<stop offset="1" stop-color="#3DD0FF" stop-opacity="0"/>
</linearGradient>
<linearGradient id="paint2_linear_7523_2656" x1="1.14891" y1="213.218" x2="2054.47" y2="-198.301" gradientUnits="userSpaceOnUse">
<stop stop-color="#3DD0FF" stop-opacity="0"/>
<stop offset="0.23447" stop-color="#3DD0FF" stop-opacity="0.4"/>
<stop offset="0.505045" stop-color="#3DD0FF"/>
<stop offset="0.781633" stop-color="#3DD0FF" stop-opacity="0.4"/>
<stop offset="1" stop-color="#3DD0FF" stop-opacity="0"/>
</linearGradient>
<linearGradient id="paint3_linear_7523_2656" x1="1.14891" y1="219.693" x2="2033.8" y2="-226.794" gradientUnits="userSpaceOnUse">
<stop stop-color="#3DD0FF" stop-opacity="0"/>
<stop offset="0.23447" stop-color="#3DD0FF" stop-opacity="0.4"/>
<stop offset="0.505045" stop-color="#3DD0FF"/>
<stop offset="0.781633" stop-color="#3DD0FF" stop-opacity="0.4"/>
<stop offset="1" stop-color="#3DD0FF" stop-opacity="0"/>
</linearGradient>
<linearGradient id="paint4_linear_7523_2656" x1="1.14891" y1="226.24" x2="2008.42" y2="-261.523" gradientUnits="userSpaceOnUse">
<stop stop-color="#3DD0FF" stop-opacity="0"/>
<stop offset="0.23447" stop-color="#3DD0FF" stop-opacity="0.4"/>
<stop offset="0.505045" stop-color="#3DD0FF"/>
<stop offset="0.781633" stop-color="#3DD0FF" stop-opacity="0.4"/>
<stop offset="1" stop-color="#3DD0FF" stop-opacity="0"/>
</linearGradient>
<linearGradient id="paint5_linear_7523_2656" x1="1.14891" y1="232.735" x2="1975.76" y2="-304.665" gradientUnits="userSpaceOnUse">
<stop stop-color="#3DD0FF" stop-opacity="0"/>
<stop offset="0.23447" stop-color="#3DD0FF" stop-opacity="0.4"/>
<stop offset="0.505045" stop-color="#3DD0FF"/>
<stop offset="0.781633" stop-color="#3DD0FF" stop-opacity="0.4"/>
<stop offset="1" stop-color="#3DD0FF" stop-opacity="0"/>
</linearGradient>
<linearGradient id="paint6_linear_7523_2656" x1="1.14891" y1="240.468" x2="1935.96" y2="-351.522" gradientUnits="userSpaceOnUse">
<stop stop-color="#3DD0FF" stop-opacity="0"/>
<stop offset="0.23447" stop-color="#3DD0FF" stop-opacity="0.4"/>
<stop offset="0.505045" stop-color="#3DD0FF"/>
<stop offset="0.781633" stop-color="#3DD0FF" stop-opacity="0.4"/>
<stop offset="1" stop-color="#3DD0FF" stop-opacity="0"/>
</linearGradient>
<linearGradient id="paint7_linear_7523_2656" x1="0.999985" y1="253.826" x2="1904.59" y2="-374.745" gradientUnits="userSpaceOnUse">
<stop stop-color="#3DD0FF" stop-opacity="0"/>
<stop offset="0.23447" stop-color="#3DD0FF" stop-opacity="0.4"/>
<stop offset="0.505045" stop-color="#3DD0FF"/>
<stop offset="0.781633" stop-color="#3DD0FF" stop-opacity="0.4"/>
<stop offset="1" stop-color="#3DD0FF" stop-opacity="0"/>
</linearGradient>
<linearGradient id="paint8_linear_7523_2656" x1="1.14891" y1="267.293" x2="1867.57" y2="-401.327" gradientUnits="userSpaceOnUse">
<stop stop-color="#3DD0FF" stop-opacity="0"/>
<stop offset="0.23447" stop-color="#3DD0FF" stop-opacity="0.4"/>
<stop offset="0.505045" stop-color="#3DD0FF"/>
<stop offset="0.781633" stop-color="#3DD0FF" stop-opacity="0.4"/>
<stop offset="1" stop-color="#3DD0FF" stop-opacity="0"/>
</linearGradient>
<linearGradient id="paint9_linear_7523_2656" x1="1.14891" y1="280.841" x2="1823.07" y2="-432.239" gradientUnits="userSpaceOnUse">
<stop stop-color="#3DD0FF" stop-opacity="0"/>
<stop offset="0.23447" stop-color="#3DD0FF" stop-opacity="0.4"/>
<stop offset="0.505045" stop-color="#3DD0FF"/>
<stop offset="0.781633" stop-color="#3DD0FF" stop-opacity="0.4"/>
<stop offset="1" stop-color="#3DD0FF" stop-opacity="0"/>
</linearGradient>
<linearGradient id="paint10_linear_7523_2656" x1="1.14891" y1="292.903" x2="1806.72" y2="-431.355" gradientUnits="userSpaceOnUse">
<stop stop-color="#3DD0FF" stop-opacity="0"/>
<stop offset="0.23447" stop-color="#3DD0FF" stop-opacity="0.4"/>
<stop offset="0.505045" stop-color="#3DD0FF"/>
<stop offset="0.781633" stop-color="#3DD0FF" stop-opacity="0.4"/>
<stop offset="1" stop-color="#3DD0FF" stop-opacity="0"/>
</linearGradient>
<linearGradient id="paint11_linear_7523_2656" x1="1.14891" y1="303.74" x2="1812.56" y2="-408.116" gradientUnits="userSpaceOnUse">
<stop stop-color="#3DD0FF" stop-opacity="0"/>
<stop offset="0.23447" stop-color="#3DD0FF" stop-opacity="0.4"/>
<stop offset="0.505045" stop-color="#3DD0FF"/>
<stop offset="0.781633" stop-color="#3DD0FF" stop-opacity="0.4"/>
<stop offset="1" stop-color="#3DD0FF" stop-opacity="0"/>
</linearGradient>
<linearGradient id="paint12_linear_7523_2656" x1="1.14891" y1="314.628" x2="1819.18" y2="-383.473" gradientUnits="userSpaceOnUse">
<stop stop-color="#3DD0FF" stop-opacity="0"/>
<stop offset="0.23447" stop-color="#3DD0FF" stop-opacity="0.4"/>
<stop offset="0.505045" stop-color="#3DD0FF"/>
<stop offset="0.781633" stop-color="#3DD0FF" stop-opacity="0.4"/>
<stop offset="1" stop-color="#3DD0FF" stop-opacity="0"/>
</linearGradient>
<linearGradient id="paint13_linear_7523_2656" x1="1.14891" y1="325.597" x2="1826.15" y2="-358.139" gradientUnits="userSpaceOnUse">
<stop stop-color="#3DD0FF" stop-opacity="0"/>
<stop offset="0.23447" stop-color="#3DD0FF" stop-opacity="0.4"/>
<stop offset="0.505045" stop-color="#3DD0FF"/>
<stop offset="0.781633" stop-color="#3DD0FF" stop-opacity="0.4"/>
<stop offset="1" stop-color="#3DD0FF" stop-opacity="0"/>
</linearGradient>
<linearGradient id="paint14_linear_7523_2656" x1="1.14891" y1="335.958" x2="1843.01" y2="-321.066" gradientUnits="userSpaceOnUse">
<stop stop-color="#3DD0FF" stop-opacity="0"/>
<stop offset="0.23447" stop-color="#3DD0FF" stop-opacity="0.4"/>
<stop offset="0.505045" stop-color="#3DD0FF"/>
<stop offset="0.781633" stop-color="#3DD0FF" stop-opacity="0.4"/>
<stop offset="1" stop-color="#3DD0FF" stop-opacity="0"/>
</linearGradient>
<linearGradient id="paint15_linear_7523_2656" x1="1.14891" y1="346.201" x2="1860.16" y2="-282.009" gradientUnits="userSpaceOnUse">
<stop stop-color="#3DD0FF" stop-opacity="0"/>
<stop offset="0.23447" stop-color="#3DD0FF" stop-opacity="0.4"/>
<stop offset="0.505045" stop-color="#3DD0FF"/>
<stop offset="0.781633" stop-color="#3DD0FF" stop-opacity="0.4"/>
<stop offset="1" stop-color="#3DD0FF" stop-opacity="0"/>
</linearGradient>
<linearGradient id="paint16_linear_7523_2656" x1="1.14891" y1="356.598" x2="1874.43" y2="-244.618" gradientUnits="userSpaceOnUse">
<stop stop-color="#3DD0FF" stop-opacity="0"/>
<stop offset="0.23447" stop-color="#3DD0FF" stop-opacity="0.4"/>
<stop offset="0.505045" stop-color="#3DD0FF"/>
<stop offset="0.781633" stop-color="#3DD0FF" stop-opacity="0.4"/>
<stop offset="1" stop-color="#3DD0FF" stop-opacity="0"/>
</linearGradient>
<linearGradient id="paint17_linear_7523_2656" x1="1.14891" y1="366.789" x2="1886.82" y2="-208.707" gradientUnits="userSpaceOnUse">
<stop stop-color="#3DD0FF" stop-opacity="0"/>
<stop offset="0.23447" stop-color="#3DD0FF" stop-opacity="0.4"/>
<stop offset="0.505045" stop-color="#3DD0FF"/>
<stop offset="0.781633" stop-color="#3DD0FF" stop-opacity="0.4"/>
<stop offset="1" stop-color="#3DD0FF" stop-opacity="0"/>
</linearGradient>
<linearGradient id="paint18_linear_7523_2656" x1="1.14891" y1="377.123" x2="1896.71" y2="-175.002" gradientUnits="userSpaceOnUse">
<stop stop-color="#3DD0FF" stop-opacity="0"/>
<stop offset="0.23447" stop-color="#3DD0FF" stop-opacity="0.4"/>
<stop offset="0.505045" stop-color="#3DD0FF"/>
<stop offset="0.781633" stop-color="#3DD0FF" stop-opacity="0.4"/>
<stop offset="1" stop-color="#3DD0FF" stop-opacity="0"/>
</linearGradient>
<linearGradient id="paint19_linear_7523_2656" x1="1.14891" y1="387.562" x2="1905.53" y2="-141.663" gradientUnits="userSpaceOnUse">
<stop stop-color="#3DD0FF" stop-opacity="0"/>
<stop offset="0.23447" stop-color="#3DD0FF" stop-opacity="0.4"/>
<stop offset="0.505045" stop-color="#3DD0FF"/>
<stop offset="0.781633" stop-color="#3DD0FF" stop-opacity="0.4"/>
<stop offset="1" stop-color="#3DD0FF" stop-opacity="0"/>
</linearGradient>
<linearGradient id="paint20_linear_7523_2656" x1="1.14891" y1="397.969" x2="1912.71" y2="-109.94" gradientUnits="userSpaceOnUse">
<stop stop-color="#3DD0FF" stop-opacity="0"/>
<stop offset="0.23447" stop-color="#3DD0FF" stop-opacity="0.4"/>
<stop offset="0.505045" stop-color="#3DD0FF"/>
<stop offset="0.781633" stop-color="#3DD0FF" stop-opacity="0.4"/>
<stop offset="1" stop-color="#3DD0FF" stop-opacity="0"/>
</linearGradient>
<linearGradient id="paint21_linear_7523_2656" x1="1.14891" y1="414.974" x2="1929.76" y2="-51.534" gradientUnits="userSpaceOnUse">
<stop stop-color="#3DD0FF" stop-opacity="0"/>
<stop offset="0.23447" stop-color="#3DD0FF" stop-opacity="0.4"/>
<stop offset="0.505045" stop-color="#3DD0FF"/>
<stop offset="0.781633" stop-color="#3DD0FF" stop-opacity="0.4"/>
<stop offset="1" stop-color="#3DD0FF" stop-opacity="0"/>
</linearGradient>
</defs>
</svg>
