<svg width="60" height="60" viewBox="0 0 60 60" fill="none" xmlns="http://www.w3.org/2000/svg">
<path d="M10.5556 52.5C7.48731 52.5 5 49.9816 5 46.875V35.625C5 32.5184 7.48731 30 10.5556 30M10.5556 30C13.6238 30 16.1111 32.5184 16.1111 35.625V39.8438C16.1111 40.6204 16.7329 41.25 17.5 41.25H42.5C43.2671 41.25 43.8889 40.6204 43.8889 39.8438V35.625C43.8889 32.5184 46.3762 30 49.4444 30M10.5556 30V27.1875C10.5556 16.3144 19.2611 7.5 30 7.5C40.7389 7.5 49.4444 16.3144 49.4444 27.1875V30M49.4444 30C52.5127 30 55 32.5184 55 35.625V46.875C55 49.9816 52.5127 52.5 49.4444 52.5H30" stroke="#1CE17E" stroke-width="3" stroke-linecap="round"/>
</svg>
